<?xml version="1.0" encoding="UTF-8" standalone="no"?>
<!-- Created with Inkscape (http://www.inkscape.org/) -->

<svg
   width="418"
   height="148"
   viewBox="0 0 110.59616 39.158333"
   version="1.1"
   id="svg80"
   sodipodi:docname="no-facebook.svg"
   inkscape:version="1.2.2 (b0a8486541, 2022-12-01)"
   xmlns:inkscape="http://www.inkscape.org/namespaces/inkscape"
   xmlns:sodipodi="http://sodipodi.sourceforge.net/DTD/sodipodi-0.dtd"
   xmlns:xlink="http://www.w3.org/1999/xlink"
   xmlns="http://www.w3.org/2000/svg"
   xmlns:svg="http://www.w3.org/2000/svg"
   xmlns:rdf="http://www.w3.org/1999/02/22-rdf-syntax-ns#"
   xmlns:cc="http://creativecommons.org/ns#"
   xmlns:dc="http://purl.org/dc/elements/1.1/">
  <sodipodi:namedview
     id="namedview62"
     pagecolor="#ffffff"
     bordercolor="#000000"
     borderopacity="0.25"
     inkscape:showpageshadow="2"
     inkscape:pageopacity="0.0"
     inkscape:pagecheckerboard="0"
     inkscape:deskcolor="#d1d1d1"
     showgrid="false"
     inkscape:zoom="3.6004785"
     inkscape:cx="206.08372"
     inkscape:cy="74.01794"
     inkscape:window-width="2560"
     inkscape:window-height="1400"
     inkscape:window-x="0"
     inkscape:window-y="40"
     inkscape:window-maximized="1"
     inkscape:current-layer="svg80" />
  <defs
     id="defs74">
    <linearGradient
       id="linearGradient1033">
      <stop
         style="stop-color:#000000;stop-opacity:1;"
         offset="0"
         id="stop1031" />
    </linearGradient>
    <linearGradient
       id="linearGradient1027">
      <stop
         style="stop-color:#000000;stop-opacity:1;"
         offset="0"
         id="stop1025" />
    </linearGradient>
    <clipPath
       id="SVGID_2_">
      <use
         xlink:href="#SVGID_1_"
         style="overflow:visible"
         id="use1007"
         x="0"
         y="0"
         width="100%"
         height="100%" />
    </clipPath>
    <clipPath
       id="SVGID_2_-3">
      <use
         xlink:href="#SVGID_1_"
         style="overflow:visible"
         id="use1007-6"
         x="0"
         y="0"
         width="100%"
         height="100%" />
    </clipPath>
    <clipPath
       id="SVGID_2_-5">
      <use
         xlink:href="#SVGID_1_"
         style="overflow:visible"
         id="use1007-3"
         x="0"
         y="0"
         width="100%"
         height="100%" />
    </clipPath>
    <clipPath
       id="SVGID_2_-6">
      <use
         xlink:href="#SVGID_1_"
         style="overflow:visible"
         id="use1007-2"
         x="0"
         y="0"
         width="100%"
         height="100%" />
    </clipPath>
    <clipPath
       id="SVGID_2_-1">
      <use
         xlink:href="#SVGID_1_"
         style="overflow:visible"
         id="use1007-27"
         x="0"
         y="0"
         width="100%"
         height="100%" />
    </clipPath>
    <clipPath
       id="SVGID_2_-9">
      <use
         xlink:href="#SVGID_1_"
         style="overflow:visible"
         id="use1007-36"
         x="0"
         y="0"
         width="100%"
         height="100%" />
    </clipPath>
    <clipPath
       id="SVGID_2_-2">
      <use
         xlink:href="#SVGID_1_"
         style="overflow:visible"
         id="use1007-61"
         x="0"
         y="0"
         width="100%"
         height="100%" />
    </clipPath>
    <clipPath
       id="SVGID_2_-7">
      <use
         xlink:href="#SVGID_1_"
         style="overflow:visible"
         id="use1007-9"
         x="0"
         y="0"
         width="100%"
         height="100%" />
    </clipPath>
    <clipPath
       id="SVGID_2_-0">
      <use
         xlink:href="#SVGID_1_"
         style="overflow:visible"
         id="use1007-23"
         x="0"
         y="0"
         width="100%"
         height="100%" />
    </clipPath>
    <clipPath
       id="SVGID_2_-92">
      <use
         xlink:href="#SVGID_1_"
         style="overflow:visible"
         id="use1007-28"
         x="0"
         y="0"
         width="100%"
         height="100%" />
    </clipPath>
    <clipPath
       id="SVGID_2_-36">
      <use
         xlink:href="#SVGID_1_"
         style="overflow:visible"
         id="use1007-1"
         x="0"
         y="0"
         width="100%"
         height="100%" />
    </clipPath>
    <clipPath
       id="SVGID_2_-31">
      <use
         xlink:href="#SVGID_1_"
         style="overflow:visible"
         id="use1007-94"
         x="0"
         y="0"
         width="100%"
         height="100%" />
    </clipPath>
    <clipPath
       id="SVGID_2_-4">
      <use
         xlink:href="#SVGID_1_"
         style="overflow:visible"
         id="use1007-5"
         x="0"
         y="0"
         width="100%"
         height="100%" />
    </clipPath>
    <clipPath
       id="SVGID_2_-61">
      <use
         xlink:href="#SVGID_1_"
         style="overflow:visible"
         id="use1007-0"
         x="0"
         y="0"
         width="100%"
         height="100%" />
    </clipPath>
    <clipPath
       id="SVGID_2_-32">
      <use
         xlink:href="#SVGID_1_"
         style="overflow:visible"
         id="use1007-06"
         x="0"
         y="0"
         width="100%"
         height="100%" />
    </clipPath>
    <rect
       x="0"
       height="12.9"
       width="66.900002"
       y="0"
       id="SVGID_1_" />
    <clipPath
       id="clipPath4674"
       clipPathUnits="userSpaceOnUse">
      <path
         id="path4676"
         d="M 0,500 H 1024 V 0 H 0 Z" />
    </clipPath>
    <linearGradient
       xlink:href="#linearGradient1027"
       id="linearGradient1029"
       x1="-1.2029998"
       y1="14.334795"
       x2="10.983719"
       y2="14.334795"
       gradientUnits="userSpaceOnUse" />
    <linearGradient
       xlink:href="#linearGradient1033"
       id="linearGradient1035"
       x1="-8.780899"
       y1="14.330109"
       x2="20.15568"
       y2="14.330109"
       gradientUnits="userSpaceOnUse" />
    <linearGradient
       xlink:href="#linearGradient1027"
       id="linearGradient2569"
       gradientUnits="userSpaceOnUse"
       x1="-1.2029998"
       y1="14.334795"
       x2="10.983719"
       y2="14.334795" />
  </defs>
  <metadata
     id="metadata77">
    <rdf:RDF>
      <cc:Work
         rdf:about="">
        <dc:format>image/svg+xml</dc:format>
        <dc:type
           rdf:resource="http://purl.org/dc/dcmitype/StillImage" />
      </cc:Work>
    </rdf:RDF>
  </metadata>
  <g
     id="g1040"
     transform="translate(14.296147,5.8416081)">
    <rect
       style="fill:#275697;fill-opacity:1;stroke:url(#linearGradient1035);stroke-width:0.79375;stroke-dasharray:none"
       id="rect303"
       width="28.936579"
       height="29.187744"
       x="-8.780899"
       y="-0.26376298"
       ry="0.97906625" />
    <g
       aria-label="f"
       id="text1101"
       style="font-size:37.0417px;-inkscape-font-specification:sans-serif;fill:#ffffff;stroke:url(#linearGradient2569);stroke-width:0.79375">
      <path
         d="m 4.46438,1.6294926 q 0.5926672,-0.4445004 1.0001259,-0.4815421 0.4445004,-0.074083 1.96321,-0.074083 1.5557514,0 2.5558772,0.4445004 1.0001259,0.4445004 1.0001259,1.7780015 0,1.3335011 -1.0742093,1.3335011 -0.2222502,0 -1.2594177,-0.3704169 -1.0371676,-0.4074587 -1.3335012,-0.4074587 -1.2964594,0 -1.5557513,1.5557513 -0.074083,0.5556255 -0.074083,2.2965853 0,1.7039181 0,2.8151689 H 8.279675 q 1.6298347,0.07408 1.6298347,1.148293 0,1.555751 -2.2225019,1.629835 -0.3333753,0.03704 -0.8149174,0.03704 -0.481542,0 -1.1112509,-0.03704 0.074083,1.481668 0.3333753,5.296962 0.2592919,3.778254 0.2592919,7.371298 0,0.740834 -0.5926672,1.185335 -0.5926672,0.4445 -1.2223761,0.4445 -1.0001258,0 -1.0001258,-1.185334 0,-3.333753 -0.2592919,-6.482297 -0.2592919,-3.148545 -0.370417,-6.630464 -3.33375286,0 -3.88937833,-0.666751 -0.22225017,-0.259292 -0.22225017,-0.666751 0,-0.963084 0.77787564,-1.259417 0.81491737,-0.296334 1.85208496,-0.296334 1.0371675,0 1.4816679,0 Q 3.0197538,4.3705783 3.5753793,2.925952 3.9087546,2.0369513 4.46438,1.6294926 Z"
         style="font-family:'Patrick Hand';-inkscape-font-specification:'Patrick Hand'"
         id="path339" />
    </g>
  </g>
  <g
     transform="matrix(0.26458333,0,0,0.26458333,-772.93915,-472.19974)"
     id="g1026">
    <defs
       id="defs1005">
      <rect
         x="0"
         height="12.9"
         width="66.900002"
         y="0"
         id="rect1656" />
    </defs>
    <clipPath
       id="SVGID_2_-67">
      <use
         height="100%"
         width="100%"
         y="0"
         x="0"
         id="use1007-365"
         style="overflow:visible"
         xlink:href="#SVGID_1_" />
    </clipPath>
  </g>
  <text
     xml:space="preserve"
     style="font-style:normal;font-variant:normal;font-weight:normal;font-stretch:normal;font-size:4.23333px;line-height:1.25;font-family:'SF Cartoonist Hand SC';-inkscape-font-specification:'SF Cartoonist Hand SC';font-variant-ligatures:normal;font-variant-caps:normal;font-variant-numeric:normal;font-feature-settings:normal;text-align:start;letter-spacing:0px;word-spacing:0px;writing-mode:lr-tb;text-anchor:start;fill:#000000;fill-opacity:1;stroke:none;stroke-width:0.264583"
     x="15.863658"
     y="-1.2809329"
     id="text1669" />
  <text
     id="text1673"
     y="30.651152"
     x="27.102875"
     style="font-style:normal;font-variant:normal;font-weight:600;font-stretch:normal;font-size:7.00594px;line-height:1.25;font-family:'URW Gothic L';-inkscape-font-specification:'URW Gothic L Semi-Bold';font-variant-ligatures:normal;font-variant-caps:normal;font-variant-numeric:normal;font-feature-settings:normal;text-align:start;letter-spacing:0px;word-spacing:0px;writing-mode:lr-tb;text-anchor:start;fill:#000000;fill-opacity:1;stroke:none;stroke-width:0.437871"
     xml:space="preserve" />
  <g
     aria-label="’d"
     style="font-style:normal;font-variant:normal;font-weight:bold;font-stretch:normal;font-size:9.72288px;line-height:1.25;font-family:'Open Sans Condensed';-inkscape-font-specification:'Open Sans Condensed, Bold';font-variant-ligatures:normal;font-variant-caps:normal;font-variant-numeric:normal;font-feature-settings:normal;text-align:start;letter-spacing:-0.0767292px;word-spacing:0px;writing-mode:lr-tb;text-anchor:start;fill:#ffffff;fill-opacity:1;stroke:none;stroke-width:0.60768"
     id="text1677"
     transform="translate(13.842136,5.2194147)" />
  <g
     aria-label="You won't find meon Facebook"
     id="text1774"
     style="font-size:11.2889px;font-family:'Patrick Hand';-inkscape-font-specification:'Patrick Hand';fill:#275697;stroke-width:0.79375">
    <path
       d="m 41.641439,16.715367 0.01129,-0.575734 q 0,-0.293511 -0.191911,-0.575734 -0.180622,-0.282222 -0.891823,-1.63689 -0.711201,-1.354668 -0.711201,-1.524002 0,-0.180622 0.146756,-0.316089 0.146756,-0.146756 0.282222,-0.146756 0.146756,0 0.338667,0.259645 0.203201,0.259645 0.778935,1.365957 0.587022,1.106312 0.677334,1.219201 1.083734,-1.919113 1.73849,-2.709336 0.158045,-0.146756 0.248356,-0.146756 0.1016,0 0.146756,0.02258 0.270933,0.112889 0.270933,0.3048 0,0.180623 -0.09031,0.31609 -0.09031,0.135466 -0.496711,0.7112 -0.598312,0.835379 -1.038579,1.693335 -0.428978,0.846668 -0.428978,1.038579 v 2.065869 l 0.03387,0.903112 q 0,0.248356 -0.135467,0.349956 -0.135466,0.09031 -0.338667,0.09031 -0.191911,0 -0.259644,-0.214489 -0.06773,-0.214489 -0.07902,-0.564445 -0.01129,-0.349956 -0.01129,-1.02729 z"
       id="path342" />
    <path
       d="m 47.048816,14.186653 q 0.812801,0 1.33209,0.778934 0.530579,0.778935 0.530579,1.873958 0,1.083734 -0.541867,1.85138 -0.530579,0.767645 -1.422402,0.767645 -0.880534,0 -1.422401,-0.778934 -0.541868,-0.790223 -0.541868,-1.74978 0,-1.23049 0.496712,-1.964269 0.530578,-0.778934 1.569157,-0.778934 z m -0.135467,0.92569 q -0.474133,0 -0.778934,0.496712 -0.3048,0.496711 -0.3048,1.049867 0,0.857957 0.338667,1.309513 0.338667,0.451556 0.767645,0.451556 0.767645,0 0.982135,-0.666045 0.09031,-0.316089 0.09031,-0.790223 0,-1.85138 -1.095024,-1.85138 z"
       id="path344" />
    <path
       d="m 49.577529,14.615632 q 0.04516,-0.191912 0.191911,-0.31609 0.146756,-0.135466 0.293511,-0.135466 0.158045,0 0.237067,0.05644 0.09031,0.05645 0.1016,0.1016 0.02258,0.04516 0.04516,0.158045 -0.06773,0.880534 -0.06773,1.591735 0,0.699911 0.169333,1.614312 0.169334,0.903112 0.372534,0.903112 0.3048,0 0.767645,-0.338667 0.474134,-0.338667 0.677334,-0.7112 -0.135467,-1.625602 -0.135467,-2.788359 0,-0.237067 0.146756,-0.4064 0.158045,-0.169334 0.372534,-0.169334 0.349956,0 0.349956,0.474134 0,0.801512 0.112889,2.381958 0.124178,1.580446 0.248355,2.009424 0.02258,0.09031 0.02258,0.21449 0,0.112889 -0.158044,0.214489 -0.146756,0.112889 -0.395112,0.112889 -0.237067,0 -0.316089,-0.270934 -0.02258,-0.225778 -0.112889,-0.677334 -0.790223,0.82409 -1.591735,0.82409 -0.372534,0 -0.666045,-0.282223 -0.293512,-0.282222 -0.462845,-0.767645 -0.293512,-0.936979 -0.293512,-1.761068 0,-0.82409 0.09031,-2.032002 z"
       id="path346" />
    <path
       d="m 57.649084,19.435992 q -0.383823,0 -0.745068,-1.490135 -0.349956,-1.501424 -0.349956,-3.364092 0,-0.191911 0.158045,-0.293512 0.169334,-0.112889 0.3048,-0.112889 0.135467,0 0.214489,0.09031 0.09031,0.07902 0.09031,0.214489 0,1.761068 0.598311,3.38667 0.09031,-0.135467 0.282223,-0.541867 0.191911,-0.41769 0.361245,-0.609601 0.169333,-0.191911 0.4064,-0.191911 0.237067,0 0.496712,0.349956 0.259644,0.349956 0.440267,0.756356 0.191911,0.395111 0.214489,0.417689 0.3048,-0.948267 0.3048,-1.761068 l -0.06773,-1.715913 q -0.01129,-0.169334 0.158044,-0.282223 0.169334,-0.124177 0.327379,-0.124177 0.327378,0 0.327378,1.275645 v 0.62089 q 0,1.512712 -0.462845,2.698047 -0.248356,0.677334 -0.62089,0.677334 -0.214489,0 -0.395111,-0.270934 -0.180623,-0.282222 -0.406401,-0.790223 -0.225778,-0.508 -0.349956,-0.699911 l -0.338667,0.666045 q -0.191911,0.395111 -0.293511,0.575734 -0.1016,0.169333 -0.282223,0.349955 -0.180622,0.169334 -0.372533,0.169334 z"
       id="path348" />
    <path
       d="m 63.936994,14.186653 q 0.8128,0 1.33209,0.778934 0.530578,0.778935 0.530578,1.873958 0,1.083734 -0.541867,1.85138 -0.530578,0.767645 -1.422401,0.767645 -0.880535,0 -1.422402,-0.778934 -0.541867,-0.790223 -0.541867,-1.74978 0,-1.23049 0.496711,-1.964269 0.530579,-0.778934 1.569158,-0.778934 z m -0.135467,0.92569 q -0.474134,0 -0.778934,0.496712 -0.304801,0.496711 -0.304801,1.049867 0,0.857957 0.338667,1.309513 0.338667,0.451556 0.767646,0.451556 0.767645,0 0.982134,-0.666045 0.09031,-0.316089 0.09031,-0.790223 0,-1.85138 -1.095023,-1.85138 z"
       id="path350" />
    <path
       d="m 66.917262,19.097325 -0.124178,-4.583294 q 0,-0.214489 0.146755,-0.349955 0.146756,-0.135467 0.293512,-0.135467 0.361245,0 0.417689,0.3048 0.04516,0.3048 0.04516,0.632178 0.6096,-0.801511 1.524001,-0.801511 1.399824,0 1.399824,3.194758 0,0.293512 0,0.891823 0,0.587023 -0.06773,0.857957 -0.07902,0.338667 -0.485423,0.338667 -0.270934,0 -0.270934,-0.361245 l 0.01129,-0.632178 q 0,-1.309513 -0.09031,-1.783647 -0.07902,-0.485422 -0.158045,-0.767645 -0.191911,-0.6096 -0.620889,-0.6096 -0.564445,0 -0.790223,0.4064 -0.248356,0.440267 -0.293512,1.038579 -0.07902,1.049868 -0.07902,2.223913 0,0.225778 -0.169333,0.361245 -0.169334,0.135467 -0.406401,0.135467 -0.282222,0 -0.282222,-0.361245 z"
       id="path352" />
    <path
       d="m 72.313352,11.940162 q -0.1016,0.112889 -0.248356,0.112889 -0.146755,0 -0.259644,-0.1016 -0.112889,-0.112889 -0.146756,-0.3048 l 0.09031,-1.6820464 q 0.05644,-0.3499559 0.383823,-0.3499559 0.395111,0 0.395111,0.7676453 0,0.191911 -0.04515,0.496711 -0.03387,0.304801 -0.04516,0.756357 -0.01129,0.191911 -0.124178,0.3048 z"
       id="path354" />
    <path
       d="m 73.724461,14.175364 0.564445,0.01129 q 0.191911,0 0.214489,-0.01129 V 11.86114 q 0.01129,-0.191911 0.191911,-0.327378 0.180622,-0.135467 0.338667,-0.135467 0.158045,0 0.248356,0.1016 0.1016,0.1016 0.09031,0.316089 -0.01129,0.214489 -0.01129,2.348092 l 1.320802,-0.04516 q 0.338667,0 0.338667,0.395111 0,0.293512 -0.180623,0.440268 -0.169333,0.146755 -0.372534,0.158044 -0.191911,0.01129 -0.383822,0.01129 l -0.688623,-0.01129 q 0,0.462845 0.09031,1.828802 0.1016,1.365957 0.158045,1.772357 0.05644,0.395112 0.02258,0.51929 -0.03387,0.112889 -0.124177,0.158044 -0.146756,0.06773 -0.395112,0.06773 -0.248356,0 -0.293511,-0.270934 -0.225778,-1.478846 -0.304801,-4.064004 -0.1016,0.01129 -0.778934,0.01129 -0.677334,0 -0.677334,-0.395112 0,-0.564445 0.632179,-0.564445 z"
       id="path356" />
    <path
       d="m 83.782862,15.360699 -0.03387,2.867381 q 0,0.6096 0,0.8128 0.01129,0.203201 -0.146756,0.338667 -0.158045,0.135467 -0.372534,0.135467 -0.214489,0 -0.293511,-0.282222 -0.135467,-2.551292 -0.135467,-3.048003 0,-0.508001 0,-0.598312 v -0.519289 q -0.248356,0.04515 -0.519289,0.04515 -0.259645,0 -0.428979,-0.01129 0.02258,0.451556 0.1016,1.614313 0.07902,1.151468 0.07902,2.246491 0,0.225778 -0.180623,0.361245 -0.180622,0.135467 -0.372533,0.135467 -0.304801,0 -0.304801,-0.361245 0,-1.016001 -0.07902,-1.975558 -0.07902,-0.959556 -0.112889,-2.020713 -1.016001,0 -1.185335,-0.2032 -0.06773,-0.07902 -0.06773,-0.2032 0,-0.293512 0.237067,-0.383823 0.248356,-0.09031 0.564445,-0.09031 0.316089,0 0.451556,0 0.03387,-1.840091 0.2032,-2.280358 0.1016,-0.270933 0.270934,-0.395111 0.180622,-0.135467 0.3048,-0.146756 0.135467,-0.02258 0.440267,-0.02258 1.140179,0 1.456268,0.428978 0.237067,0.327378 0.237067,0.801512 0,0.248356 -0.191911,0.451556 -0.191911,0.2032 -0.417689,0.2032 -0.01129,0 -0.02258,0 -0.632179,-0.06773 -0.632179,-0.643467 0,-0.09031 0.09031,-0.293511 -0.180623,-0.1016 -0.395112,-0.1016 -0.496711,0 -0.508,0.880534 -0.01129,0.09031 -0.01129,0.191911 l 0.02258,0.959557 1.309512,-0.05645 q 0.282222,0 0.428978,0.07902 0.158045,0.07902 0.191911,0.316089 0.02258,0.3048 0.02258,0.767645 z"
       id="path358" />
    <path
       d="m 84.866593,19.097325 -0.124178,-4.583294 q 0,-0.214489 0.146756,-0.349955 0.146755,-0.135467 0.293511,-0.135467 0.361245,0 0.417689,0.3048 0.04516,0.3048 0.04516,0.632178 0.609601,-0.801511 1.524002,-0.801511 1.399823,0 1.399823,3.194758 0,0.293512 0,0.891823 0,0.587023 -0.06773,0.857957 -0.07902,0.338667 -0.485423,0.338667 -0.270934,0 -0.270934,-0.361245 l 0.01129,-0.632178 q 0,-1.309513 -0.09031,-1.783647 -0.07902,-0.485422 -0.158044,-0.767645 -0.191912,-0.6096 -0.62089,-0.6096 -0.564445,0 -0.790223,0.4064 -0.248356,0.440267 -0.293511,1.038579 -0.07902,1.049868 -0.07902,2.223913 0,0.225778 -0.169333,0.361245 -0.169334,0.135467 -0.406401,0.135467 -0.282222,0 -0.282222,-0.361245 z"
       id="path360" />
    <path
       d="m 92.238243,14.164076 -0.01129,-2.178758 q 0,-0.609601 0.383823,-0.609601 0.395111,0 0.440267,0.338667 0.02258,0.146756 0.05644,1.772357 0.03387,1.625602 0.1016,3.048004 0.07902,1.422401 0.07902,2.652891 0,0.338667 -0.508001,0.338667 -0.338667,0 -0.338667,-0.474134 -0.485423,0.383823 -1.151468,0.383823 -0.846667,0 -1.377246,-0.632178 -0.519289,-0.632179 -0.519289,-1.557869 0,-0.92569 0.372534,-1.727201 0.383822,-0.812801 1.185334,-1.162757 0.496712,-0.214489 0.959557,-0.214489 0.169333,0 0.327378,0.02258 z m 0.05644,1.546579 q -0.07902,-0.248356 -0.191911,-0.372534 -0.112889,-0.135467 -0.248356,-0.158044 -0.124178,-0.03387 -0.3048,-0.03387 -0.180622,0 -0.440267,0.135467 -0.259645,0.135466 -0.440267,0.440267 -0.361245,0.6096 -0.361245,1.286934 0,0.666046 0.259645,1.095024 0.270933,0.417689 0.756356,0.417689 0.496712,0 0.778934,-0.485423 0.282223,-0.485422 0.282223,-1.241779 0,-0.846667 -0.09031,-1.083734 z"
       id="path362" />
    <path
       d="m 97.182767,19.45857 q -0.293512,0 -0.349956,-0.327378 0,-2.280358 -0.270934,-4.064004 0,-0.225778 0.158045,-0.406401 0.169333,-0.180622 0.372533,-0.180622 0.214489,0 0.31609,0.237067 0.417689,-0.553156 1.117601,-0.553156 0.891823,0 1.377246,0.857956 0.564448,-0.812801 1.490138,-0.812801 0.93698,0 1.39982,0.745068 0.3048,0.462844 0.42898,1.219201 0.12418,0.756356 0.12418,2.144891 0,0.541867 -0.11289,0.846667 -0.11289,0.293512 -0.47414,0.293512 -0.29351,0 -0.29351,-0.372534 l 0.0339,-1.411112 q 0,-2.540003 -1.3208,-2.540003 -0.41769,0 -0.58703,0.293511 -0.19191,0.349956 -0.22577,0.733779 -0.0452,0.677334 -0.0452,1.23049 v 1.636891 q 0,0.180622 -0.18062,0.3048 -0.180624,0.124178 -0.372535,0.124178 -0.248356,0 -0.316089,-0.327378 l 0.03387,-2.336803 q 0,-1.241779 -0.417689,-1.546579 -0.2032,-0.146756 -0.62089,-0.146756 -0.4064,0 -0.6096,0.304801 -0.191912,0.3048 -0.191912,0.982134 l 0.06773,2.099735 q 0,0.970846 -0.530578,0.970846 z"
       id="path364" />
    <path
       d="m 105.84136,14.22052 q 0.59831,0 1.14018,0.349956 0.54186,0.349956 0.54186,0.869245 0,0.508001 -0.44026,0.993423 -0.44027,0.474134 -1.17405,0.575734 -0.31609,0.04516 -0.94827,0.04516 0.12418,0.959557 0.48543,1.264357 0.11288,0.124178 0.3048,0.124178 0.69991,0 1.17404,-0.440267 0.47414,-0.451556 0.67734,-0.451556 0.0903,0 0.27093,0.169333 0.18062,0.169334 0.18062,0.316089 0,0.293512 -0.7112,0.846668 -0.31609,0.259645 -0.76764,0.440267 -0.44027,0.169333 -0.82409,0.169333 -0.98214,0 -1.44498,-1.264356 -0.29351,-0.778934 -0.29351,-1.715913 0,-0.936979 0.44026,-1.614313 0.44027,-0.677334 1.38854,-0.677334 z m 0.0564,0.778934 q -0.42898,0 -0.73378,0.485423 -0.11289,0.169333 -0.21449,0.767645 1.58045,0 1.58045,-0.778934 0,-0.474134 -0.63218,-0.474134 z"
       id="path366" />
    <path
       d="m 42.059129,28.297779 q 0.812801,0 1.33209,0.778934 0.530578,0.778935 0.530578,1.873958 0,1.083734 -0.541867,1.85138 -0.530578,0.767645 -1.422401,0.767645 -0.880535,0 -1.422402,-0.778934 -0.541867,-0.790223 -0.541867,-1.74978 0,-1.23049 0.496712,-1.964269 0.530578,-0.778934 1.569157,-0.778934 z m -0.135467,0.92569 q -0.474134,0 -0.778934,0.496712 -0.3048,0.496711 -0.3048,1.049867 0,0.857957 0.338667,1.309513 0.338667,0.451556 0.767645,0.451556 0.767645,0 0.982134,-0.666045 0.09031,-0.316089 0.09031,-0.790223 0,-1.85138 -1.095023,-1.85138 z"
       id="path368" />
    <path
       d="m 45.039397,33.208451 -0.124178,-4.583294 q 0,-0.214489 0.146756,-0.349956 0.146756,-0.135466 0.293511,-0.135466 0.361245,0 0.41769,0.3048 0.04516,0.3048 0.04516,0.632178 0.609601,-0.801512 1.524002,-0.801512 1.399824,0 1.399824,3.194759 0,0.293512 0,0.891823 0,0.587023 -0.06773,0.857957 -0.07902,0.338667 -0.485423,0.338667 -0.270933,0 -0.270933,-0.361245 l 0.01129,-0.632178 q 0,-1.309513 -0.09031,-1.783647 -0.07902,-0.485422 -0.158045,-0.767645 -0.191911,-0.609601 -0.62089,-0.609601 -0.564445,0 -0.790223,0.406401 -0.248355,0.440267 -0.293511,1.038579 -0.07902,1.049867 -0.07902,2.223913 0,0.225778 -0.169334,0.361245 -0.169333,0.135467 -0.4064,0.135467 -0.282223,0 -0.282223,-0.361245 z"
       id="path370" />
    <path
       d="m 54.251131,26.243199 1.253068,-0.02258 q 0.835378,0 0.835378,0.440267 0,0.158044 -0.04516,0.225778 -0.04516,0.05644 -0.06773,0.09031 -0.02258,0.03387 -0.09031,0.05644 -0.135467,0.04516 -0.225778,0.05645 -0.09031,0.01129 -0.124178,0.01129 -0.124178,0.02258 -0.417689,0.03387 -0.293512,0.01129 -0.857957,0.01129 -0.553156,0 -1.365956,-0.04516 v 2.077157 h 2.302935 q 0.124178,0 0.225778,0.112889 0.112889,0.112889 0.112889,0.248356 0,0.51929 -0.440267,0.51929 h -2.201335 l 0.04516,2.957692 q 0,0.575734 -0.395111,0.575734 -0.383823,0 -0.451556,-0.51929 -0.03387,-0.169333 -0.04516,-2.867381 0,-2.709336 -0.02258,-3.115736 -0.417689,0.04516 -0.417689,-0.474134 0,-0.135467 0.112889,-0.293511 0.112889,-0.169334 0.191911,-0.180623 0.09031,-0.01129 0.214489,-0.01129 0.135467,0 0.643468,0.04516 0.699911,0.06773 1.23049,0.06773 z"
       id="path372" />
    <path
       d="m 59.692381,28.28649 q 0.496712,0 0.496712,0.846668 0,0.09031 0,0.191911 l -0.02258,0.790223 q -0.01129,0.372534 -0.01129,0.733779 l 0.169334,2.551291 q 0,0.282223 -0.575734,0.282223 -0.03387,0 -0.169334,0 -0.124177,0 -0.180622,-0.1016 -0.04516,-0.1016 -0.01129,-0.248356 0.04516,-0.146756 -0.02258,-0.327378 -0.519289,0.553156 -1.377245,0.553156 -1.591735,0 -1.591735,-2.46098 0,-1.365957 0.508,-2.065869 0.519289,-0.699912 1.478846,-0.699912 0.451556,0 0.903112,0.158045 0.146756,-0.203201 0.4064,-0.203201 z m -1.174045,1.02729 q -0.643467,0 -0.959557,0.372534 -0.316089,0.372534 -0.316089,1.365957 0,1.670757 0.903112,1.670757 0.237067,0 0.51929,-0.214489 0.293511,-0.214489 0.4064,-0.485423 0.214489,-0.6096 0.214489,-1.33209 0,-0.722489 -0.180622,-1.049868 -0.169334,-0.327378 -0.587023,-0.327378 z"
       id="path374" />
    <path
       d="m 60.809985,30.916804 q 0,-0.756356 0.395111,-1.377246 0.406401,-0.620889 1.02729,-0.92569 0.62089,-0.316089 1.207912,-0.316089 0.587023,0 0.936979,0.146756 0.361245,0.135467 0.361245,0.372534 0,0.225778 -0.135467,0.462845 -0.124178,0.225778 -0.338667,0.225778 -0.07902,0 -0.440267,-0.124178 -0.349956,-0.135467 -0.451556,-0.135467 -0.654756,0 -1.117601,0.485423 -0.462845,0.474133 -0.462845,1.264356 0,0.790223 0.248356,1.185335 0.259645,0.383823 0.880534,0.383823 0.248356,0 0.846668,-0.282223 0.6096,-0.293511 0.756356,-0.293511 0.146756,0 0.237067,0.09031 0.09031,0.09031 0.09031,0.225778 0,0.270933 -0.349956,0.575734 -0.338667,0.293511 -0.846667,0.496711 -0.508001,0.191912 -0.914401,0.191912 -0.903112,0 -1.422402,-0.711201 -0.508,-0.711201 -0.508,-1.941691 z"
       id="path376" />
    <path
       d="m 66.973729,28.331646 q 0.598312,0 1.140179,0.349956 0.541867,0.349956 0.541867,0.869245 0,0.508001 -0.440267,0.993423 -0.440267,0.474134 -1.174045,0.575734 -0.31609,0.04516 -0.948268,0.04516 0.124178,0.959556 0.485423,1.264357 0.112889,0.124178 0.3048,0.124178 0.699912,0 1.174046,-0.440267 0.474134,-0.451556 0.677334,-0.451556 0.09031,0 0.270933,0.169333 0.180623,0.169334 0.180623,0.316089 0,0.293512 -0.711201,0.846668 -0.316089,0.259645 -0.767645,0.440267 -0.440267,0.169333 -0.82409,0.169333 -0.982134,0 -1.444979,-1.264356 -0.293512,-0.778935 -0.293512,-1.715913 0,-0.936979 0.440268,-1.614313 0.440267,-0.677334 1.388534,-0.677334 z m 0.05644,0.778934 q -0.428978,0 -0.733779,0.485423 -0.112889,0.169333 -0.214489,0.767645 1.580446,0 1.580446,-0.778934 0,-0.474134 -0.632178,-0.474134 z"
       id="path378" />
    <path
       d="m 69.863696,25.92711 q 0,-0.451556 0.564445,-0.451556 0.259645,0 0.3048,0.316089 v 1.693335 q 0,0.474134 0.01129,0.948268 0.225778,-0.06773 0.575734,-0.06773 1.095023,0 1.693335,0.733778 0.598312,0.733779 0.598312,1.840091 0,1.106312 -0.711201,1.873957 -0.699912,0.756357 -1.806224,0.756357 -1.106312,0 -1.106312,-0.62089 0,-0.632178 -0.06773,-3.18347 -0.05644,-2.56258 -0.05644,-3.838226 z m 2.280358,3.635026 q -0.406401,-0.316089 -0.857957,-0.316089 -0.248355,0 -0.508,0.09031 0.06773,0.92569 0.06773,3.28507 0.191912,0.06773 0.395112,0.06773 0.440267,0 0.880534,-0.327379 0.654756,-0.451556 0.654756,-1.377245 0,-0.936979 -0.632178,-1.422402 z"
       id="path380" />
    <path
       d="m 76.490289,28.297779 q 0.812801,0 1.33209,0.778934 0.530578,0.778935 0.530578,1.873958 0,1.083734 -0.541867,1.85138 -0.530578,0.767645 -1.422401,0.767645 -0.880535,0 -1.422402,-0.778934 -0.541867,-0.790223 -0.541867,-1.74978 0,-1.23049 0.496712,-1.964269 0.530578,-0.778934 1.569157,-0.778934 z m -0.135467,0.92569 q -0.474134,0 -0.778934,0.496712 -0.3048,0.496711 -0.3048,1.049867 0,0.857957 0.338667,1.309513 0.338667,0.451556 0.767645,0.451556 0.767645,0 0.982134,-0.666045 0.09031,-0.316089 0.09031,-0.790223 0,-1.85138 -1.095023,-1.85138 z"
       id="path382" />
    <path
       d="m 81.039712,28.297779 q 0.812801,0 1.33209,0.778934 0.530579,0.778935 0.530579,1.873958 0,1.083734 -0.541868,1.85138 -0.530578,0.767645 -1.422401,0.767645 -0.880534,0 -1.422402,-0.778934 -0.541867,-0.790223 -0.541867,-1.74978 0,-1.23049 0.496712,-1.964269 0.530578,-0.778934 1.569157,-0.778934 z m -0.135467,0.92569 q -0.474134,0 -0.778934,0.496712 -0.3048,0.496711 -0.3048,1.049867 0,0.857957 0.338667,1.309513 0.338667,0.451556 0.767645,0.451556 0.767645,0 0.982134,-0.666045 0.09031,-0.316089 0.09031,-0.790223 0,-1.85138 -1.095024,-1.85138 z"
       id="path384" />
    <path
       d="m 87.621141,33.050406 q 0,0.530579 -0.485423,0.530579 -0.2032,0 -0.553156,-0.993424 -0.349956,-1.004712 -0.936978,-1.546579 -0.05644,0.07902 -0.485423,0.451556 -0.417689,0.361245 -0.496712,0.440267 v 1.12889 q -0.02258,0.169334 -0.05644,0.259645 -0.03387,0.09031 -0.158045,0.169333 -0.112889,0.07902 -0.316089,0.07902 -0.3048,0 -0.3048,-0.372534 0,-1.049868 -0.09031,-3.251203 -0.09031,-2.212625 -0.09031,-3.962404 0,-0.214489 0.169334,-0.338667 0.180622,-0.124178 0.372533,-0.124178 0.259645,0 0.31609,0.327378 v 1.998135 q 0,0.361245 0.01129,0.541867 0.01129,0.180623 0.02258,0.541868 0.02258,0.745067 0.07902,1.682046 0.327378,-0.248356 0.835378,-0.778934 0.51929,-0.541868 0.778934,-0.92569 0.406401,-0.643467 0.745068,-0.643467 0.09031,0 0.180622,0.04516 0.237067,0.135467 0.237067,0.316089 0,0.180623 -0.158045,0.474134 -0.4064,0.699912 -0.936978,1.275646 0.508,0.564445 1.016001,1.614313 0.3048,0.677334 0.3048,1.061156 z"
       id="path386" />
  </g>
  <style
     id="style1002"
     type="text/css">
	.st0{clip-path:url(#SVGID_2_);fill:#4967A9;}
</style>
</svg>
