<?xml version="1.0" encoding="UTF-8" standalone="no"?>
<!-- Created with Inkscape (http://www.inkscape.org/) -->

<svg
   width="418"
   height="148"
   viewBox="0 0 110.59616 39.158333"
   version="1.1"
   id="svg80"
   xml:space="preserve"
   sodipodi:docname="no-linkedin.svg"
   inkscape:version="1.2.2 (b0a8486541, 2022-12-01)"
   xmlns:inkscape="http://www.inkscape.org/namespaces/inkscape"
   xmlns:sodipodi="http://sodipodi.sourceforge.net/DTD/sodipodi-0.dtd"
   xmlns:xlink="http://www.w3.org/1999/xlink"
   xmlns="http://www.w3.org/2000/svg"
   xmlns:svg="http://www.w3.org/2000/svg"
   xmlns:rdf="http://www.w3.org/1999/02/22-rdf-syntax-ns#"
   xmlns:cc="http://creativecommons.org/ns#"
   xmlns:dc="http://purl.org/dc/elements/1.1/"><sodipodi:namedview
     id="namedview773"
     pagecolor="#ffffff"
     bordercolor="#000000"
     borderopacity="0.25"
     inkscape:showpageshadow="2"
     inkscape:pageopacity="0.0"
     inkscape:pagecheckerboard="0"
     inkscape:deskcolor="#d1d1d1"
     showgrid="false"
     inkscape:zoom="3.6004785"
     inkscape:cx="206.08372"
     inkscape:cy="74.295681"
     inkscape:window-width="2560"
     inkscape:window-height="1400"
     inkscape:window-x="0"
     inkscape:window-y="40"
     inkscape:window-maximized="1"
     inkscape:current-layer="layer1" /><defs
     id="defs74"><linearGradient
       id="linearGradient1033"><stop
         style="stop-color:#000000;stop-opacity:1;"
         offset="0"
         id="stop1031" /></linearGradient><linearGradient
       id="linearGradient1027"><stop
         style="stop-color:#000000;stop-opacity:1;"
         offset="0"
         id="stop1025" /></linearGradient><clipPath
       id="SVGID_2_"><use
         xlink:href="#SVGID_1_"
         style="overflow:visible"
         id="use1007"
         x="0"
         y="0"
         width="100%"
         height="100%" /></clipPath><clipPath
       id="SVGID_2_-3"><use
         xlink:href="#SVGID_1_"
         style="overflow:visible"
         id="use1007-6"
         x="0"
         y="0"
         width="100%"
         height="100%" /></clipPath><clipPath
       id="SVGID_2_-5"><use
         xlink:href="#SVGID_1_"
         style="overflow:visible"
         id="use1007-3"
         x="0"
         y="0"
         width="100%"
         height="100%" /></clipPath><clipPath
       id="SVGID_2_-6"><use
         xlink:href="#SVGID_1_"
         style="overflow:visible"
         id="use1007-2"
         x="0"
         y="0"
         width="100%"
         height="100%" /></clipPath><clipPath
       id="SVGID_2_-1"><use
         xlink:href="#SVGID_1_"
         style="overflow:visible"
         id="use1007-27"
         x="0"
         y="0"
         width="100%"
         height="100%" /></clipPath><clipPath
       id="SVGID_2_-9"><use
         xlink:href="#SVGID_1_"
         style="overflow:visible"
         id="use1007-36"
         x="0"
         y="0"
         width="100%"
         height="100%" /></clipPath><clipPath
       id="SVGID_2_-2"><use
         xlink:href="#SVGID_1_"
         style="overflow:visible"
         id="use1007-61"
         x="0"
         y="0"
         width="100%"
         height="100%" /></clipPath><clipPath
       id="SVGID_2_-7"><use
         xlink:href="#SVGID_1_"
         style="overflow:visible"
         id="use1007-9"
         x="0"
         y="0"
         width="100%"
         height="100%" /></clipPath><clipPath
       id="SVGID_2_-0"><use
         xlink:href="#SVGID_1_"
         style="overflow:visible"
         id="use1007-23"
         x="0"
         y="0"
         width="100%"
         height="100%" /></clipPath><clipPath
       id="SVGID_2_-92"><use
         xlink:href="#SVGID_1_"
         style="overflow:visible"
         id="use1007-28"
         x="0"
         y="0"
         width="100%"
         height="100%" /></clipPath><clipPath
       id="SVGID_2_-36"><use
         xlink:href="#SVGID_1_"
         style="overflow:visible"
         id="use1007-1"
         x="0"
         y="0"
         width="100%"
         height="100%" /></clipPath><clipPath
       id="SVGID_2_-31"><use
         xlink:href="#SVGID_1_"
         style="overflow:visible"
         id="use1007-94"
         x="0"
         y="0"
         width="100%"
         height="100%" /></clipPath><clipPath
       id="SVGID_2_-4"><use
         xlink:href="#SVGID_1_"
         style="overflow:visible"
         id="use1007-5"
         x="0"
         y="0"
         width="100%"
         height="100%" /></clipPath><clipPath
       id="SVGID_2_-61"><use
         xlink:href="#SVGID_1_"
         style="overflow:visible"
         id="use1007-0"
         x="0"
         y="0"
         width="100%"
         height="100%" /></clipPath><clipPath
       id="SVGID_2_-32"><use
         xlink:href="#SVGID_1_"
         style="overflow:visible"
         id="use1007-06"
         x="0"
         y="0"
         width="100%"
         height="100%" /></clipPath><rect
       x="0"
       height="12.9"
       width="66.900002"
       y="0"
       id="SVGID_1_" /><clipPath
       id="clipPath4674"
       clipPathUnits="userSpaceOnUse"><path
         id="path4676"
         d="M 0,500 H 1024 V 0 H 0 Z" /></clipPath><linearGradient
       xlink:href="#linearGradient1027"
       id="linearGradient1029"
       x1="-1.2029998"
       y1="14.334795"
       x2="10.983719"
       y2="14.334795"
       gradientUnits="userSpaceOnUse" /><linearGradient
       xlink:href="#linearGradient1033"
       id="linearGradient1035"
       x1="-8.780899"
       y1="14.330109"
       x2="20.15568"
       y2="14.330109"
       gradientUnits="userSpaceOnUse"
       gradientTransform="translate(0.45401091,0.62219336)" /><linearGradient
       xlink:href="#linearGradient1027"
       id="linearGradient3423"
       gradientUnits="userSpaceOnUse"
       x1="-1.2029998"
       y1="14.334795"
       x2="10.983719"
       y2="14.334795" /><linearGradient
       xlink:href="#linearGradient1027"
       id="linearGradient3745"
       gradientUnits="userSpaceOnUse"
       gradientTransform="translate(-3.9460859,-0.6943759)"
       x1="-1.2029998"
       y1="14.334795"
       x2="10.983719"
       y2="14.334795" /></defs><metadata
     id="metadata77"><rdf:RDF><cc:Work
         rdf:about=""><dc:format>image/svg+xml</dc:format><dc:type
           rdf:resource="http://purl.org/dc/dcmitype/StillImage" /></cc:Work></rdf:RDF></metadata><g
     id="layer1"
     transform="translate(13.842136,5.2194147)"><rect
       style="fill:#0077b5;fill-opacity:1;stroke:url(#linearGradient1035);stroke-width:0.79375;stroke-dasharray:none"
       id="rect303"
       width="28.936579"
       height="29.187744"
       x="-8.3268881"
       y="0.35843039"
       ry="0.97906625" /><g
       aria-label="in"
       id="text1101"
       style="font-size:37.0417px;-inkscape-font-specification:sans-serif;fill:#ffffff;stroke:url(#linearGradient3745);stroke-width:0.79375"><path
         d="m -2.0746248,3.453954 q 0.6667506,0 1.25941776,0.6297089 0.59266718,0.6297088 0.59266718,1.3335011 0,0.6667506 -0.66675057,1.3705428 -0.62970887,0.7037923 -1.33350117,0.7037923 -0.7037922,0 -1.2964594,-0.5926672 -0.5556255,-0.5926671 -0.5556255,-1.5187096 0,-1.7780015 1.9261683,-1.9261683 0.037042,0 0.074083,0 z m 1.55575135,19.40985 0.0370417,2.592919 q 0,0.703792 -0.55562545,1.185334 -0.5556255,0.444501 -1.1853344,0.444501 -0.9260424,0 -0.9630841,-0.926043 -0.4815421,-11.816302 -0.4815421,-13.075719 0,-1.259418 0.1111251,-3.074461 0.074083,-0.666751 0.851959,-0.666751 1.96321006,0 2.22250195,1.592793 0.1111251,0.814917 0.1111251,1.29646 l -0.1481668,2.333627 z"
         style="font-family:'Patrick Hand';-inkscape-font-specification:'Patrick Hand'"
         id="path775" /><path
         d="M 5.1855824,25.716015 4.7781237,10.677085 q 0,-0.7037921 0.4815421,-1.1482925 0.4815421,-0.4445004 0.9630841,-0.4445004 1.1853344,0 1.3705429,1.0001259 0.1481668,1.000126 0.1481668,2.074335 2.0002517,-2.6299605 5.0006294,-2.6299605 4.59317,0 4.59317,10.4828005 0,0.963084 0,2.926294 0,1.926169 -0.22225,2.815169 -0.259292,1.111251 -1.592793,1.111251 -0.889001,0 -0.889001,-1.185334 l 0.03704,-2.074335 q 0,-4.296837 -0.296333,-5.852588 -0.259292,-1.592793 -0.518584,-2.518836 -0.629709,-2.000252 -2.037294,-2.000252 -1.8520845,0 -2.5929185,1.333502 -0.8149173,1.444626 -0.9630841,3.407836 -0.2592919,3.444878 -0.2592919,7.297214 0,0.740834 -0.5556255,1.185335 -0.5556255,0.4445 -1.3335012,0.4445 -0.9260424,0 -0.9260424,-1.185334 z"
         style="font-family:'Patrick Hand';-inkscape-font-specification:'Patrick Hand'"
         id="path777" /></g><g
       transform="matrix(0.26458333,0,0,0.26458333,-786.78129,-477.41915)"
       id="g1026"><defs
         id="defs1005"><rect
           x="0"
           height="12.9"
           width="66.900002"
           y="0"
           id="rect1656" /></defs><clipPath
         id="SVGID_2_-67"><use
           height="100%"
           width="100%"
           y="0"
           x="0"
           id="use1007-365"
           style="overflow:visible"
           xlink:href="#SVGID_1_" /></clipPath></g><text
       xml:space="preserve"
       style="font-style:normal;font-variant:normal;font-weight:normal;font-stretch:normal;font-size:4.23333px;line-height:1.25;font-family:'SF Cartoonist Hand SC';-inkscape-font-specification:'SF Cartoonist Hand SC';font-variant-ligatures:normal;font-variant-caps:normal;font-variant-numeric:normal;font-feature-settings:normal;text-align:start;letter-spacing:0px;word-spacing:0px;writing-mode:lr-tb;text-anchor:start;fill:#000000;fill-opacity:1;stroke:none;stroke-width:0.264583"
       x="2.0215223"
       y="-6.5003476"
       id="text1669" /><text
       id="text1673"
       y="25.431738"
       x="13.260739"
       style="font-style:normal;font-variant:normal;font-weight:600;font-stretch:normal;font-size:7.00594px;line-height:1.25;font-family:'URW Gothic L';-inkscape-font-specification:'URW Gothic L Semi-Bold';font-variant-ligatures:normal;font-variant-caps:normal;font-variant-numeric:normal;font-feature-settings:normal;text-align:start;letter-spacing:0px;word-spacing:0px;writing-mode:lr-tb;text-anchor:start;fill:#000000;fill-opacity:1;stroke:none;stroke-width:0.437871"
       xml:space="preserve" /><g
       aria-label="’d"
       style="font-style:normal;font-variant:normal;font-weight:bold;font-stretch:normal;font-size:9.72288px;line-height:1.25;font-family:'Open Sans Condensed';-inkscape-font-specification:'Open Sans Condensed, Bold';font-variant-ligatures:normal;font-variant-caps:normal;font-variant-numeric:normal;font-feature-settings:normal;text-align:start;letter-spacing:-0.0767292px;word-spacing:0px;writing-mode:lr-tb;text-anchor:start;fill:#ffffff;fill-opacity:1;stroke:none;stroke-width:0.60768"
       id="text1677" /><g
       aria-label="You won't find meon linkedin"
       id="text1774"
       style="font-size:11.2889px;font-family:'Patrick Hand';-inkscape-font-specification:'Patrick Hand';fill:#0077b5;stroke-width:0.79375"><path
         d="m 27.799303,11.495952 0.01129,-0.575734 q 0,-0.293511 -0.191911,-0.575734 -0.180623,-0.282222 -0.891823,-1.6368901 -0.711201,-1.3546681 -0.711201,-1.5240016 0,-0.1806224 0.146756,-0.3160892 0.146755,-0.1467557 0.282222,-0.1467557 0.146756,0 0.338667,0.2596447 0.2032,0.2596447 0.778934,1.365957 0.587023,1.1063122 0.677334,1.2192012 1.083735,-1.919113 1.738491,-2.7093361 0.158044,-0.1467557 0.248356,-0.1467557 0.1016,0 0.146755,0.022578 0.270934,0.112889 0.270934,0.3048003 0,0.1806224 -0.09031,0.3160892 -0.09031,0.1354668 -0.496712,0.7112008 -0.598312,0.8353786 -1.038579,1.693335 -0.428978,0.8466674 -0.428978,1.0385784 v 2.065869 l 0.03387,0.903112 q 0,0.248356 -0.135467,0.349956 -0.135467,0.09031 -0.338667,0.09031 -0.191911,0 -0.259645,-0.214489 -0.06773,-0.214489 -0.07902,-0.564445 -0.01129,-0.349956 -0.01129,-1.02729 z"
         id="path780" /><path
         d="m 33.20668,8.9672386 q 0.812801,0 1.33209,0.7789341 0.530578,0.7789343 0.530578,1.8739573 0,1.083735 -0.541867,1.85138 -0.530578,0.767645 -1.422401,0.767645 -0.880534,0 -1.422402,-0.778934 -0.541867,-0.790223 -0.541867,-1.74978 0,-1.23049 0.496712,-1.9642683 0.530578,-0.7789341 1.569157,-0.7789341 z m -0.135467,0.9256898 q -0.474134,0 -0.778934,0.4967116 -0.3048,0.496712 -0.3048,1.049868 0,0.857956 0.338667,1.309512 0.338667,0.451556 0.767645,0.451556 0.767645,0 0.982134,-0.666045 0.09031,-0.316089 0.09031,-0.790223 0,-1.8513796 -1.095023,-1.8513796 z"
         id="path782" /><path
         d="m 35.735392,9.3962168 q 0.04516,-0.1919113 0.191912,-0.3160892 0.146755,-0.1354668 0.293511,-0.1354668 0.158045,0 0.237067,0.056445 0.09031,0.056444 0.1016,0.1016001 0.02258,0.045156 0.04516,0.1580446 -0.06773,0.880534 -0.06773,1.591735 0,0.699912 0.169334,1.614313 0.169333,0.903112 0.372533,0.903112 0.304801,0 0.767646,-0.338667 0.474133,-0.338667 0.677334,-0.711201 -0.135467,-1.625602 -0.135467,-2.7883584 0,-0.2370669 0.146756,-0.4064004 0.158044,-0.1693335 0.372533,-0.1693335 0.349956,0 0.349956,0.4741338 0,0.8015115 0.112889,2.3819575 0.124178,1.580447 0.248356,2.009425 0.02258,0.09031 0.02258,0.214489 0,0.112889 -0.158045,0.214489 -0.146755,0.112889 -0.395111,0.112889 -0.237067,0 -0.316089,-0.270934 -0.02258,-0.225778 -0.112889,-0.677334 -0.790224,0.82409 -1.591735,0.82409 -0.372534,0 -0.666046,-0.282222 -0.293511,-0.282223 -0.462844,-0.767646 -0.293512,-0.936978 -0.293512,-1.761068 0,-0.82409 0.09031,-2.0320022 z"
         id="path784" /><path
         d="m 43.806947,14.216577 q -0.383822,0 -0.745067,-1.490135 -0.349956,-1.501423 -0.349956,-3.3640919 0,-0.1919113 0.158045,-0.2935114 0.169333,-0.112889 0.3048,-0.112889 0.135467,0 0.214489,0.090311 0.09031,0.079022 0.09031,0.2144891 0,1.761068 0.598312,3.38667 0.09031,-0.135467 0.282223,-0.541867 0.191911,-0.417689 0.361244,-0.609601 0.169334,-0.191911 0.406401,-0.191911 0.237067,0 0.496711,0.349956 0.259645,0.349956 0.440267,0.756356 0.191912,0.395112 0.21449,0.41769 0.3048,-0.948268 0.3048,-1.761069 l -0.06773,-1.7159128 q -0.01129,-0.1693335 0.158045,-0.2822225 0.169334,-0.1241779 0.327378,-0.1241779 0.327378,0 0.327378,1.2756462 v 0.620889 q 0,1.512713 -0.462845,2.698047 -0.248355,0.677334 -0.620889,0.677334 -0.214489,0 -0.395112,-0.270933 -0.180622,-0.282223 -0.4064,-0.790223 -0.225778,-0.508001 -0.349956,-0.699912 l -0.338667,0.666045 q -0.191911,0.395111 -0.293511,0.575734 -0.1016,0.169333 -0.282223,0.349956 -0.180622,0.169333 -0.372534,0.169333 z"
         id="path786" /><path
         d="m 50.094857,8.9672386 q 0.812801,0 1.332091,0.7789341 0.530578,0.7789343 0.530578,1.8739573 0,1.083735 -0.541867,1.85138 -0.530579,0.767645 -1.422402,0.767645 -0.880534,0 -1.422401,-0.778934 -0.541868,-0.790223 -0.541868,-1.74978 0,-1.23049 0.496712,-1.9642683 0.530578,-0.7789341 1.569157,-0.7789341 z M 49.95939,9.8929284 q -0.474133,0 -0.778934,0.4967116 -0.3048,0.496712 -0.3048,1.049868 0,0.857956 0.338667,1.309512 0.338667,0.451556 0.767645,0.451556 0.767645,0 0.982135,-0.666045 0.09031,-0.316089 0.09031,-0.790223 0,-1.8513796 -1.095024,-1.8513796 z"
         id="path788" /><path
         d="M 53.075125,13.87791 52.950947,9.2946167 q 0,-0.2144891 0.146756,-0.3499559 0.146756,-0.1354668 0.293511,-0.1354668 0.361245,0 0.41769,0.3048003 0.04516,0.3048003 0.04516,0.6321784 0.609601,-0.8015119 1.524002,-0.8015119 1.399824,0 1.399824,3.1947592 0,0.293511 0,0.891823 0,0.587023 -0.06773,0.857956 -0.07902,0.338667 -0.485423,0.338667 -0.270933,0 -0.270933,-0.361245 l 0.01129,-0.632178 q 0,-1.309513 -0.09031,-1.783646 -0.07902,-0.485423 -0.158045,-0.767646 -0.191911,-0.6096 -0.62089,-0.6096 -0.564445,0 -0.790223,0.4064 -0.248355,0.440267 -0.293511,1.038579 -0.07902,1.049868 -0.07902,2.223913 0,0.225778 -0.169334,0.361245 -0.169333,0.135467 -0.4064,0.135467 -0.282223,0 -0.282223,-0.361245 z"
         id="path790" /><path
         d="m 58.471216,6.7207474 q -0.1016,0.112889 -0.248356,0.112889 -0.146756,0 -0.259645,-0.1016001 Q 57.850326,6.6191473 57.81646,6.427236 l 0.09031,-1.6820461 q 0.05644,-0.349956 0.383822,-0.349956 0.395112,0 0.395112,0.7676453 0,0.1919113 -0.04516,0.4967116 -0.03387,0.3048003 -0.04516,0.7563563 -0.01129,0.1919113 -0.124178,0.3048003 z"
         id="path792" /><path
         d="m 59.882324,8.9559497 0.564445,0.011289 q 0.191912,0 0.214489,-0.011289 V 6.6417251 q 0.01129,-0.1919113 0.191912,-0.3273781 0.180622,-0.1354668 0.338667,-0.1354668 0.158044,0 0.248355,0.1016001 0.101601,0.1016001 0.09031,0.3160892 -0.01129,0.2144891 -0.01129,2.3480913 l 1.320801,-0.045156 q 0.338667,0 0.338667,0.3951115 0,0.2935114 -0.180622,0.4402671 -0.169334,0.1467557 -0.372534,0.1580446 -0.191911,0.011289 -0.383823,0.011289 l -0.688623,-0.011289 q 0,0.4628446 0.09031,1.8288016 0.1016,1.365957 0.158044,1.772358 0.05644,0.395111 0.02258,0.519289 -0.03387,0.112889 -0.124178,0.158045 -0.146756,0.06773 -0.395111,0.06773 -0.248356,0 -0.293512,-0.270934 -0.225778,-1.478845 -0.3048,-4.0640037 -0.1016,0.011289 -0.778934,0.011289 -0.677334,0 -0.677334,-0.3951115 0,-0.564445 0.632178,-0.564445 z"
         id="path794" /><path
         d="m 69.940726,10.141284 -0.03387,2.867381 q 0,0.609601 0,0.812801 0.01129,0.2032 -0.146756,0.338667 -0.158044,0.135467 -0.372533,0.135467 -0.214489,0 -0.293512,-0.282223 -0.135466,-2.551291 -0.135466,-3.048003 0,-0.508001 0,-0.598312 V 9.8477728 q -0.248356,0.045156 -0.51929,0.045156 -0.259645,0 -0.428978,-0.011289 0.02258,0.4515565 0.1016,1.6143125 0.07902,1.151468 0.07902,2.246491 0,0.225778 -0.180622,0.361245 -0.180622,0.135467 -0.372534,0.135467 -0.3048,0 -0.3048,-0.361245 0,-1.016001 -0.07902,-1.975557 -0.07902,-0.959557 -0.112889,-2.0207135 -1.016001,0 -1.185335,-0.2032002 -0.06773,-0.079022 -0.06773,-0.2032002 0,-0.2935114 0.237067,-0.3838226 0.248355,-0.090311 0.564445,-0.090311 0.316089,0 0.451556,0 0.03387,-1.8400908 0.2032,-2.2803579 0.1016,-0.2709336 0.270933,-0.3951115 0.180623,-0.1354668 0.304801,-0.1467557 0.135467,-0.022578 0.440267,-0.022578 1.140179,0 1.456268,0.4289782 0.237067,0.3273781 0.237067,0.8015119 0,0.2483559 -0.191911,0.4515561 -0.191912,0.2032002 -0.41769,0.2032002 -0.01129,0 -0.02258,0 -0.632178,-0.067733 -0.632178,-0.6434674 0,-0.090311 0.09031,-0.2935114 -0.180622,-0.1016001 -0.395111,-0.1016001 -0.496712,0 -0.508001,0.8805343 -0.01129,0.090311 -0.01129,0.1919113 l 0.02258,0.9595565 1.309513,-0.056444 q 0.282222,0 0.428978,0.079022 0.158044,0.079022 0.191911,0.3160892 0.02258,0.3048003 0.02258,0.767645 z"
         id="path796" /><path
         d="M 71.024457,13.87791 70.900279,9.2946167 q 0,-0.2144891 0.146755,-0.3499559 0.146756,-0.1354668 0.293512,-0.1354668 0.361245,0 0.417689,0.3048003 0.04516,0.3048003 0.04516,0.6321784 0.6096,-0.8015119 1.524001,-0.8015119 1.399824,0 1.399824,3.1947592 0,0.293511 0,0.891823 0,0.587023 -0.06773,0.857956 -0.07902,0.338667 -0.485422,0.338667 -0.270934,0 -0.270934,-0.361245 l 0.01129,-0.632178 q 0,-1.309513 -0.09031,-1.783646 -0.07902,-0.485423 -0.158045,-0.767646 -0.191911,-0.6096 -0.620889,-0.6096 -0.564445,0 -0.790223,0.4064 -0.248356,0.440267 -0.293512,1.038579 -0.07902,1.049868 -0.07902,2.223913 0,0.225778 -0.169334,0.361245 -0.169333,0.135467 -0.4064,0.135467 -0.282222,0 -0.282222,-0.361245 z"
         id="path798" /><path
         d="M 78.396107,8.9446608 78.384818,6.765903 q 0,-0.6096006 0.383822,-0.6096006 0.395112,0 0.440267,0.338667 0.02258,0.1467557 0.05644,1.7723574 0.03387,1.6256016 0.1016,3.0480032 0.07902,1.422401 0.07902,2.652891 0,0.338667 -0.508,0.338667 -0.338667,0 -0.338667,-0.474133 -0.485423,0.383822 -1.151468,0.383822 -0.846668,0 -1.377246,-0.632178 -0.519289,-0.632179 -0.519289,-1.557868 0,-0.92569 0.372533,-1.727202 0.383823,-0.812801 1.185335,-1.1627569 0.496711,-0.2144891 0.959556,-0.2144891 0.169334,0 0.327379,0.022578 z m 0.05644,1.5465792 q -0.07902,-0.248356 -0.191911,-0.372534 -0.112889,-0.1354664 -0.248356,-0.1580442 -0.124178,-0.033867 -0.3048,-0.033867 -0.180623,0 -0.440268,0.1354669 -0.259644,0.135467 -0.440267,0.440267 -0.361244,0.609601 -0.361244,1.286935 0,0.666045 0.259644,1.095023 0.270934,0.417689 0.756357,0.417689 0.496711,0 0.778934,-0.485422 0.282222,-0.485423 0.282222,-1.241779 0,-0.846668 -0.09031,-1.083735 z"
         id="path800" /><path
         d="m 83.34063,14.239155 q -0.293511,0 -0.349956,-0.327378 0,-2.280358 -0.270933,-4.0640042 0,-0.225778 0.158044,-0.4064004 0.169334,-0.1806224 0.372534,-0.1806224 0.214489,0 0.316089,0.2370669 0.41769,-0.5531561 1.117601,-0.5531561 0.891823,0 1.377246,0.8579564 0.564445,-0.8128008 1.490135,-0.8128008 0.936979,0 1.399824,0.7450674 0.3048,0.4628452 0.428978,1.2192012 0.124178,0.756356 0.124178,2.144891 0,0.541867 -0.112889,0.846668 -0.112889,0.293511 -0.474134,0.293511 -0.293511,0 -0.293511,-0.372534 l 0.03387,-1.411112 q 0,-2.5400028 -1.320801,-2.5400028 -0.417689,0 -0.587023,0.2935118 -0.191911,0.349956 -0.225778,0.733778 -0.04516,0.677334 -0.04516,1.23049 v 1.636891 q 0,0.180622 -0.180623,0.3048 -0.180622,0.124178 -0.372534,0.124178 -0.248355,0 -0.316089,-0.327378 l 0.03387,-2.336802 q 0,-1.241779 -0.417689,-1.54658 -0.203201,-0.1467555 -0.62089,-0.1467555 -0.4064,0 -0.609601,0.3048005 -0.191911,0.3048 -0.191911,0.982134 l 0.06773,2.099736 q 0,0.970845 -0.530579,0.970845 z"
         id="path802" /><path
         d="m 91.999221,9.0011053 q 0.598312,0 1.140179,0.3499559 0.541867,0.3499559 0.541867,0.8692458 0,0.508 -0.440267,0.993423 -0.440267,0.474134 -1.174046,0.575734 -0.316089,0.04515 -0.948267,0.04515 0.124178,0.959557 0.485422,1.264357 0.112889,0.124178 0.304801,0.124178 0.699912,0 1.174045,-0.440267 0.474134,-0.451556 0.677334,-0.451556 0.09031,0 0.270934,0.169333 0.180622,0.169334 0.180622,0.31609 0,0.293511 -0.7112,0.846667 -0.316089,0.259645 -0.767645,0.440267 -0.440268,0.169334 -0.82409,0.169334 -0.982135,0 -1.444979,-1.264357 -0.293512,-0.778934 -0.293512,-1.715913 0,-0.936979 0.440267,-1.6143127 0.440267,-0.677334 1.388535,-0.677334 z m 0.05644,0.7789341 q -0.428978,0 -0.733778,0.4854226 -0.112889,0.169334 -0.214489,0.767645 1.580446,0 1.580446,-0.778934 0,-0.4741336 -0.632179,-0.4741336 z"
         id="path804" /><path
         d="m 28.216992,23.078364 q 0.812801,0 1.332091,0.778934 0.530578,0.778934 0.530578,1.873957 0,1.083735 -0.541867,1.85138 -0.530579,0.767645 -1.422402,0.767645 -0.880534,0 -1.422401,-0.778934 -0.541867,-0.790223 -0.541867,-1.74978 0,-1.23049 0.496711,-1.964268 0.530579,-0.778934 1.569157,-0.778934 z m -0.135466,0.925689 q -0.474134,0 -0.778935,0.496712 -0.3048,0.496712 -0.3048,1.049868 0,0.857956 0.338667,1.309512 0.338667,0.451556 0.767645,0.451556 0.767646,0 0.982135,-0.666045 0.09031,-0.316089 0.09031,-0.790223 0,-1.85138 -1.095023,-1.85138 z"
         id="path806" /><path
         d="m 31.197261,27.989035 -0.124178,-4.583293 q 0,-0.214489 0.146756,-0.349956 0.146755,-0.135467 0.293511,-0.135467 0.361245,0 0.417689,0.3048 0.04516,0.304801 0.04516,0.632179 0.609601,-0.801512 1.524002,-0.801512 1.399823,0 1.399823,3.194759 0,0.293511 0,0.891823 0,0.587023 -0.06773,0.857956 -0.07902,0.338667 -0.485423,0.338667 -0.270934,0 -0.270934,-0.361245 l 0.01129,-0.632178 q 0,-1.309513 -0.09031,-1.783646 -0.07902,-0.485423 -0.158044,-0.767646 -0.191912,-0.6096 -0.62089,-0.6096 -0.564445,0 -0.790223,0.4064 -0.248356,0.440267 -0.293511,1.038579 -0.07902,1.049868 -0.07902,2.223913 0,0.225778 -0.169333,0.361245 -0.169334,0.135467 -0.406401,0.135467 -0.282222,0 -0.282222,-0.361245 z"
         id="path808" /><path
         d="m 38.433437,21.035073 q 0.03387,-0.428979 0.135467,-0.553156 0.112889,-0.135467 0.349956,-0.135467 0.485422,0 0.485422,0.395111 0,0.304801 -0.05644,1.591735 -0.04516,1.286935 -0.04516,2.302936 0,1.016001 0.07902,1.63689 0.135467,1.083735 0.383823,1.083735 0.248356,0 0.372534,-0.349956 0.05644,-0.135467 0.180622,-0.237067 0.124178,-0.112889 0.316089,-0.112889 0.395112,0 0.395112,0.666045 0,0.361245 -0.395112,0.72249 -0.383822,0.349956 -0.767645,0.349956 -0.383822,0 -0.620889,-0.124178 -0.225778,-0.135467 -0.372534,-0.395112 -0.135467,-0.259644 -0.225778,-0.496711 -0.07902,-0.248356 -0.112889,-0.598312 -0.06773,-0.564445 -0.1016,-1.806224 -0.02258,-1.253068 -0.02258,-2.381958 0,-1.140179 0.02258,-1.557868 z"
         id="path810" /><path
         d="m 42.215227,21.204406 q 0.2032,0 0.383823,0.191911 0.180622,0.191912 0.180622,0.406401 0,0.2032 -0.2032,0.417689 -0.191911,0.214489 -0.4064,0.214489 -0.21449,0 -0.395112,-0.180622 -0.169333,-0.180623 -0.169333,-0.462845 0,-0.541867 0.587022,-0.587023 0.01129,0 0.02258,0 z m 0.474134,5.915384 0.01129,0.790223 q 0,0.214489 -0.169334,0.361245 -0.169333,0.135467 -0.361244,0.135467 -0.282223,0 -0.293512,-0.282223 -0.146756,-3.601159 -0.146756,-3.984982 0,-0.383822 0.03387,-0.936979 0.02258,-0.2032 0.259645,-0.2032 0.598312,0 0.677334,0.485423 0.03387,0.248356 0.03387,0.395112 l -0.04516,0.7112 z"
         id="path812" /><path
         d="m 44.427863,27.989035 -0.124178,-4.583293 q 0,-0.214489 0.146755,-0.349956 0.146756,-0.135467 0.293512,-0.135467 0.361245,0 0.417689,0.3048 0.04516,0.304801 0.04516,0.632179 0.6096,-0.801512 1.524001,-0.801512 1.399824,0 1.399824,3.194759 0,0.293511 0,0.891823 0,0.587023 -0.06773,0.857956 -0.07902,0.338667 -0.485423,0.338667 -0.270934,0 -0.270934,-0.361245 l 0.01129,-0.632178 q 0,-1.309513 -0.09031,-1.783646 -0.07902,-0.485423 -0.158045,-0.767646 -0.191911,-0.6096 -0.620889,-0.6096 -0.564445,0 -0.790223,0.4064 -0.248356,0.440267 -0.293512,1.038579 -0.07902,1.049868 -0.07902,2.223913 0,0.225778 -0.169333,0.361245 -0.169334,0.135467 -0.406401,0.135467 -0.282222,0 -0.282222,-0.361245 z"
         id="path814" /><path
         d="m 53.131601,27.830991 q 0,0.530578 -0.485423,0.530578 -0.2032,0 -0.553156,-0.993423 -0.349956,-1.004712 -0.936979,-1.54658 -0.05644,0.07902 -0.485422,0.451556 -0.41769,0.361245 -0.496712,0.440268 v 1.12889 q -0.02258,0.169333 -0.05644,0.259644 -0.03387,0.09031 -0.158045,0.169334 -0.112889,0.07902 -0.316089,0.07902 -0.304801,0 -0.304801,-0.372534 0,-1.049867 -0.09031,-3.251203 -0.09031,-2.212624 -0.09031,-3.962404 0,-0.214489 0.169334,-0.338667 0.180622,-0.124178 0.372533,-0.124178 0.259645,0 0.316089,0.327378 v 1.998136 q 0,0.361244 0.01129,0.541867 0.01129,0.180622 0.02258,0.541867 0.02258,0.745067 0.07902,1.682046 0.327379,-0.248356 0.835379,-0.778934 0.51929,-0.541867 0.778934,-0.92569 0.406401,-0.643467 0.745068,-0.643467 0.09031,0 0.180622,0.04516 0.237067,0.135467 0.237067,0.31609 0,0.180622 -0.158045,0.474134 -0.4064,0.699911 -0.936978,1.275645 0.508,0.564445 1.016001,1.614313 0.3048,0.677334 0.3048,1.061157 z"
         id="path816" /><path
         d="m 55.411969,23.11223 q 0.598312,0 1.140179,0.349956 0.541867,0.349956 0.541867,0.869246 0,0.508 -0.440267,0.993423 -0.440267,0.474134 -1.174045,0.575734 -0.316089,0.04516 -0.948268,0.04516 0.124178,0.959557 0.485423,1.264357 0.112889,0.124178 0.3048,0.124178 0.699912,0 1.174046,-0.440267 0.474134,-0.451556 0.677334,-0.451556 0.09031,0 0.270933,0.169333 0.180623,0.169334 0.180623,0.31609 0,0.293511 -0.711201,0.846667 -0.316089,0.259645 -0.767645,0.440267 -0.440267,0.169334 -0.82409,0.169334 -0.982134,0 -1.444979,-1.264357 -0.293512,-0.778934 -0.293512,-1.715913 0,-0.936979 0.440268,-1.614313 0.440267,-0.677334 1.388534,-0.677334 z m 0.05645,0.778934 q -0.428978,0 -0.733779,0.485423 -0.112889,0.169334 -0.214489,0.767645 1.580446,0 1.580446,-0.778934 0,-0.474134 -0.632178,-0.474134 z"
         id="path818" /><path
         d="m 60.977405,23.055786 -0.01129,-2.178758 q 0,-0.609601 0.383823,-0.609601 0.395112,0 0.440267,0.338667 0.02258,0.146756 0.05645,1.772358 0.03387,1.625601 0.1016,3.048003 0.07902,1.422401 0.07902,2.652891 0,0.338667 -0.508,0.338667 -0.338667,0 -0.338667,-0.474133 -0.485423,0.383822 -1.151468,0.383822 -0.846668,0 -1.377246,-0.632178 -0.51929,-0.632179 -0.51929,-1.557868 0,-0.92569 0.372534,-1.727202 0.383823,-0.812801 1.185335,-1.162757 0.496711,-0.214489 0.959556,-0.214489 0.169334,0 0.327378,0.02258 z m 0.05645,1.546579 q -0.07902,-0.248356 -0.191911,-0.372534 -0.112889,-0.135466 -0.248356,-0.158044 -0.124178,-0.03387 -0.304801,-0.03387 -0.180622,0 -0.440267,0.135467 -0.259644,0.135467 -0.440267,0.440267 -0.361245,0.609601 -0.361245,1.286935 0,0.666045 0.259645,1.095023 0.270934,0.417689 0.756356,0.417689 0.496712,0 0.778935,-0.485422 0.282222,-0.485423 0.282222,-1.241779 0,-0.846668 -0.09031,-1.083735 z"
         id="path820" /><path
         d="m 63.42709,21.204406 q 0.2032,0 0.383822,0.191911 0.180623,0.191912 0.180623,0.406401 0,0.2032 -0.2032,0.417689 -0.191912,0.214489 -0.406401,0.214489 -0.214489,0 -0.395111,-0.180622 -0.169334,-0.180623 -0.169334,-0.462845 0,-0.541867 0.587023,-0.587023 0.01129,0 0.02258,0 z m 0.474134,5.915384 0.01129,0.790223 q 0,0.214489 -0.169333,0.361245 -0.169334,0.135467 -0.361245,0.135467 -0.282222,0 -0.293511,-0.282223 -0.146756,-3.601159 -0.146756,-3.984982 0,-0.383822 0.03387,-0.936979 0.02258,-0.2032 0.259644,-0.2032 0.598312,0 0.677334,0.485423 0.03387,0.248356 0.03387,0.395112 l -0.04516,0.7112 z"
         id="path822" /><path
         d="m 65.639725,27.989035 -0.124178,-4.583293 q 0,-0.214489 0.146756,-0.349956 0.146756,-0.135467 0.293511,-0.135467 0.361245,0 0.41769,0.3048 0.04516,0.304801 0.04516,0.632179 0.609601,-0.801512 1.524002,-0.801512 1.399824,0 1.399824,3.194759 0,0.293511 0,0.891823 0,0.587023 -0.06773,0.857956 -0.07902,0.338667 -0.485423,0.338667 -0.270933,0 -0.270933,-0.361245 l 0.01129,-0.632178 q 0,-1.309513 -0.09031,-1.783646 -0.07902,-0.485423 -0.158045,-0.767646 -0.191911,-0.6096 -0.62089,-0.6096 -0.564445,0 -0.790223,0.4064 -0.248355,0.440267 -0.293511,1.038579 -0.07902,1.049868 -0.07902,2.223913 0,0.225778 -0.169334,0.361245 -0.169333,0.135467 -0.4064,0.135467 -0.282223,0 -0.282223,-0.361245 z"
         id="path824" /></g></g><style
     id="style1002"
     type="text/css">
	.st0{clip-path:url(#SVGID_2_);fill:#4967A9;}
</style></svg>
