<?xml version="1.0" encoding="UTF-8" standalone="no"?>
<!-- Created with Inkscape (http://www.inkscape.org/) -->

<svg
   width="418"
   height="148"
   viewBox="0 0 110.59616 39.158333"
   version="1.1"
   id="svg80"
   sodipodi:docname="yes-vol.svg"
   xml:space="preserve"
   inkscape:version="1.2.2 (b0a8486541, 2022-12-01)"
   xmlns:inkscape="http://www.inkscape.org/namespaces/inkscape"
   xmlns:sodipodi="http://sodipodi.sourceforge.net/DTD/sodipodi-0.dtd"
   xmlns:xlink="http://www.w3.org/1999/xlink"
   xmlns="http://www.w3.org/2000/svg"
   xmlns:svg="http://www.w3.org/2000/svg"
   xmlns:rdf="http://www.w3.org/1999/02/22-rdf-syntax-ns#"
   xmlns:cc="http://creativecommons.org/ns#"
   xmlns:dc="http://purl.org/dc/elements/1.1/">
   <style>
     @media (prefers-color-scheme: dark) {
       path {
          fill: #fbf1c7;
       }
     }
   </style>
   <sodipodi:namedview
   id="namedview62"
   pagecolor="#ffffff"
   bordercolor="#000000"
   borderopacity="0.25"
   inkscape:showpageshadow="2"
   inkscape:pageopacity="0.0"
   inkscape:pagecheckerboard="0"
   inkscape:deskcolor="#d1d1d1"
   showgrid="false"
   inkscape:zoom="3.6435407"
   inkscape:cx="147.38411"
   inkscape:cy="47.069599"
   inkscape:window-width="2560"
   inkscape:window-height="1400"
   inkscape:window-x="0"
   inkscape:window-y="40"
   inkscape:window-maximized="1"
   inkscape:current-layer="svg80" /><defs
   id="defs74"><linearGradient
     id="linearGradient1033"><stop
       style="stop-color:#000000;stop-opacity:1;"
       offset="0"
       id="stop1031" /></linearGradient><linearGradient
     id="linearGradient1027"><stop
       style="stop-color:#000000;stop-opacity:1;"
       offset="0"
       id="stop1025" /></linearGradient><clipPath
     id="SVGID_2_"><use
       xlink:href="#SVGID_1_"
       style="overflow:visible"
       id="use1007"
       x="0"
       y="0"
       width="100%"
       height="100%" /></clipPath><clipPath
     id="SVGID_2_-3"><use
       xlink:href="#SVGID_1_"
       style="overflow:visible"
       id="use1007-6"
       x="0"
       y="0"
       width="100%"
       height="100%" /></clipPath><clipPath
     id="SVGID_2_-5"><use
       xlink:href="#SVGID_1_"
       style="overflow:visible"
       id="use1007-3"
       x="0"
       y="0"
       width="100%"
       height="100%" /></clipPath><clipPath
     id="SVGID_2_-6"><use
       xlink:href="#SVGID_1_"
       style="overflow:visible"
       id="use1007-2"
       x="0"
       y="0"
       width="100%"
       height="100%" /></clipPath><clipPath
     id="SVGID_2_-1"><use
       xlink:href="#SVGID_1_"
       style="overflow:visible"
       id="use1007-27"
       x="0"
       y="0"
       width="100%"
       height="100%" /></clipPath><clipPath
     id="SVGID_2_-9"><use
       xlink:href="#SVGID_1_"
       style="overflow:visible"
       id="use1007-36"
       x="0"
       y="0"
       width="100%"
       height="100%" /></clipPath><clipPath
     id="SVGID_2_-2"><use
       xlink:href="#SVGID_1_"
       style="overflow:visible"
       id="use1007-61"
       x="0"
       y="0"
       width="100%"
       height="100%" /></clipPath><clipPath
     id="SVGID_2_-7"><use
       xlink:href="#SVGID_1_"
       style="overflow:visible"
       id="use1007-9"
       x="0"
       y="0"
       width="100%"
       height="100%" /></clipPath><clipPath
     id="SVGID_2_-0"><use
       xlink:href="#SVGID_1_"
       style="overflow:visible"
       id="use1007-23"
       x="0"
       y="0"
       width="100%"
       height="100%" /></clipPath><clipPath
     id="SVGID_2_-92"><use
       xlink:href="#SVGID_1_"
       style="overflow:visible"
       id="use1007-28"
       x="0"
       y="0"
       width="100%"
       height="100%" /></clipPath><clipPath
     id="SVGID_2_-36"><use
       xlink:href="#SVGID_1_"
       style="overflow:visible"
       id="use1007-1"
       x="0"
       y="0"
       width="100%"
       height="100%" /></clipPath><clipPath
     id="SVGID_2_-31"><use
       xlink:href="#SVGID_1_"
       style="overflow:visible"
       id="use1007-94"
       x="0"
       y="0"
       width="100%"
       height="100%" /></clipPath><clipPath
     id="SVGID_2_-4"><use
       xlink:href="#SVGID_1_"
       style="overflow:visible"
       id="use1007-5"
       x="0"
       y="0"
       width="100%"
       height="100%" /></clipPath><clipPath
     id="SVGID_2_-61"><use
       xlink:href="#SVGID_1_"
       style="overflow:visible"
       id="use1007-0"
       x="0"
       y="0"
       width="100%"
       height="100%" /></clipPath><clipPath
     id="SVGID_2_-32"><use
       xlink:href="#SVGID_1_"
       style="overflow:visible"
       id="use1007-06"
       x="0"
       y="0"
       width="100%"
       height="100%" /></clipPath><rect
     x="0"
     height="12.9"
     width="66.900002"
     y="0"
     id="SVGID_1_" /><clipPath
     id="clipPath4674"
     clipPathUnits="userSpaceOnUse"><path
       id="path4676"
       d="M 0,500 H 1024 V 0 H 0 Z" /></clipPath><linearGradient
     xlink:href="#linearGradient1027"
     id="linearGradient1029"
     x1="-1.2029998"
     y1="14.334795"
     x2="10.983719"
     y2="14.334795"
     gradientUnits="userSpaceOnUse" /><linearGradient
     xlink:href="#linearGradient1033"
     id="linearGradient1035"
     x1="-8.780899"
     y1="14.330109"
     x2="20.15568"
     y2="14.330109"
     gradientUnits="userSpaceOnUse" /><linearGradient
     xlink:href="#linearGradient1027"
     id="linearGradient2569"
     gradientUnits="userSpaceOnUse"
     x1="-1.2029998"
     y1="14.334795"
     x2="10.983719"
     y2="14.334795" /><rect
     x="0"
     height="12.9"
     width="66.900002"
     y="0"
     id="rect7329" /></defs><metadata
   id="metadata77"><rdf:RDF><cc:Work
       rdf:about=""><dc:format>image/svg+xml</dc:format><dc:type
         rdf:resource="http://purl.org/dc/dcmitype/StillImage" /></cc:Work></rdf:RDF></metadata><g
   transform="matrix(0.26458333,0,0,0.26458333,-772.93915,-472.19974)"
   id="g1026"><defs
     id="defs1005"><rect
       x="0"
       height="12.9"
       width="66.900002"
       y="0"
       id="rect1656" /></defs><clipPath
     id="SVGID_2_-67"><use
       height="100%"
       width="100%"
       y="0"
       x="0"
       id="use1007-365"
       style="overflow:visible"
       xlink:href="#SVGID_1_" /></clipPath></g><text
   xml:space="preserve"
   style="font-style:normal;font-variant:normal;font-weight:normal;font-stretch:normal;font-size:4.23333px;line-height:1.25;font-family:'SF Cartoonist Hand SC';-inkscape-font-specification:'SF Cartoonist Hand SC';font-variant-ligatures:normal;font-variant-caps:normal;font-variant-numeric:normal;font-feature-settings:normal;text-align:start;letter-spacing:0px;word-spacing:0px;writing-mode:lr-tb;text-anchor:start;fill:#000000;fill-opacity:1;stroke:none;stroke-width:0.264583"
   x="15.863658"
   y="-1.2809329"
   id="text1669" /><text
   id="text1673"
   y="30.651152"
   x="27.102875"
   style="font-style:normal;font-variant:normal;font-weight:600;font-stretch:normal;font-size:7.00594px;line-height:1.25;font-family:'URW Gothic L';-inkscape-font-specification:'URW Gothic L Semi-Bold';font-variant-ligatures:normal;font-variant-caps:normal;font-variant-numeric:normal;font-feature-settings:normal;text-align:start;letter-spacing:0px;word-spacing:0px;writing-mode:lr-tb;text-anchor:start;fill:#000000;fill-opacity:1;stroke:none;stroke-width:0.437871"
   xml:space="preserve" /><g
   aria-label="’d"
   style="font-style:normal;font-variant:normal;font-weight:bold;font-stretch:normal;font-size:9.72288px;line-height:1.25;font-family:'Open Sans Condensed';-inkscape-font-specification:'Open Sans Condensed, Bold';font-variant-ligatures:normal;font-variant-caps:normal;font-variant-numeric:normal;font-feature-settings:normal;text-align:start;letter-spacing:-0.0767292px;word-spacing:0px;writing-mode:lr-tb;text-anchor:start;fill:#ffffff;fill-opacity:1;stroke:none;stroke-width:0.60768"
   id="text1677"
   transform="translate(13.842136,5.2194147)" /><g
   aria-label="Viva O Linux"
   transform="translate(12.71678,9.0371263)"
   id="text1774"
   style="font-size:11.2889px;font-family:'Patrick Hand';-inkscape-font-specification:'Patrick Hand';white-space:pre;inline-size:74.442;display:inline;fill:#000000;stroke-width:0.79375"><path
     d="M 29.119288,14.013377 Q 28.656443,12.64742 28.159732,11.51853 27.66302,10.378351 26.884086,8.6624383 26.613152,8.0641266 26.545419,7.9286598 q -0.06773,-0.1467557 -0.06773,-0.3160892 0,-0.1806225 0.169334,-0.349956 0.180622,-0.1693335 0.395111,-0.1693335 0.21449,0 0.361245,0.2144891 l 0.541867,1.2417791 q 1.140179,2.6303137 1.625602,3.8269377 l 0.2032,-0.790224 q 0.248356,-1.038578 0.51929,-2.0545794 0.767645,-2.7770695 1.512712,-2.7770695 0.135467,0 0.225778,0.079022 0.101601,0.079022 0.101601,0.2144891 0,0.1354668 -0.146756,0.3951115 -0.135467,0.2596448 -0.349956,0.9369788 -0.214489,0.677334 -0.270934,0.8015119 -0.04516,0.112889 -0.541867,1.8965353 -0.485423,1.783646 -0.835379,2.799647 -0.05644,0.180623 -0.214489,0.304801 Q 29.616,14.2956 29.4128,14.2956 q -0.191912,0 -0.293512,-0.282223 z"
     id="path2288" /><path
     d="m 33.307473,7.0932811 q 0.2032,0 0.383823,0.1919113 0.180622,0.1919113 0.180622,0.4064005 0,0.2032002 -0.2032,0.4176893 -0.191911,0.2144891 -0.4064,0.2144891 -0.214489,0 -0.395112,-0.1806224 -0.169333,-0.1806224 -0.169333,-0.4628449 0,-0.5418673 0.587022,-0.5870229 0.01129,0 0.02258,0 z m 0.474134,5.9153839 0.01129,0.790223 q 0,0.214489 -0.169334,0.361245 -0.169333,0.135467 -0.361244,0.135467 -0.282223,0 -0.293512,-0.282223 -0.146755,-3.601159 -0.146755,-3.984982 0,-0.3838224 0.03387,-0.9369785 0.02258,-0.2032002 0.259645,-0.2032002 0.598312,0 0.677334,0.4854227 0.03387,0.2483558 0.03387,0.3951115 l -0.04516,0.7112005 z"
     id="path2290" /><path
     d="m 38.737444,8.8995052 q 0.158045,0 0.237067,0.112889 0.07902,0.1016001 0.07902,0.225778 l -0.01129,0.112889 q -0.474134,1.2079128 -0.699912,1.9642688 -0.146756,0.530578 -0.225778,0.790223 -0.06773,0.259645 -0.237067,0.914401 -0.169334,0.654756 -0.225778,0.846667 -0.158045,0.383823 -0.553156,0.383823 -0.191911,0 -0.270934,-0.248356 -0.361245,-1.12889 -1.061156,-2.551291 -0.699912,-1.422402 -0.801512,-1.625602 -0.09031,-0.2144891 -0.09031,-0.3838226 0,-0.1693335 0.146756,-0.3273781 0.158045,-0.1580446 0.349956,-0.1580446 0.191911,0 0.327378,0.2032002 0.124178,0.2483558 0.699912,1.3885351 0.587023,1.140179 0.82409,1.794935 0.01129,-0.06773 0.07902,-0.282223 0.575734,-1.998135 0.936979,-2.8560915 0.191911,-0.3048003 0.496711,-0.3048003 z"
     id="path2292" /><path
     d="m 42.756289,8.9559497 q 0.496712,0 0.496712,0.8466675 0,0.090311 0,0.1919113 l -0.02258,0.7902235 q -0.01129,0.372533 -0.01129,0.733778 l 0.169334,2.551292 q 0,0.282222 -0.575734,0.282222 -0.03387,0 -0.169334,0 -0.124178,0 -0.180622,-0.1016 -0.04516,-0.1016 -0.01129,-0.248356 0.04516,-0.146756 -0.02258,-0.327378 -0.519289,0.553156 -1.377246,0.553156 -1.591735,0 -1.591735,-2.46098 0,-1.365957 0.508001,-2.0658689 0.519289,-0.6999118 1.478846,-0.6999118 0.451556,0 0.903112,0.1580446 0.146755,-0.2032002 0.4064,-0.2032002 z m -1.174046,1.0272899 q -0.643467,0 -0.959556,0.3725334 -0.316089,0.372534 -0.316089,1.365957 0,1.670758 0.903112,1.670758 0.237067,0 0.519289,-0.21449 0.293512,-0.214489 0.406401,-0.485422 0.214489,-0.609601 0.214489,-1.332091 0,-0.722489 -0.180623,-1.049867 -0.169333,-0.3273784 -0.587023,-0.3273784 z"
     id="path2294" /><path
     d="m 49.653803,6.7207474 q 0.790223,0 1.34338,0.5080005 1.083734,0.9708455 1.083734,3.0705811 0,2.088446 -1.196623,3.28507 -0.62089,0.598312 -1.433691,0.654756 -1.072445,0 -1.670757,-0.733778 -0.598312,-0.733779 -0.857956,-1.636891 -0.248356,-0.914401 -0.248356,-1.761068 0,-1.4449797 0.688623,-2.3819584 0.722489,-1.0047122 2.291646,-1.0047122 z m -0.07902,0.9369788 q -1.512712,0 -1.885246,1.4336903 -0.112889,0.3838226 -0.112889,0.9821345 0,0.598312 0.225778,1.388535 0.3048,1.061156 0.903112,1.490134 0.349956,0.270934 0.846667,0.270934 0.496712,0 0.891823,-0.440267 0.395112,-0.451556 0.541868,-1.140179 0.146755,-0.688623 0.146755,-1.388535 0,-1.2417788 -0.361244,-1.9191128 -0.349956,-0.677334 -1.196624,-0.677334 z"
     id="path2296" /><path
     d="m 55.377268,12.658709 0.01129,-0.880534 0.1016,-4.7187606 q 0,-0.1354668 0.146756,-0.2144891 0.146756,-0.079022 0.372534,-0.079022 0.541867,0 0.541867,0.3838226 0,0.1241779 -0.135467,1.8965353 -0.124178,1.7723571 -0.124178,2.1223131 0,0 0,1.196624 0,0.846667 0.112889,0.925689 0.169334,0.05645 0.395112,0.05645 l 1.625601,-0.112889 q 0.530579,0 0.530579,0.383823 0,0.3048 -0.293512,0.451556 -0.282222,0.135466 -0.564445,0.158044 -0.282222,0.01129 -0.688623,0.01129 -1.772357,0 -1.919113,-0.112889 -0.07902,-0.06773 -0.09031,-0.508 -0.01129,-0.451556 -0.02258,-0.632179 0,-0.180622 0,-0.327378 z"
     id="path2298" /><path
     d="m 60.44598,7.0932811 q 0.2032,0 0.383823,0.1919113 0.180622,0.1919113 0.180622,0.4064005 0,0.2032002 -0.2032,0.4176893 -0.191911,0.2144891 -0.4064,0.2144891 -0.21449,0 -0.395112,-0.1806224 Q 59.83638,7.9625265 59.83638,7.680304 q 0,-0.5418673 0.587022,-0.5870229 0.01129,0 0.02258,0 z m 0.474134,5.9153839 0.01129,0.790223 q 0,0.214489 -0.169334,0.361245 -0.169333,0.135467 -0.361244,0.135467 -0.282223,0 -0.293512,-0.282223 -0.146756,-3.601159 -0.146756,-3.984982 0,-0.3838224 0.03387,-0.9369785 0.02258,-0.2032002 0.259645,-0.2032002 0.598312,0 0.677334,0.4854227 0.03387,0.2483558 0.03387,0.3951115 l -0.04516,0.7112005 z"
     id="path2300" /><path
     d="M 62.658616,13.87791 62.534438,9.2946167 q 0,-0.2144891 0.146755,-0.3499559 0.146756,-0.1354668 0.293512,-0.1354668 0.361245,0 0.417689,0.3048003 0.04516,0.3048003 0.04516,0.6321784 0.6096,-0.8015119 1.524001,-0.8015119 1.399824,0 1.399824,3.1947592 0,0.293511 0,0.891823 0,0.587023 -0.06773,0.857956 -0.07902,0.338667 -0.485423,0.338667 -0.270934,0 -0.270934,-0.361245 l 0.01129,-0.632178 q 0,-1.309513 -0.09031,-1.783646 -0.07902,-0.485423 -0.158045,-0.767646 -0.191911,-0.6096 -0.620889,-0.6096 -0.564445,0 -0.790223,0.4064 -0.248356,0.440267 -0.293512,1.038579 -0.07902,1.049868 -0.07902,2.223913 0,0.225778 -0.169333,0.361245 -0.169334,0.135467 -0.406401,0.135467 -0.282222,0 -0.282222,-0.361245 z"
     id="path2302" /><path
     d="m 67.309641,9.3962168 q 0.04515,-0.1919113 0.191911,-0.3160892 0.146756,-0.1354668 0.293511,-0.1354668 0.158045,0 0.237067,0.056445 0.09031,0.056444 0.1016,0.1016001 0.02258,0.045156 0.04516,0.1580446 -0.06773,0.880534 -0.06773,1.591735 0,0.699912 0.169333,1.614313 0.169334,0.903112 0.372534,0.903112 0.3048,0 0.767645,-0.338667 0.474134,-0.338667 0.677334,-0.711201 -0.135467,-1.625602 -0.135467,-2.7883584 0,-0.2370669 0.146756,-0.4064004 0.158045,-0.1693335 0.372534,-0.1693335 0.349956,0 0.349956,0.4741338 0,0.8015115 0.112889,2.3819575 0.124177,1.580447 0.248355,2.009425 0.02258,0.09031 0.02258,0.214489 0,0.112889 -0.158044,0.214489 -0.146756,0.112889 -0.395112,0.112889 -0.237067,0 -0.316089,-0.270934 -0.02258,-0.225778 -0.112889,-0.677334 -0.790223,0.82409 -1.591735,0.82409 -0.372534,0 -0.666045,-0.282222 -0.293512,-0.282223 -0.462845,-0.767646 -0.293512,-0.936978 -0.293512,-1.761068 0,-0.82409 0.09031,-2.0320022 z"
     id="path2304" /><path
     d="m 73.12342,9.1591499 0.92569,1.6256021 q 0.383823,-0.41769 0.72249,-0.9256903 l 0.474134,-0.6999118 q 0.135467,-0.1919113 0.327378,-0.1919113 0.2032,0 0.327378,0.1241779 0.124178,0.112889 0.124178,0.2822225 0,0.1580446 -0.474134,0.880534 -0.474134,0.711201 -1.016001,1.388535 0.1016,0.158045 0.451556,0.733779 0.349956,0.575733 0.767645,1.095023 0.07902,0.124178 0.07902,0.3048 0,0.169334 -0.135467,0.316089 -0.135467,0.146756 -0.304801,0.146756 -0.282222,0 -0.733778,-0.620889 -0.451556,-0.632179 -0.801512,-1.377246 -0.338667,0.462845 -0.666045,0.970845 -0.316089,0.508001 -0.496712,0.745068 -0.169333,0.225778 -0.383822,0.225778 -0.203201,0 -0.327378,-0.124178 -0.112889,-0.124178 -0.112889,-0.304801 0,-0.440267 1.580446,-2.223913 -0.191912,-0.372534 -0.699912,-1.162757 -0.508001,-0.7902228 -0.508001,-0.9708452 0,-0.1806224 0.146756,-0.3160892 0.158045,-0.1354668 0.383823,-0.1354668 0.237066,0 0.349955,0.2144891 z"
     id="path2306" /></g><style
   id="style1002"
   type="text/css">
	.st0{clip-path:url(#SVGID_2_);fill:#4967A9;}
</style><g
   id="g3033"
   transform="matrix(0.20071642,0,0,0.20071642,10.854488,36.963151)"><path
     style="fill:#fdcb00;stroke-width:0.264584"
     d="m 78.535023,-18.209608 c -3.4144,-1.092291 -5.887719,-4.181382 -6.170726,-7.707023 -0.183182,-2.28207 0.256358,-4.716792 1.906397,-10.56002 1.629534,-5.770617 1.634175,-5.796464 2.008781,-11.188479 0.479188,-6.89738 1.33648,-10.053038 3.282978,-12.084517 1.297663,-1.354316 1.671044,-1.441621 1.873586,-0.438093 0.681833,3.378247 1.982886,5.645071 3.83199,6.676473 0.951175,0.530552 1.546468,0.661331 2.959948,0.650271 1.529449,-0.01196 2.07213,-0.163894 4.002911,-1.120633 1.228478,-0.608736 2.831034,-1.64394 3.561239,-2.300458 1.303495,-1.171954 1.360629,-1.19356 3.140859,-1.187856 2.783574,0.0089 4.541804,0.997575 5.655144,3.179899 0.29429,0.576865 0.83706,2.326896 1.20615,3.888955 0.84847,3.590838 1.27995,4.527153 3.14102,6.816002 3.3648,4.138228 3.76805,6.436736 1.47381,8.400527 -0.55799,0.477616 -2.96041,1.839822 -5.33872,3.027125 -5.939884,2.965324 -7.223828,3.860639 -11.061213,7.713185 -3.406182,3.419639 -5.023408,4.590291 -8.005218,5.794696 -2.127555,0.859359 -5.531194,1.059845 -7.468936,0.439946 z M 28.64703,-19.542943 c -2.244843,-0.4315 -4.960219,-1.355446 -7.672939,-2.610831 -4.049246,-1.873899 -5.943075,-2.366279 -12.1708693,-3.164328 -7.90955405,-1.013556 -9.21509142,-1.57345 -9.8038969,-4.204512 -0.2755564,-1.231316 -0.2423723,-1.661884 0.27966806,-3.628726 1.17404171,-4.423333 1.18535797,-4.533667 0.77755184,-7.582121 -0.20980991,-1.568393 -0.37976551,-3.696345 -0.3776753,-4.728779 0.003254,-1.60542 0.11010668,-2.037795 0.73819496,-2.986898 0.90585394,-1.368836 1.77515834,-1.911467 4.79878844,-2.995452 3.0325414,-1.087179 4.0075682,-1.853483 6.6143592,-5.198437 2.544201,-3.26464 3.782841,-4.131643 5.85976,-4.10162 1.823059,0.02635 3.533725,0.879509 5.240134,2.6134 1.019654,1.036074 2.185115,2.892518 4.662673,7.427075 2.000708,3.661799 4.085686,7.074394 5.287597,8.654485 1.091409,1.434818 2.913052,3.819457 4.048092,5.299196 1.135042,1.479737 2.563796,3.693489 3.175009,4.91945 0.972735,1.95109 1.1102,2.445937 1.102487,3.968761 -0.01254,2.47655 -0.726381,4.352224 -2.227753,5.853596 -1.738884,1.738883 -3.628302,2.415467 -7.02388,2.515186 -1.455212,0.04274 -2.943498,0.02048 -3.307301,-0.04945 z m 13.973348,-3.9822 c 0.190996,-0.07643 0.419202,-0.06703 0.507121,0.02088 0.08792,0.08792 -0.06835,0.150453 -0.347267,0.138965 -0.308227,-0.0127 -0.37092,-0.07539 -0.159854,-0.159851 z m 13.609545,-1.853734 c 0.254663,-0.06655 0.671383,-0.06655 0.926045,0 0.254662,0.06655 0.0463,0.121002 -0.463022,0.121002 -0.509325,0 -0.717685,-0.05445 -0.463023,-0.121002 z m -3.307301,-5.019941 c 0.181902,-0.0734 0.479559,-0.0734 0.66146,0 0.181902,0.0734 0.03307,0.133453 -0.33073,0.133453 -0.363803,0 -0.512632,-0.06006 -0.33073,-0.133453 z m 2.254,-0.0081 c 0.257432,-0.06708 0.614621,-0.06267 0.793752,0.0098 0.179132,0.07248 -0.03149,0.127363 -0.468057,0.12197 -0.436564,-0.0054 -0.583127,-0.06469 -0.325695,-0.131773 z m 18.999764,-14.258528 c 0.0127,-0.308227 0.07539,-0.37092 0.159851,-0.159854 0.07643,0.190996 0.06703,0.419202 -0.02088,0.507121 -0.08792,0.08792 -0.150453,-0.06835 -0.138965,-0.347267 z M 98.25354,-60.540515 c 0.0127,-0.308228 0.07539,-0.370921 0.159851,-0.159854 0.07643,0.190995 0.06703,0.419202 -0.02088,0.50712 -0.08792,0.08792 -0.150453,-0.06835 -0.138965,-0.347266 z m -85.725252,-1.852089 c 0.0127,-0.308227 0.07539,-0.370921 0.159851,-0.159854 0.07643,0.190995 0.06703,0.419202 -0.02088,0.507121 -0.08792,0.08792 -0.150453,-0.06835 -0.138965,-0.347267 z m 36.692559,-45.185806 c -1.262183,-0.47042 -1.874851,-0.87833 -3.508142,-2.33568 -0.727606,-0.64922 -2.046164,-1.66756 -2.930126,-2.26298 -3.424909,-2.30693 -4.650793,-4.75679 -3.26305,-6.52102 0.304547,-0.38717 1.524941,-1.43737 2.711987,-2.33378 1.187049,-0.89642 2.783745,-2.19464 3.548219,-2.88495 3.485676,-3.14752 8.098784,-3.24312 12.933882,-0.26806 0.740658,0.45573 2.642838,1.30904 4.227064,1.89624 3.450603,1.27898 4.636284,2.01654 5.220321,3.24731 0.553304,1.166 0.544163,1.64308 -0.05683,2.96607 -0.876876,1.93031 -2.76665,3.45727 -5.722668,4.624 -0.873128,0.34463 -2.308131,1.07682 -3.188895,1.6271 -2.96639,1.85333 -4.543946,2.43439 -6.865301,2.52868 -1.360875,0.0553 -2.470097,-0.0457 -3.106461,-0.28293 z m 5.355426,-4.3151 c 3.341731,-0.92089 10.284784,-5.21388 10.535175,-6.51406 0.118968,-0.61774 -0.911169,-0.60185 -1.243537,0.0192 -0.412376,0.77053 -4.246273,3.38665 -6.653306,4.53999 -1.232801,0.59071 -3.15593,1.27187 -4.273624,1.51371 -1.897562,0.41058 -2.151317,0.4103 -3.831008,-0.004 -0.989362,-0.24415 -2.418638,-0.81954 -3.176168,-1.27866 -1.260307,-0.76382 -3.667893,-2.89445 -4.551543,-4.02795 -0.460837,-0.59114 -0.951053,-0.16322 -0.704159,0.61468 0.257933,0.81268 3.716407,3.63137 5.56377,4.53453 2.674443,1.30752 5.132051,1.48526 8.3344,0.60278 z m -5.005307,-11.34266 c 1.373839,-0.71044 0.261676,-1.27369 -1.199971,-0.60772 -0.370651,0.16888 -0.673909,0.46653 -0.673909,0.66146 0,0.47447 0.90247,0.44859 1.87388,-0.0537 z m 6.592811,0.14966 c 0,-0.43195 -1.254337,-1.11083 -1.882214,-1.0187 -0.862057,0.12649 -0.882616,0.59926 -0.04052,0.93179 0.944484,0.37296 1.92273,0.41718 1.92273,0.0869 z m 23.117791,0.91994 c 5.29e-4,-1.60073 0.04418,-2.22146 0.09684,-1.3794 0.05267,0.84206 0.05218,2.15175 -0.0011,2.91042 -0.05326,0.75867 -0.09635,0.0697 -0.09576,-1.53102 z m -42.65524,-0.66146 c 0,-0.3638 0.06006,-0.51263 0.133454,-0.33073 0.0734,0.1819 0.0734,0.47956 0,0.66146 -0.0734,0.1819 -0.133454,0.0331 -0.133454,-0.33073 z m 9.799418,-3.83647 c 0.0054,-0.43656 0.06469,-0.58313 0.131773,-0.32569 0.06708,0.25743 0.06267,0.61462 -0.0098,0.79375 -0.07248,0.17913 -0.127362,-0.0315 -0.12197,-0.46806 z m -10.064002,-0.39687 c 0,-0.36381 0.06006,-0.51264 0.133454,-0.33073 0.0734,0.1819 0.0734,0.47955 0,0.66146 -0.0734,0.1819 -0.133454,0.0331 -0.133454,-0.33073 z m 42.902838,-2.24897 c 0.0016,-0.87313 0.05088,-1.19842 0.109765,-0.72287 0.05889,0.47555 0.05767,1.18993 -0.0027,1.58751 -0.06037,0.39758 -0.108551,0.008 -0.107066,-0.86464 z"
     id="path3037" /><path
     style="fill:#202020;stroke-width:0.264584"
     d="m 78.395256,-16.342245 c -3.015798,-0.847794 -5.571559,-3.036886 -6.973244,-5.972812 l -0.834916,-1.74879 -3.044458,-0.165944 c -1.674455,-0.09127 -4.23509,-0.359213 -5.690302,-0.595428 -3.852387,-0.625337 -7.739694,-0.534529 -12.303161,0.287402 -2.110059,0.380046 -4.586428,0.761272 -5.503046,0.847171 -1.592068,0.149199 -1.700484,0.205466 -2.425016,1.258537 -3.94157,5.728876 -11.721296,6.460348 -21.418915,2.013871 -4.372411,-2.004804 -5.552535,-2.302265 -12.6127823,-3.179171 -6.5713882,-0.816186 -8.7282064,-1.697063 -9.9453092,-4.061813 -0.8064542,-1.566891 -0.7482489,-4.337303 0.1554087,-7.397026 0.8026689,-2.717778 0.820568,-3.179306 0.2648249,-6.828585 -0.535034,-3.513296 -0.3835914,-5.357598 0.5862549,-7.139521 0.97376214,-1.789123 2.4998013,-2.925475 5.279379,-3.931244 3.7486859,-1.356433 3.9104262,-1.484544 7.013246,-5.555113 l 1.696471,-2.225586 0.02582,-3.595264 c 0.01857,-2.58763 0.185291,-4.347765 0.594811,-6.2802 1.818074,-8.579108 7.062044,-18.576776 14.967677,-28.535989 4.291573,-5.40636 6.225913,-8.98302 7.433604,-13.74499 1.075844,-4.24209 1.270769,-7.01484 0.906685,-12.89732 -0.761055,-12.29632 0.300901,-18.92962 3.820065,-23.86129 3.754735,-5.26179 10.675577,-7.94629 19.31913,-7.49361 7.908507,0.41418 12.991813,3.57952 16.231894,10.10749 2.456206,4.94865 3.215335,9.87035 3.352857,21.73775 0.07736,6.67588 0.15615,7.88257 0.629433,9.64017 1.187482,4.4099 3.325984,7.94029 9.407187,15.53003 4.806089,5.998308 7.603616,10.213313 9.95874,15.004728 3.344736,6.804725 4.360456,10.84798 4.353636,17.330259 -0.004,4.180042 -0.11521,5.053935 -1.06263,8.380503 -0.12925,0.453838 0.003,0.661648 0.62745,0.984465 1.09508,0.566289 2.3559,1.878261 2.97925,3.100137 0.28812,0.564765 0.9379,2.582029 1.44395,4.482811 1.07221,4.027283 1.08454,4.053646 2.95815,6.321566 3.94109,4.770512 4.12294,8.536293 0.53862,11.154411 -0.61566,0.449703 -2.90532,1.711428 -5.08814,2.803837 -5.48142,2.743221 -7.873925,4.388723 -10.355798,7.122453 -3.113385,3.429336 -6.085593,5.533632 -9.504202,6.728893 -2.114572,0.739325 -5.844076,0.91817 -7.782628,0.373212 z m 7.608703,-2.307309 c 2.98181,-1.204405 4.599036,-2.375057 8.005218,-5.794696 3.837385,-3.852546 5.121329,-4.747861 11.061213,-7.713185 2.37831,-1.187303 4.78073,-2.549509 5.33872,-3.027125 2.29424,-1.963791 1.89099,-4.262299 -1.47381,-8.400527 -1.86107,-2.288849 -2.29255,-3.225164 -3.14102,-6.816002 -0.36909,-1.562059 -0.91186,-3.31209 -1.20615,-3.888955 -1.11334,-2.182324 -2.87157,-3.170977 -5.655144,-3.179899 -1.78023,-0.0057 -1.837364,0.0159 -3.140859,1.187856 -0.730205,0.656518 -2.332761,1.691722 -3.561239,2.300458 -1.930781,0.956739 -2.473462,1.108666 -4.002911,1.120633 -3.62068,0.02833 -5.776924,-2.297699 -6.791938,-7.326744 -0.202542,-1.003528 -0.575923,-0.916223 -1.873586,0.438093 -1.946498,2.031479 -2.80379,5.187137 -3.282978,12.084517 -0.374606,5.392015 -0.379247,5.417862 -2.008781,11.188479 -1.650039,5.843228 -2.089579,8.27795 -1.906397,10.56002 0.283007,3.525641 2.756326,6.614732 6.170726,7.707023 1.937742,0.619899 5.341381,0.419413 7.468936,-0.439946 z m -49.831921,-1.523234 c 3.18913,-1.22055 5.015294,-4.010079 5.033926,-7.689492 0.0077,-1.522824 -0.129752,-2.017671 -1.102487,-3.968761 -0.611213,-1.225961 -2.039967,-3.439713 -3.175009,-4.91945 -1.13504,-1.479739 -2.956683,-3.864378 -4.048092,-5.299196 -1.201911,-1.580091 -3.286889,-4.992686 -5.287597,-8.654485 -2.477558,-4.534557 -3.643019,-6.391001 -4.662673,-7.427075 -1.706409,-1.733891 -3.417075,-2.58705 -5.240134,-2.6134 -2.076919,-0.03002 -3.315559,0.83698 -5.85976,4.10162 -2.606791,3.344954 -3.5818178,4.111258 -6.6143592,5.198437 -3.0236301,1.083985 -3.8929345,1.626616 -4.79878844,2.995452 -0.62808828,0.949103 -0.73494586,1.381478 -0.73819496,2.986898 -0.002117,1.032434 0.16786539,3.160386 0.3776753,4.728779 0.40780613,3.048454 0.39648987,3.158788 -0.77755184,7.582121 -0.52204036,1.966842 -0.55522446,2.39741 -0.27966806,3.628726 0.58880548,2.631062 1.89434285,3.190956 9.8038969,4.204512 6.2277943,0.798049 8.1216233,1.290429 12.1708693,3.164328 2.71272,1.255385 5.428096,2.179331 7.672939,2.610831 0.363803,0.06993 1.852089,0.09218 3.307301,0.04945 1.972626,-0.05793 3.045789,-0.230772 4.217707,-0.67929 z m 23.613816,-10.695784 c 3.745061,-0.789447 7.704277,-2.421667 10.953518,-4.515678 l 1.743263,-1.123466 0.848722,-3.207643 c 0.631033,-2.384914 0.91159,-4.174775 1.093833,-6.978279 0.399911,-6.152041 0.894855,-9.004525 1.9957,-11.501696 0.756356,-1.715728 2.678509,-3.805739 4.082236,-4.438732 0.839317,-0.37848 1.061938,-0.621807 1.066536,-1.165742 0.0032,-0.378083 0.227262,-1.175042 0.497926,-1.771018 1.350649,-2.97401 5.441765,-3.093072 10.9883,-0.319784 3.761994,1.881011 5.176763,3.381737 5.176763,5.491293 0,0.966517 0.06479,1.071475 0.66146,1.071475 0.630171,0 0.66146,-0.07321 0.66146,-1.54769 0,-1.256782 -0.139523,-1.755433 -0.742285,-2.652926 -0.881891,-1.313102 -3.11611,-3.037976 -5.712199,-4.409961 l -1.879915,-0.993498 -0.0076,-4.39226 c -0.007,-4.038427 -0.06646,-4.581967 -0.737978,-6.747162 -1.011233,-3.260531 -2.279421,-5.902043 -4.266826,-8.887357 -2.12927,-3.198411 -5.002561,-6.340909 -5.424768,-5.933034 -0.2177,0.21031 0.167394,0.805561 1.437567,2.222089 4.655588,5.192021 7.26072,11.861467 6.925987,17.731337 -0.07884,1.382452 -0.305,3.049332 -0.502586,3.704177 l -0.359247,1.190629 -1.44269,-0.09296 c -0.793477,-0.05113 -1.47604,-0.12417 -1.516808,-0.162318 -0.04077,-0.03815 -0.360453,-1.246476 -0.710416,-2.685176 -1.09768,-4.51257 -2.445633,-7.949898 -5.954251,-15.183562 -1.870467,-3.856313 -4.232073,-9.101304 -5.248012,-11.655538 -1.803199,-4.533508 -4.814294,-13.385758 -4.814294,-14.153408 0,-0.49387 -0.428359,-0.50005 -0.61683,-0.009 -0.270145,0.70399 -2.949179,2.49462 -5.071728,3.38988 -1.16417,0.49103 -3.009644,1.43271 -4.101054,2.09263 -2.979489,1.80154 -4.256719,2.21093 -6.879186,2.20497 -2.733027,-0.006 -4.357224,-0.66862 -6.684824,-2.72633 -1.677527,-1.48302 -3.723802,-2.95588 -4.106657,-2.95588 -0.134785,0 -0.322251,0.83049 -0.416588,1.84554 -0.243854,2.62376 -1.759699,8.28769 -3.294469,12.309706 -1.438914,3.770821 -2.335712,5.842713 -5.592006,12.919322 -3.288622,7.146872 -4.654059,11.696967 -5.382035,17.934792 l -0.320372,2.745158 -1.005608,-1.914856 c -2.227747,-4.242032 -2.33301,-9.372583 -0.316164,-15.40972 0.36512,-1.092936 1.615561,-3.873623 2.778757,-6.179306 2.038764,-4.041234 2.604529,-5.556418 1.740765,-4.661967 -0.741804,0.768162 -4.152179,7.062274 -5.307242,9.79493 -3.998943,9.460721 -3.572301,16.631135 1.280666,21.523753 0.892419,0.899711 2.694144,2.332264 4.003835,3.183455 6.595598,4.286583 10.599258,8.377903 11.874731,12.134719 0.52639,1.550442 0.538259,2.320474 0.05365,3.480302 -0.459416,1.099535 -1.370548,1.724017 -3.075698,2.108048 l -1.299116,0.292588 2.127548,2.837376 c 1.791975,2.389845 2.385638,2.981463 3.763859,3.750887 2.081571,1.162085 5.933291,2.454406 8.282039,2.778771 2.256714,0.311656 6.359855,0.141912 8.750346,-0.361994 z M 56.0176,-108.10255 c 0.865492,-0.3966 2.294246,-1.17133 3.175009,-1.72161 0.880764,-0.55028 2.315767,-1.28247 3.188895,-1.6271 2.956018,-1.16673 4.845792,-2.69369 5.722668,-4.624 0.600993,-1.32299 0.610134,-1.80007 0.05683,-2.96607 -0.584037,-1.23077 -1.769718,-1.96833 -5.220321,-3.24731 -1.584226,-0.5872 -3.486406,-1.44051 -4.227064,-1.89624 -4.835098,-2.97506 -9.448206,-2.87946 -12.933882,0.26806 -0.764474,0.69031 -2.36117,1.98853 -3.548219,2.88495 -1.187046,0.89641 -2.40744,1.94661 -2.711987,2.33378 -1.387743,1.76423 -0.161859,4.21409 3.26305,6.52102 0.883962,0.59542 2.20252,1.61376 2.930126,2.26298 2.585574,2.30705 3.674274,2.73804 6.614603,2.61861 1.615119,-0.0656 2.489548,-0.25684 3.690292,-0.80707 z m -6.73301,-3.37883 c -0.800366,-0.13134 -2.169589,-0.58804 -3.042717,-1.01491 -1.847363,-0.90316 -5.305837,-3.72185 -5.56377,-4.53453 -0.246894,-0.7779 0.243322,-1.20582 0.704159,-0.61468 0.88365,1.1335 3.291236,3.26413 4.551543,4.02795 0.75753,0.45912 2.186806,1.03451 3.176168,1.27866 1.679691,0.41451 1.933446,0.41479 3.831008,0.004 1.117694,-0.24184 3.040823,-0.923 4.273624,-1.51371 2.407033,-1.15334 6.24093,-3.76946 6.653306,-4.53999 0.138605,-0.25899 0.494674,-0.47089 0.791268,-0.47089 1.728935,0 -1.669862,2.98351 -5.849561,5.13483 -4.064522,2.09203 -6.684873,2.7091 -9.525028,2.24306 z m -1.587504,-11.70105 c 0,-0.19493 0.303258,-0.49258 0.673909,-0.66146 1.461647,-0.66597 2.57381,-0.10272 1.199971,0.60772 -0.97141,0.50233 -1.87388,0.52821 -1.87388,0.0537 z m 6.543961,0.009 c -0.8421,-0.33253 -0.821541,-0.8053 0.04052,-0.93179 0.627877,-0.0921 1.882214,0.58675 1.882214,1.01869 0,0.33027 -0.978246,0.28606 -1.92273,-0.0869 z m -11.47582,0.53099 0.756703,-0.60552 -0.667895,-0.9842 c -1.678458,-2.47335 -0.971071,-6.798 1.111957,-6.798 1.323471,0 2.408173,1.78776 2.408173,3.96904 v 1.2983 l 1.389067,-0.64227 1.389066,-0.64227 0.07987,-1.47961 c 0.04393,-0.81378 -0.101582,-2.10377 -0.323354,-2.86664 -1.432035,-4.92603 -5.596565,-6.4743 -8.156882,-3.03252 -1.451582,1.95133 -1.983936,6.00878 -1.151348,8.77526 0.462863,1.53798 1.663821,3.61701 2.088368,3.61526 0.175768,-7.9e-4 0.660092,-0.2738 1.076277,-0.60684 z m 24.488506,-1.04551 c 2.994552,-6.15657 -0.249765,-13.9612 -5.798273,-13.94851 -3.840232,0.009 -6.773618,3.44637 -7.075937,8.29218 l -0.135073,2.16505 1.554979,0.48983 c 0.855237,0.26941 1.703805,0.54679 1.885707,0.61639 0.23322,0.0893 0.331164,-0.21331 0.332206,-1.02622 0.0021,-1.69071 0.451315,-3.03177 1.363286,-4.07045 2.311941,-2.63316 5.478717,0.50471 4.835843,4.79169 -0.09795,0.65315 -0.448687,1.5863 -0.779425,2.07368 l -0.601341,0.88612 1.624988,0.66636 c 0.893744,0.36649 1.706824,0.67787 1.806848,0.69194 0.10002,0.0141 0.543807,-0.71855 0.986192,-1.62806 z"
     id="path3035" /></g></svg>
