<?xml version="1.0" encoding="UTF-8" standalone="no"?>
<!-- Created with Inkscape (http://www.inkscape.org/) -->

<svg
   width="418"
   height="148"
   viewBox="0 0 110.59616 39.158333"
   version="1.1"
   id="svg80"
   sodipodi:docname="yes-github.svg"
   xml:space="preserve"
   inkscape:version="1.2.2 (b0a8486541, 2022-12-01)"
   xmlns:inkscape="http://www.inkscape.org/namespaces/inkscape"
   xmlns:sodipodi="http://sodipodi.sourceforge.net/DTD/sodipodi-0.dtd"
   xmlns:xlink="http://www.w3.org/1999/xlink"
   xmlns="http://www.w3.org/2000/svg"
   xmlns:svg="http://www.w3.org/2000/svg"
   xmlns:rdf="http://www.w3.org/1999/02/22-rdf-syntax-ns#"
   xmlns:cc="http://creativecommons.org/ns#"
   xmlns:dc="http://purl.org/dc/elements/1.1/">
   <style>
     @media (prefers-color-scheme: dark) {
       path {
          fill: #fbf1c7;
       }
     }
   </style>
   <sodipodi:namedview
   id="namedview62"
   pagecolor="#ffffff"
   bordercolor="#000000"
   borderopacity="0.25"
   inkscape:showpageshadow="2"
   inkscape:pageopacity="0.0"
   inkscape:pagecheckerboard="0"
   inkscape:deskcolor="#d1d1d1"
   showgrid="false"
   inkscape:zoom="2.5763723"
   inkscape:cx="293.82399"
   inkscape:cy="16.10792"
   inkscape:window-width="2560"
   inkscape:window-height="1400"
   inkscape:window-x="0"
   inkscape:window-y="40"
   inkscape:window-maximized="1"
   inkscape:current-layer="svg80" /><defs
   id="defs74"><linearGradient
     id="linearGradient1033"><stop
       style="stop-color:#000000;stop-opacity:1;"
       offset="0"
       id="stop1031" /></linearGradient><linearGradient
     id="linearGradient1027"><stop
       style="stop-color:#000000;stop-opacity:1;"
       offset="0"
       id="stop1025" /></linearGradient><clipPath
     id="SVGID_2_"><use
       xlink:href="#SVGID_1_"
       style="overflow:visible"
       id="use1007"
       x="0"
       y="0"
       width="100%"
       height="100%" /></clipPath><clipPath
     id="SVGID_2_-3"><use
       xlink:href="#SVGID_1_"
       style="overflow:visible"
       id="use1007-6"
       x="0"
       y="0"
       width="100%"
       height="100%" /></clipPath><clipPath
     id="SVGID_2_-5"><use
       xlink:href="#SVGID_1_"
       style="overflow:visible"
       id="use1007-3"
       x="0"
       y="0"
       width="100%"
       height="100%" /></clipPath><clipPath
     id="SVGID_2_-6"><use
       xlink:href="#SVGID_1_"
       style="overflow:visible"
       id="use1007-2"
       x="0"
       y="0"
       width="100%"
       height="100%" /></clipPath><clipPath
     id="SVGID_2_-1"><use
       xlink:href="#SVGID_1_"
       style="overflow:visible"
       id="use1007-27"
       x="0"
       y="0"
       width="100%"
       height="100%" /></clipPath><clipPath
     id="SVGID_2_-9"><use
       xlink:href="#SVGID_1_"
       style="overflow:visible"
       id="use1007-36"
       x="0"
       y="0"
       width="100%"
       height="100%" /></clipPath><clipPath
     id="SVGID_2_-2"><use
       xlink:href="#SVGID_1_"
       style="overflow:visible"
       id="use1007-61"
       x="0"
       y="0"
       width="100%"
       height="100%" /></clipPath><clipPath
     id="SVGID_2_-7"><use
       xlink:href="#SVGID_1_"
       style="overflow:visible"
       id="use1007-9"
       x="0"
       y="0"
       width="100%"
       height="100%" /></clipPath><clipPath
     id="SVGID_2_-0"><use
       xlink:href="#SVGID_1_"
       style="overflow:visible"
       id="use1007-23"
       x="0"
       y="0"
       width="100%"
       height="100%" /></clipPath><clipPath
     id="SVGID_2_-92"><use
       xlink:href="#SVGID_1_"
       style="overflow:visible"
       id="use1007-28"
       x="0"
       y="0"
       width="100%"
       height="100%" /></clipPath><clipPath
     id="SVGID_2_-36"><use
       xlink:href="#SVGID_1_"
       style="overflow:visible"
       id="use1007-1"
       x="0"
       y="0"
       width="100%"
       height="100%" /></clipPath><clipPath
     id="SVGID_2_-31"><use
       xlink:href="#SVGID_1_"
       style="overflow:visible"
       id="use1007-94"
       x="0"
       y="0"
       width="100%"
       height="100%" /></clipPath><clipPath
     id="SVGID_2_-4"><use
       xlink:href="#SVGID_1_"
       style="overflow:visible"
       id="use1007-5"
       x="0"
       y="0"
       width="100%"
       height="100%" /></clipPath><clipPath
     id="SVGID_2_-61"><use
       xlink:href="#SVGID_1_"
       style="overflow:visible"
       id="use1007-0"
       x="0"
       y="0"
       width="100%"
       height="100%" /></clipPath><clipPath
     id="SVGID_2_-32"><use
       xlink:href="#SVGID_1_"
       style="overflow:visible"
       id="use1007-06"
       x="0"
       y="0"
       width="100%"
       height="100%" /></clipPath><rect
     x="0"
     height="12.9"
     width="66.900002"
     y="0"
     id="SVGID_1_" /><clipPath
     id="clipPath4674"
     clipPathUnits="userSpaceOnUse"><path
       id="path4676"
       d="M 0,500 H 1024 V 0 H 0 Z" /></clipPath><linearGradient
     xlink:href="#linearGradient1027"
     id="linearGradient1029"
     x1="-1.2029998"
     y1="14.334795"
     x2="10.983719"
     y2="14.334795"
     gradientUnits="userSpaceOnUse" /><linearGradient
     xlink:href="#linearGradient1033"
     id="linearGradient1035"
     x1="-8.780899"
     y1="14.330109"
     x2="20.15568"
     y2="14.330109"
     gradientUnits="userSpaceOnUse" /><linearGradient
     xlink:href="#linearGradient1027"
     id="linearGradient2569"
     gradientUnits="userSpaceOnUse"
     x1="-1.2029998"
     y1="14.334795"
     x2="10.983719"
     y2="14.334795" /></defs><metadata
   id="metadata77"><rdf:RDF><cc:Work
       rdf:about=""><dc:format>image/svg+xml</dc:format><dc:type
         rdf:resource="http://purl.org/dc/dcmitype/StillImage" /></cc:Work></rdf:RDF></metadata><g
   transform="matrix(0.26458333,0,0,0.26458333,-772.93915,-472.19974)"
   id="g1026"><defs
     id="defs1005"><rect
       x="0"
       height="12.9"
       width="66.900002"
       y="0"
       id="rect1656" /></defs><clipPath
     id="SVGID_2_-67"><use
       height="100%"
       width="100%"
       y="0"
       x="0"
       id="use1007-365"
       style="overflow:visible"
       xlink:href="#SVGID_1_" /></clipPath></g><text
   xml:space="preserve"
   style="font-style:normal;font-variant:normal;font-weight:normal;font-stretch:normal;font-size:4.23333px;line-height:1.25;font-family:'SF Cartoonist Hand SC';-inkscape-font-specification:'SF Cartoonist Hand SC';font-variant-ligatures:normal;font-variant-caps:normal;font-variant-numeric:normal;font-feature-settings:normal;text-align:start;letter-spacing:0px;word-spacing:0px;writing-mode:lr-tb;text-anchor:start;fill:#000000;fill-opacity:1;stroke:none;stroke-width:0.264583"
   x="15.863658"
   y="-1.2809329"
   id="text1669" /><text
   id="text1673"
   y="30.651152"
   x="27.102875"
   style="font-style:normal;font-variant:normal;font-weight:600;font-stretch:normal;font-size:7.00594px;line-height:1.25;font-family:'URW Gothic L';-inkscape-font-specification:'URW Gothic L Semi-Bold';font-variant-ligatures:normal;font-variant-caps:normal;font-variant-numeric:normal;font-feature-settings:normal;text-align:start;letter-spacing:0px;word-spacing:0px;writing-mode:lr-tb;text-anchor:start;fill:#000000;fill-opacity:1;stroke:none;stroke-width:0.437871"
   xml:space="preserve" /><g
   aria-label="’d"
   style="font-style:normal;font-variant:normal;font-weight:bold;font-stretch:normal;font-size:9.72288px;line-height:1.25;font-family:'Open Sans Condensed';-inkscape-font-specification:'Open Sans Condensed, Bold';font-variant-ligatures:normal;font-variant-caps:normal;font-variant-numeric:normal;font-feature-settings:normal;text-align:start;letter-spacing:-0.0767292px;word-spacing:0px;writing-mode:lr-tb;text-anchor:start;fill:#ffffff;fill-opacity:1;stroke:none;stroke-width:0.60768"
   id="text1677"
   transform="translate(13.842136,5.2194147)" /><g
   aria-label="Github"
   transform="translate(12.71678,7.9195252)"
   id="text1774"
   style="font-size:11.2889px;font-family:'Patrick Hand';-inkscape-font-specification:'Patrick Hand';white-space:pre;inline-size:63.8003;display:inline;fill:#000000;stroke-width:0.79375"><path
     d="m 29.525689,6.7320363 q 0.541867,0 1.072445,0.2709336 0.541867,0.2709336 0.541867,0.6096007 0,0.5192894 -0.428978,0.5192894 -0.158045,0 -0.553156,-0.2032002 -0.395112,-0.2032002 -0.666045,-0.2032002 -0.970846,0 -1.625602,0.8692453 -0.643467,0.8692453 -0.643467,2.2126241 0,1.004712 0.440267,1.761069 0.440267,0.756356 1.038579,0.756356 0.6096,0 0.948267,-0.395111 0.349956,-0.406401 0.349956,-0.914401 0,-0.282223 -0.04516,-0.462845 -0.03387,-0.191912 -0.191912,-0.338667 -0.158044,-0.158045 -0.417689,-0.158045 -0.259645,0 -0.496711,-0.112889 -0.225779,-0.112889 -0.225779,-0.3048 0,-0.191911 0.112889,-0.361245 0.11289,-0.169333 0.304801,-0.2032 0.767645,0 1.02729,0.158044 0.270933,0.158045 0.4064,0.259645 0.135467,0.1016 0.225778,0.338667 0.09031,0.237067 0.135467,0.395112 0.05644,0.158044 0.07902,0.508 0.02258,0.587023 0.02258,1.377246 0,0.778934 -0.112889,0.959557 -0.1016,0.146755 -0.338667,0.158044 -0.237067,0 -0.327378,-0.1016 -0.09031,-0.1016 -0.112889,-0.451556 -0.270934,0.237067 -0.688623,0.4064 -0.4064,0.158045 -0.72249,0.158045 -0.993423,0 -1.670757,-1.049868 -0.677334,-1.061156 -0.677334,-2.551291 0,-0.7902232 0.259645,-1.5465795 0.259645,-0.7676452 0.699912,-1.2869346 0.925689,-1.0724456 2.280358,-1.0724456 z"
     id="path1992" /><path
     d="m 32.381775,7.0932811 q 0.2032,0 0.383823,0.1919113 0.180622,0.1919113 0.180622,0.4064005 0,0.2032002 -0.2032,0.4176893 -0.191912,0.2144891 -0.406401,0.2144891 -0.214489,0 -0.395111,-0.1806224 -0.169334,-0.1806224 -0.169334,-0.4628449 0,-0.5418673 0.587023,-0.5870229 0.01129,0 0.02258,0 z m 0.474134,5.9153839 0.01129,0.790223 q 0,0.214489 -0.169334,0.361245 -0.169333,0.135467 -0.361245,0.135467 -0.282222,0 -0.293511,-0.282223 -0.146756,-3.601159 -0.146756,-3.984982 0,-0.3838224 0.03387,-0.9369785 0.02258,-0.2032002 0.259645,-0.2032002 0.598311,0 0.677334,0.4854227 0.03387,0.2483558 0.03387,0.3951115 l -0.04516,0.7112005 z"
     id="path1994" /><path
     d="m 34.447654,8.9559497 0.564445,0.011289 q 0.191912,0 0.214489,-0.011289 V 6.6417251 q 0.01129,-0.1919113 0.191912,-0.3273781 0.180622,-0.1354668 0.338667,-0.1354668 0.158044,0 0.248356,0.1016001 0.1016,0.1016001 0.09031,0.3160892 -0.01129,0.2144891 -0.01129,2.3480913 l 1.320801,-0.045156 q 0.338667,0 0.338667,0.3951115 0,0.2935114 -0.180622,0.4402671 -0.169334,0.1467557 -0.372534,0.1580446 -0.191911,0.011289 -0.383823,0.011289 l -0.688622,-0.011289 q 0,0.4628446 0.09031,1.8288016 0.1016,1.365957 0.158044,1.772358 0.05644,0.395111 0.02258,0.519289 -0.03387,0.112889 -0.124178,0.158045 -0.146755,0.06773 -0.395111,0.06773 -0.248356,0 -0.293512,-0.270934 -0.225778,-1.478845 -0.3048,-4.0640037 -0.1016,0.011289 -0.778934,0.011289 -0.677334,0 -0.677334,-0.3951115 0,-0.564445 0.632178,-0.564445 z"
     id="path1996" /><path
     d="m 39.256725,10.570262 0.09031,2.664181 q 0,0.496712 -0.04516,0.575734 -0.02258,0.2032 -0.135467,0.316089 -0.1016,0.112889 -0.4064,0.112889 -0.146756,0 -0.237067,-0.180622 -0.09031,-0.191912 -0.1016,-0.428979 -0.07902,-1.986846 -0.214489,-3.7253367 -0.124178,-1.7497795 -0.124178,-3.2512033 0,-0.2370669 0.158044,-0.3725337 0.158045,-0.1354668 0.372534,-0.1354668 0.316089,0 0.372534,0.5418672 0.06773,0.5418672 0.07902,1.3546681 0.02258,0.8128008 0.04516,1.1853345 0.564445,-0.2935114 1.12889,-0.2935114 1.309512,0 1.659468,1.1514681 0.2032,0.654756 0.2032,1.682046 0,0.338667 -0.06773,1.072445 -0.05645,0.72249 -0.06773,0.936979 -0.01129,0.214489 -0.191912,0.338667 -0.169333,0.112889 -0.372533,0.112889 -0.31609,0 -0.31609,-0.338667 l 0.07902,-1.964269 q 0,-0.248355 -0.02258,-0.824089 -0.02258,-0.575734 -0.237067,-0.914401 -0.2032,-0.3386672 -0.72249,-0.3386672 -0.925689,0 -0.925689,0.7224892 z"
     id="path1998" /><path
     d="m 42.767574,9.3962168 q 0.04516,-0.1919113 0.191911,-0.3160892 0.146756,-0.1354668 0.293512,-0.1354668 0.158044,0 0.237067,0.056445 0.09031,0.056444 0.1016,0.1016001 0.02258,0.045156 0.04516,0.1580446 -0.06773,0.880534 -0.06773,1.591735 0,0.699912 0.169333,1.614313 0.169334,0.903112 0.372534,0.903112 0.3048,0 0.767645,-0.338667 0.474134,-0.338667 0.677334,-0.711201 -0.135466,-1.625602 -0.135466,-2.7883584 0,-0.2370669 0.146755,-0.4064004 0.158045,-0.1693335 0.372534,-0.1693335 0.349956,0 0.349956,0.4741338 0,0.8015115 0.112889,2.3819575 0.124178,1.580447 0.248356,2.009425 0.02258,0.09031 0.02258,0.214489 0,0.112889 -0.158045,0.214489 -0.146756,0.112889 -0.395112,0.112889 -0.237066,0 -0.316089,-0.270934 -0.02258,-0.225778 -0.112889,-0.677334 -0.790223,0.82409 -1.591735,0.82409 -0.372533,0 -0.666045,-0.282222 -0.293511,-0.282223 -0.462845,-0.767646 -0.293511,-0.936978 -0.293511,-1.761068 0,-0.82409 0.09031,-2.0320022 z"
     id="path2000" /><path
     d="m 47.328284,6.5965695 q 0,-0.451556 0.564445,-0.451556 0.259645,0 0.3048,0.3160892 v 1.6933351 q 0,0.4741338 0.01129,0.9482676 0.225778,-0.067733 0.575734,-0.067733 1.095024,0 1.693335,0.7337785 0.598312,0.7337785 0.598312,1.8400905 0,1.106313 -0.711201,1.873958 -0.699912,0.756356 -1.806224,0.756356 -1.106312,0 -1.106312,-0.620889 0,-0.632179 -0.06773,-3.18347 -0.05645,-2.5625807 -0.05645,-3.8382265 z m 2.280358,3.6350255 q -0.4064,-0.3160888 -0.857956,-0.3160888 -0.248356,0 -0.508001,0.090311 0.06773,0.92569 0.06773,3.28507 0.191912,0.06773 0.395112,0.06773 0.440267,0 0.880534,-0.327378 0.654756,-0.451556 0.654756,-1.377246 0,-0.936979 -0.632178,-1.422402 z"
     id="path2002" /></g><style
   id="style1002"
   type="text/css">
	.st0{clip-path:url(#SVGID_2_);fill:#4967A9;}
</style><path
   style="fill:#000000;stroke-width:0.0544533"
   d="m 18.012856,30.659739 c -1.04063,-0.385403 -2.26788,-1.091603 -3.18551,-1.833065 -0.90319,-0.729784 -1.92102,-1.898771 -2.57435,-2.956654 -1.2547,-2.03165 -1.86113,-4.710814 -1.61614,-7.140119 0.55336,-5.487215 4.81964,-9.7757219 10.28141,-10.3349869 5.6388,-0.577393 10.89543,3.2028299 12.22429,8.7909129 0.68917,2.898092 0.17047,6.19759 -1.3652,8.684193 -0.65333,1.057883 -1.67116,2.22687 -2.57435,2.956654 -0.92604,0.748243 -2.23931,1.497677 -3.25683,1.858536 -0.43594,0.154607 -0.5929,0.171132 -0.7867,0.08283 -0.2814,-0.128215 -0.28335,-0.143158 -0.31556,-2.419295 -0.0286,-2.018899 -0.036,-2.139798 -0.15089,-2.450397 -0.0665,-0.179695 -0.20951,-0.456017 -0.31789,-0.614047 -0.1084,-0.158029 -0.18323,-0.301189 -0.16629,-0.318131 0.0169,-0.01694 0.29605,-0.07616 0.62024,-0.131596 1.13412,-0.19394 2.12825,-0.606508 2.80345,-1.163446 1.13779,-0.938499 1.74723,-2.616526 1.6632,-4.579438 -0.0457,-1.066299 -0.31737,-1.861943 -0.88952,-2.604623 l -0.24467,-0.317585 0.096,-0.36308 c 0.19927,-0.753491 0.0561,-2.308717 -0.24328,-2.642647 -0.24857,-0.277281 -1.66972,0.18508 -2.77677,0.903406 l -0.34434,0.223439 -0.39077,-0.08894 c -1.5626,-0.355653 -3.10295,-0.375168 -4.67481,-0.05922 l -0.6928,0.139254 -0.2355,-0.162027 c -0.40844,-0.281012 -1.25139,-0.706189 -1.69092,-0.852881 -0.25446,-0.08493 -0.56939,-0.146002 -0.78956,-0.153114 l -0.36627,-0.01183 -0.0917,0.190587 c -0.2518,0.52359 -0.33698,1.726221 -0.17461,2.465159 l 0.0877,0.399031 -0.3101,0.455421 c -0.36553,0.536815 -0.53661,0.905093 -0.69656,1.499502 -0.0974,0.36186 -0.11658,0.578549 -0.11341,1.279651 0.0144,3.179858 1.4452,4.931392 4.44672,5.443507 0.32455,0.05537 0.6049,0.115493 0.62301,0.133599 0.0181,0.0181 -0.0172,0.100757 -0.0785,0.183668 -0.19217,0.259929 -0.35794,0.624345 -0.45098,0.991431 l -0.0897,0.353948 -0.35073,0.131213 c -0.2839,0.106217 -0.45984,0.132152 -0.92352,0.136133 -0.5423,0.0046 -0.59215,-0.0045 -0.93631,-0.173983 -0.42407,-0.208712 -0.77568,-0.531813 -1.05655,-0.970892 -0.41682,-0.65159 -0.87332,-1.025327 -1.45746,-1.193225 -0.32961,-0.09474 -0.63559,-0.08177 -0.77362,0.03279 -0.14855,0.123283 -0.0814,0.265462 0.23629,0.499946 0.62677,0.462694 0.90653,0.804032 1.26875,1.547975 0.39665,0.814669 0.70111,1.159743 1.25121,1.4181 0.64396,0.302449 0.93081,0.334108 2.44889,0.270296 l 0.24505,-0.0103 0.0165,1.089067 c 0.0141,0.927697 0.003,1.114336 -0.0732,1.259632 -0.17535,0.333491 -0.4423,0.364355 -1.08682,0.125654 z"
   id="path210" /></svg>
