<?xml version="1.0" encoding="UTF-8" standalone="no"?>
<!-- Created with Inkscape (http://www.inkscape.org/) -->

<svg
   width="418"
   height="148"
   viewBox="0 0 110.59616 39.158333"
   version="1.1"
   id="svg80"
   sodipodi:docname="javascript.svg"
   inkscape:version="1.2.2 (b0a8486541, 2022-12-01)"
   xml:space="preserve"
   xmlns:inkscape="http://www.inkscape.org/namespaces/inkscape"
   xmlns:sodipodi="http://sodipodi.sourceforge.net/DTD/sodipodi-0.dtd"
   xmlns:xlink="http://www.w3.org/1999/xlink"
   xmlns="http://www.w3.org/2000/svg"
   xmlns:svg="http://www.w3.org/2000/svg"
   xmlns:rdf="http://www.w3.org/1999/02/22-rdf-syntax-ns#"
   xmlns:cc="http://creativecommons.org/ns#"
   xmlns:dc="http://purl.org/dc/elements/1.1/"><sodipodi:namedview
     id="namedview62"
     pagecolor="#ffffff"
     bordercolor="#000000"
     borderopacity="0.25"
     inkscape:showpageshadow="2"
     inkscape:pageopacity="0.0"
     inkscape:pagecheckerboard="0"
     inkscape:deskcolor="#d1d1d1"
     showgrid="false"
     inkscape:zoom="3.6435407"
     inkscape:cx="193.4931"
     inkscape:cy="9.1943532"
     inkscape:window-width="2560"
     inkscape:window-height="1400"
     inkscape:window-x="0"
     inkscape:window-y="40"
     inkscape:window-maximized="1"
     inkscape:current-layer="layer1" /><defs
     id="defs74"><linearGradient
       id="linearGradient1033"><stop
         style="stop-color:#000000;stop-opacity:1;"
         offset="0"
         id="stop1031" /></linearGradient><linearGradient
       id="linearGradient1027"><stop
         style="stop-color:#000000;stop-opacity:1;"
         offset="0"
         id="stop1025" /></linearGradient><clipPath
       id="SVGID_2_"><use
         xlink:href="#SVGID_1_"
         style="overflow:visible"
         id="use1007"
         x="0"
         y="0"
         width="100%"
         height="100%" /></clipPath><clipPath
       id="SVGID_2_-3"><use
         xlink:href="#SVGID_1_"
         style="overflow:visible"
         id="use1007-6"
         x="0"
         y="0"
         width="100%"
         height="100%" /></clipPath><clipPath
       id="SVGID_2_-5"><use
         xlink:href="#SVGID_1_"
         style="overflow:visible"
         id="use1007-3"
         x="0"
         y="0"
         width="100%"
         height="100%" /></clipPath><clipPath
       id="SVGID_2_-6"><use
         xlink:href="#SVGID_1_"
         style="overflow:visible"
         id="use1007-2"
         x="0"
         y="0"
         width="100%"
         height="100%" /></clipPath><clipPath
       id="SVGID_2_-1"><use
         xlink:href="#SVGID_1_"
         style="overflow:visible"
         id="use1007-27"
         x="0"
         y="0"
         width="100%"
         height="100%" /></clipPath><clipPath
       id="SVGID_2_-9"><use
         xlink:href="#SVGID_1_"
         style="overflow:visible"
         id="use1007-36"
         x="0"
         y="0"
         width="100%"
         height="100%" /></clipPath><clipPath
       id="SVGID_2_-2"><use
         xlink:href="#SVGID_1_"
         style="overflow:visible"
         id="use1007-61"
         x="0"
         y="0"
         width="100%"
         height="100%" /></clipPath><clipPath
       id="SVGID_2_-7"><use
         xlink:href="#SVGID_1_"
         style="overflow:visible"
         id="use1007-9"
         x="0"
         y="0"
         width="100%"
         height="100%" /></clipPath><clipPath
       id="SVGID_2_-0"><use
         xlink:href="#SVGID_1_"
         style="overflow:visible"
         id="use1007-23"
         x="0"
         y="0"
         width="100%"
         height="100%" /></clipPath><clipPath
       id="SVGID_2_-92"><use
         xlink:href="#SVGID_1_"
         style="overflow:visible"
         id="use1007-28"
         x="0"
         y="0"
         width="100%"
         height="100%" /></clipPath><clipPath
       id="SVGID_2_-36"><use
         xlink:href="#SVGID_1_"
         style="overflow:visible"
         id="use1007-1"
         x="0"
         y="0"
         width="100%"
         height="100%" /></clipPath><clipPath
       id="SVGID_2_-31"><use
         xlink:href="#SVGID_1_"
         style="overflow:visible"
         id="use1007-94"
         x="0"
         y="0"
         width="100%"
         height="100%" /></clipPath><clipPath
       id="SVGID_2_-4"><use
         xlink:href="#SVGID_1_"
         style="overflow:visible"
         id="use1007-5"
         x="0"
         y="0"
         width="100%"
         height="100%" /></clipPath><clipPath
       id="SVGID_2_-61"><use
         xlink:href="#SVGID_1_"
         style="overflow:visible"
         id="use1007-0"
         x="0"
         y="0"
         width="100%"
         height="100%" /></clipPath><clipPath
       id="SVGID_2_-32"><use
         xlink:href="#SVGID_1_"
         style="overflow:visible"
         id="use1007-06"
         x="0"
         y="0"
         width="100%"
         height="100%" /></clipPath><rect
       x="0"
       height="12.9"
       width="66.900002"
       y="0"
       id="SVGID_1_" /><clipPath
       id="clipPath4674"
       clipPathUnits="userSpaceOnUse"><path
         id="path4676"
         d="M 0,500 H 1024 V 0 H 0 Z" /></clipPath><linearGradient
       xlink:href="#linearGradient1027"
       id="linearGradient1029"
       x1="-1.2029998"
       y1="14.334795"
       x2="10.983719"
       y2="14.334795"
       gradientUnits="userSpaceOnUse" /><linearGradient
       xlink:href="#linearGradient1033"
       id="linearGradient1035"
       x1="-8.780899"
       y1="14.330109"
       x2="20.15568"
       y2="14.330109"
       gradientUnits="userSpaceOnUse"
       gradientTransform="translate(0.45401091,0.0296427)" /><linearGradient
       xlink:href="#linearGradient1027"
       id="linearGradient2569"
       gradientUnits="userSpaceOnUse"
       x1="-1.2029998"
       y1="14.334795"
       x2="10.983719"
       y2="14.334795" /><linearGradient
       inkscape:collect="always"
       xlink:href="#linearGradient1027"
       id="linearGradient327"
       gradientUnits="userSpaceOnUse"
       x1="-1.2029998"
       y1="14.334795"
       x2="10.983719"
       y2="14.334795"
       gradientTransform="translate(-5.9493788,-4.1862466)" /><linearGradient
       inkscape:collect="always"
       xlink:href="#linearGradient1027"
       id="linearGradient511"
       gradientUnits="userSpaceOnUse"
       gradientTransform="translate(-5.9493788,-4.1862466)"
       x1="-1.2029998"
       y1="14.334795"
       x2="10.983719"
       y2="14.334795" /></defs><metadata
     id="metadata77"><rdf:RDF><cc:Work
         rdf:about=""><dc:format>image/svg+xml</dc:format><dc:type
           rdf:resource="http://purl.org/dc/dcmitype/StillImage" /></cc:Work></rdf:RDF></metadata><g
     id="layer1"
     transform="translate(13.842136,5.2194147)"><rect
       style="fill:#f7df1d;fill-opacity:1;stroke:none;stroke-width:0.79375;stroke-dasharray:none"
       id="rect303"
       width="28.936579"
       height="29.187744"
       x="-8.3268881"
       y="-0.23412028"
       ry="0.97906625" /><g
       aria-label="JS"
       id="text1101"
       style="font-size:19.7556px;-inkscape-font-specification:sans-serif;fill:#ffffff;stroke:#ffffff;stroke-width:0.79375"><path
         d="m 7.2125538,14.213127 q 0,-0.217312 0.3160896,-0.434624 0.3160896,-0.217311 0.6124236,-0.217311 0.3160896,0 0.4741344,0.138289 0.1778004,0.138289 0.197556,0.335845 0.4148676,5.334012 0.4148676,6.756415 0,1.402648 -0.039511,2.11385 -0.039511,0.711201 -0.197556,1.540936 -0.1580448,0.80998 -0.4543788,1.284114 -0.6519348,1.106314 -2.0940936,1.106314 -1.4421588,0 -2.3509164,-0.948269 -0.9087576,-0.968024 -0.9087576,-2.765784 0,-0.296334 0.296334,-0.533401 0.3160896,-0.256823 0.6716904,-0.256823 0.4346232,0 0.5334012,0.80998 0.2568228,2.291649 1.7187372,2.291649 0.3753564,0 0.6321792,-0.237067 0.2765784,-0.256823 0.4148676,-0.592668 0.1382892,-0.355601 0.2173116,-0.928513 0.1185336,-0.829735 0.1185336,-1.97556 0,-1.16558 -0.296334,-4.227698 -0.2765784,-3.062118 -0.2765784,-3.259674 z"
         style="font-family:'Patrick Hand';-inkscape-font-specification:'Patrick Hand'"
         id="path1378" /><path
         d="m 15.055543,13.679725 q 1.284114,0 2.173116,0.434624 0.908758,0.434623 0.908758,1.106313 0,0.296334 -0.158045,0.513646 -0.138289,0.217311 -0.434623,0.217311 -0.276578,0 -1.224847,-0.434623 -0.948269,-0.454379 -1.738493,-0.454379 -0.770468,0 -1.600204,0.49389 -0.829735,0.49389 -0.829735,1.205092 0,0.968024 1.007536,1.422403 0.750713,0.335845 2.15336,0.612424 1.402648,0.256823 2.29165,1.086558 0.889002,0.809979 0.889002,2.46945 0,2.528717 -1.521181,3.733808 -0.849491,0.671691 -2.410184,0.671691 -1.540936,0 -3.081873,-0.849491 -1.007536,-0.533401 -1.007536,-1.066803 0,-0.197556 0.158045,-0.434623 0.1778,-0.237067 0.474134,-0.395112 0.296334,-0.158045 0.533402,-0.03951 0.256822,0.09878 0.809979,0.375356 0.553157,0.276579 0.80998,0.375357 0.829735,0.316089 1.560692,0.316089 0.730957,0 1.402648,-0.711201 0.691446,-0.730957 0.691446,-1.778004 0,-1.382892 -1.382892,-1.936049 -0.671691,-0.276578 -1.521181,-0.414868 -1.758249,-0.316089 -2.647251,-1.047046 -0.889002,-0.750713 -0.889002,-2.252139 0,-1.501425 1.284114,-2.350916 1.284114,-0.869247 3.299185,-0.869247 z"
         style="font-family:'Patrick Hand';-inkscape-font-specification:'Patrick Hand'"
         id="path1380" /></g><g
       transform="matrix(0.26458333,0,0,0.26458333,-786.78129,-477.41915)"
       id="g1026"><defs
         id="defs1005"><rect
           x="0"
           height="12.9"
           width="66.900002"
           y="0"
           id="rect1656" /></defs><clipPath
         id="SVGID_2_-67"><use
           height="100%"
           width="100%"
           y="0"
           x="0"
           id="use1007-365"
           style="overflow:visible"
           xlink:href="#SVGID_1_" /></clipPath></g><text
       xml:space="preserve"
       style="font-style:normal;font-variant:normal;font-weight:normal;font-stretch:normal;font-size:4.23333px;line-height:1.25;font-family:'SF Cartoonist Hand SC';-inkscape-font-specification:'SF Cartoonist Hand SC';font-variant-ligatures:normal;font-variant-caps:normal;font-variant-numeric:normal;font-feature-settings:normal;text-align:start;letter-spacing:0px;word-spacing:0px;writing-mode:lr-tb;text-anchor:start;fill:#000000;fill-opacity:1;stroke:none;stroke-width:0.264583"
       x="2.0215223"
       y="-6.5003476"
       id="text1669" /><text
       id="text1673"
       y="25.431738"
       x="13.260739"
       style="font-style:normal;font-variant:normal;font-weight:600;font-stretch:normal;font-size:7.00594px;line-height:1.25;font-family:'URW Gothic L';-inkscape-font-specification:'URW Gothic L Semi-Bold';font-variant-ligatures:normal;font-variant-caps:normal;font-variant-numeric:normal;font-feature-settings:normal;text-align:start;letter-spacing:0px;word-spacing:0px;writing-mode:lr-tb;text-anchor:start;fill:#000000;fill-opacity:1;stroke:none;stroke-width:0.437871"
       xml:space="preserve" /><g
       aria-label="’d"
       style="font-style:normal;font-variant:normal;font-weight:bold;font-stretch:normal;font-size:9.72288px;line-height:1.25;font-family:'Open Sans Condensed';-inkscape-font-specification:'Open Sans Condensed, Bold';font-variant-ligatures:normal;font-variant-caps:normal;font-variant-numeric:normal;font-feature-settings:normal;text-align:start;letter-spacing:-0.0767292px;word-spacing:0px;writing-mode:lr-tb;text-anchor:start;fill:#ffffff;fill-opacity:1;stroke:none;stroke-width:0.60768"
       id="text1677" /><g
       aria-label="Javascript"
       id="text1774"
       style="font-size:11.2889px;font-family:'Patrick Hand';-inkscape-font-specification:'Patrick Hand';fill:#f7df1d;stroke-width:0.396876"><path
         d="m 26.339443,9.4547248 q 0,-0.1241779 0.180622,-0.2483558 0.180623,-0.1241779 0.349956,-0.1241779 0.180622,0 0.270934,0.079022 0.1016,0.079022 0.112889,0.1919113 0.237067,3.0480033 0.237067,3.8608043 0,0.801512 -0.02258,1.207912 -0.02258,0.4064 -0.112889,0.880534 -0.09031,0.462845 -0.259645,0.733779 -0.372534,0.632178 -1.196623,0.632178 -0.82409,0 -1.34338,-0.541867 -0.519289,-0.553156 -0.519289,-1.580446 0,-0.169334 0.169334,-0.3048 0.180622,-0.146756 0.383822,-0.146756 0.248356,0 0.304801,0.462845 0.146755,1.309512 0.982134,1.309512 0.214489,0 0.361245,-0.135467 0.158044,-0.146755 0.237067,-0.338667 0.07902,-0.2032 0.124177,-0.530578 0.06773,-0.474134 0.06773,-1.12889 0,-0.666045 -0.169334,-2.415825 -0.158044,-1.7497792 -0.158044,-1.8626682 z"
         id="path1357" /><path
         d="m 31.39688,11.35126 q 0.496711,0 0.496711,0.846668 0,0.09031 0,0.191911 l -0.02258,0.790223 q -0.01129,0.372534 -0.01129,0.733778 l 0.169333,2.551292 q 0,0.282222 -0.575734,0.282222 -0.03387,0 -0.169333,0 -0.124178,0 -0.180623,-0.1016 -0.04516,-0.1016 -0.01129,-0.248355 0.04516,-0.146756 -0.02258,-0.327379 -0.51929,0.553157 -1.377246,0.553157 -1.591735,0 -1.591735,-2.460981 0,-1.365957 0.508,-2.065868 0.51929,-0.699912 1.478846,-0.699912 0.451556,0 0.903112,0.158044 0.146756,-0.2032 0.406401,-0.2032 z m -1.174046,1.02729 q -0.643467,0 -0.959556,0.372534 -0.31609,0.372533 -0.31609,1.365957 0,1.670757 0.903112,1.670757 0.237067,0 0.51929,-0.214489 0.293511,-0.214489 0.4064,-0.485423 0.214489,-0.6096 0.214489,-1.33209 0,-0.72249 -0.180622,-1.049868 -0.169334,-0.327378 -0.587023,-0.327378 z"
         id="path1359" /><path
         d="m 36.318842,11.294816 q 0.158045,0 0.237067,0.112889 0.07902,0.1016 0.07902,0.225778 l -0.01129,0.112889 q -0.474134,1.207912 -0.699912,1.964268 -0.146756,0.530579 -0.225778,0.790223 -0.06773,0.259645 -0.237067,0.914401 -0.169334,0.654756 -0.225778,0.846668 -0.158045,0.383822 -0.553156,0.383822 -0.191911,0 -0.270934,-0.248355 -0.361245,-1.12889 -1.061156,-2.551292 -0.699912,-1.422401 -0.801512,-1.625602 -0.09031,-0.214489 -0.09031,-0.383822 0,-0.169334 0.146756,-0.327378 0.158045,-0.158045 0.349956,-0.158045 0.191911,0 0.327378,0.2032 0.124178,0.248356 0.699912,1.388535 0.587023,1.140179 0.82409,1.794935 0.01129,-0.06773 0.07902,-0.282222 0.575734,-1.998136 0.936979,-2.856092 0.191911,-0.3048 0.496711,-0.3048 z"
         id="path1361" /><path
         d="m 40.337687,11.35126 q 0.496712,0 0.496712,0.846668 0,0.09031 0,0.191911 l -0.02258,0.790223 q -0.01129,0.372534 -0.01129,0.733778 l 0.169334,2.551292 q 0,0.282222 -0.575734,0.282222 -0.03387,0 -0.169334,0 -0.124178,0 -0.180622,-0.1016 -0.04516,-0.1016 -0.01129,-0.248355 0.04516,-0.146756 -0.02258,-0.327379 -0.519289,0.553157 -1.377246,0.553157 -1.591735,0 -1.591735,-2.460981 0,-1.365957 0.508001,-2.065868 0.519289,-0.699912 1.478846,-0.699912 0.451556,0 0.903112,0.158044 0.146755,-0.2032 0.4064,-0.2032 z m -1.174046,1.02729 q -0.643467,0 -0.959556,0.372534 -0.316089,0.372533 -0.316089,1.365957 0,1.670757 0.903112,1.670757 0.237067,0 0.519289,-0.214489 0.293512,-0.214489 0.406401,-0.485423 0.214489,-0.6096 0.214489,-1.33209 0,-0.72249 -0.180623,-1.049868 -0.169333,-0.327378 -0.587023,-0.327378 z"
         id="path1363" /><path
         d="m 41.805246,12.78495 q 0,-0.666045 0.474134,-1.061156 0.474134,-0.395112 1.095023,-0.395112 0.632179,0 1.207913,0.225778 0.575734,0.225778 0.575734,0.598312 0,0.191911 -0.146756,0.3048 -0.146756,0.112889 -0.259645,0.112889 -0.1016,0 -0.169333,0 -0.05644,-0.01129 -0.451556,-0.214489 -0.383823,-0.2032 -0.711201,-0.2032 -0.327378,0 -0.564445,0.169334 -0.225778,0.158044 -0.225778,0.474133 0,0.31609 0.259645,0.496712 0.270933,0.180622 0.936978,0.316089 0.666045,0.124178 1.016001,0.361245 0.361245,0.237067 0.361245,0.880534 0,0.936979 -0.496711,1.33209 -0.485423,0.383823 -1.185335,0.383823 -0.699912,0 -1.196623,-0.191911 -0.485423,-0.191912 -0.485423,-0.575734 0,-0.440267 0.440267,-0.440267 0.112889,0 0.496712,0.158044 0.383822,0.158045 0.756356,0.158045 0.383823,0 0.575734,-0.237067 0.2032,-0.248356 0.2032,-0.564445 0,-0.316089 -0.259645,-0.451556 -0.259644,-0.146756 -0.790223,-0.237067 -0.530578,-0.09031 -0.778934,-0.191911 -0.677334,-0.270934 -0.677334,-1.207913 z"
         id="path1365" /><path
         d="m 45.80152,13.981574 q 0,-0.756356 0.395111,-1.377246 0.406401,-0.620889 1.02729,-0.92569 0.62089,-0.316089 1.207913,-0.316089 0.587022,0 0.936978,0.146756 0.361245,0.135467 0.361245,0.372533 0,0.225778 -0.135467,0.462845 -0.124178,0.225778 -0.338667,0.225778 -0.07902,0 -0.440267,-0.124178 -0.349956,-0.135466 -0.451556,-0.135466 -0.654756,0 -1.117601,0.485422 -0.462845,0.474134 -0.462845,1.264357 0,0.790223 0.248356,1.185335 0.259645,0.383822 0.880534,0.383822 0.248356,0 0.846668,-0.282222 0.6096,-0.293512 0.756356,-0.293512 0.146756,0 0.237067,0.09031 0.09031,0.09031 0.09031,0.225778 0,0.270933 -0.349956,0.575734 -0.338667,0.293511 -0.846667,0.496711 -0.508001,0.191911 -0.914401,0.191911 -0.903112,0 -1.422402,-0.7112 -0.508,-0.711201 -0.508,-1.941691 z"
         id="path1367" /><path
         d="m 51.795931,14.974997 0.01129,1.162757 q 0,0.2032 -0.191911,0.372534 -0.180623,0.169333 -0.361245,0.169333 -0.259645,0 -0.327378,-0.4064 -0.01129,-0.09031 -0.09031,-1.64818 -0.07902,-1.569157 -0.3048,-2.46098 -0.1016,-0.428978 -0.1016,-0.508001 0,-0.372533 0.451556,-0.372533 0.191911,0 0.3048,0.146755 0.112889,0.146756 0.135467,0.304801 0.03387,0.146755 0.05645,0.4064 0.02258,0.259645 0.03387,0.327378 0.237067,-0.564445 0.711201,-0.846667 0.474134,-0.282223 1.038579,-0.282223 0.92569,0 0.92569,0.474134 0,0.237067 -0.169334,0.383823 -0.158044,0.135466 -0.372533,0.135466 -0.959557,0 -1.354669,0.609601 -0.395111,0.609601 -0.395111,2.032002 z"
         id="path1369" /><path
         d="m 55.430958,9.4885915 q 0.2032,0 0.383822,0.1919113 0.180623,0.1919114 0.180623,0.4064002 0,0.2032 -0.2032,0.41769 -0.191912,0.214489 -0.406401,0.214489 -0.214489,0 -0.395111,-0.180623 -0.169334,-0.180622 -0.169334,-0.462845 0,-0.5418669 0.587023,-0.5870225 0.01129,0 0.02258,0 z m 0.474134,5.9153835 0.01129,0.790223 q 0,0.214489 -0.169334,0.361245 -0.169333,0.135467 -0.361245,0.135467 -0.282222,0 -0.293511,-0.282223 -0.146756,-3.601159 -0.146756,-3.984981 0,-0.383823 0.03387,-0.936979 0.02258,-0.2032 0.259645,-0.2032 0.598311,0 0.677334,0.485422 0.03387,0.248356 0.03387,0.395112 l -0.04515,0.711201 z"
         id="path1371" /><path
         d="m 58.998261,16.611888 q -0.383822,0 -0.7112,-0.259645 0,0 -0.146756,-0.124178 v 3.38667 q -0.06773,0.225778 -0.237067,0.372534 -0.169333,0.158044 -0.361245,0.158044 -0.293511,0 -0.293511,-0.395111 v -7.868364 q 0.06773,-0.293511 0.158044,-0.417689 0.101601,-0.124178 0.304801,-0.124178 0.214489,0 0.270933,0.1016 0.06773,0.09031 0.158045,0.51929 0.04516,-0.225778 0.361245,-0.41769 0.316089,-0.191911 0.846667,-0.191911 1.151468,0 1.636891,0.835379 0.485423,0.835378 0.485423,1.975557 0,1.12889 -0.666046,1.794935 -0.654756,0.654757 -1.806224,0.654757 z m -0.857956,-3.38667 v 2.099735 q 0.06773,0.03387 0.158045,0.112889 0.327378,0.293511 0.7112,0.293511 1.557869,0 1.557869,-1.603023 0,-1.365957 -0.699912,-1.727202 -0.293512,-0.158045 -0.72249,-0.158045 -0.417689,0.05645 -0.711201,0.372534 -0.293511,0.3048 -0.293511,0.609601 z"
         id="path1373" /><path
         d="m 62.32848,11.35126 0.564445,0.01129 q 0.191911,0 0.214489,-0.01129 V 9.0370355 q 0.01129,-0.1919113 0.191911,-0.3273781 0.180623,-0.1354668 0.338667,-0.1354668 0.158045,0 0.248356,0.1016001 0.1016,0.1016001 0.09031,0.3160892 -0.01129,0.2144891 -0.01129,2.3480911 l 1.320802,-0.04515 q 0.338667,0 0.338667,0.395111 0,0.293512 -0.180623,0.440267 -0.169333,0.146756 -0.372533,0.158045 -0.191912,0.01129 -0.383823,0.01129 l -0.688623,-0.01129 q 0,0.462845 0.09031,1.828802 0.1016,1.365957 0.158045,1.772357 0.05644,0.395112 0.02258,0.519289 -0.03387,0.112889 -0.124178,0.158045 -0.146756,0.06773 -0.395112,0.06773 -0.248356,0 -0.293511,-0.270933 -0.225778,-1.478846 -0.3048,-4.064004 -0.101601,0.01129 -0.778935,0.01129 -0.677334,0 -0.677334,-0.395112 0,-0.564445 0.632179,-0.564445 z"
         id="path1375" /></g></g><style
     id="style1002"
     type="text/css">
	.st0{clip-path:url(#SVGID_2_);fill:#4967A9;}
</style></svg>
