<?xml version="1.0" encoding="UTF-8" standalone="no"?>
<!-- Created with Inkscape (http://www.inkscape.org/) -->

<svg
   width="418"
   height="148"
   viewBox="0 0 110.59616 39.158333"
   version="1.1"
   id="svg80"
   sodipodi:docname="lua.svg"
   inkscape:version="1.2.2 (b0a8486541, 2022-12-01)"
   xml:space="preserve"
   xmlns:inkscape="http://www.inkscape.org/namespaces/inkscape"
   xmlns:sodipodi="http://sodipodi.sourceforge.net/DTD/sodipodi-0.dtd"
   xmlns:xlink="http://www.w3.org/1999/xlink"
   xmlns="http://www.w3.org/2000/svg"
   xmlns:svg="http://www.w3.org/2000/svg"
   xmlns:rdf="http://www.w3.org/1999/02/22-rdf-syntax-ns#"
   xmlns:cc="http://creativecommons.org/ns#"
   xmlns:dc="http://purl.org/dc/elements/1.1/"><sodipodi:namedview
     id="namedview62"
     pagecolor="#ffffff"
     bordercolor="#000000"
     borderopacity="0.25"
     inkscape:showpageshadow="2"
     inkscape:pageopacity="0.0"
     inkscape:pagecheckerboard="0"
     inkscape:deskcolor="#d1d1d1"
     showgrid="false"
     inkscape:zoom="3.6435407"
     inkscape:cx="170.71306"
     inkscape:cy="60.792514"
     inkscape:window-width="2560"
     inkscape:window-height="1400"
     inkscape:window-x="0"
     inkscape:window-y="40"
     inkscape:window-maximized="1"
     inkscape:current-layer="layer1" /><defs
     id="defs74"><linearGradient
       id="linearGradient1033"><stop
         style="stop-color:#000000;stop-opacity:1;"
         offset="0"
         id="stop1031" /></linearGradient><linearGradient
       id="linearGradient1027"><stop
         style="stop-color:#000000;stop-opacity:1;"
         offset="0"
         id="stop1025" /></linearGradient><clipPath
       id="SVGID_2_"><use
         xlink:href="#SVGID_1_"
         style="overflow:visible"
         id="use1007"
         x="0"
         y="0"
         width="100%"
         height="100%" /></clipPath><clipPath
       id="SVGID_2_-3"><use
         xlink:href="#SVGID_1_"
         style="overflow:visible"
         id="use1007-6"
         x="0"
         y="0"
         width="100%"
         height="100%" /></clipPath><clipPath
       id="SVGID_2_-5"><use
         xlink:href="#SVGID_1_"
         style="overflow:visible"
         id="use1007-3"
         x="0"
         y="0"
         width="100%"
         height="100%" /></clipPath><clipPath
       id="SVGID_2_-6"><use
         xlink:href="#SVGID_1_"
         style="overflow:visible"
         id="use1007-2"
         x="0"
         y="0"
         width="100%"
         height="100%" /></clipPath><clipPath
       id="SVGID_2_-1"><use
         xlink:href="#SVGID_1_"
         style="overflow:visible"
         id="use1007-27"
         x="0"
         y="0"
         width="100%"
         height="100%" /></clipPath><clipPath
       id="SVGID_2_-9"><use
         xlink:href="#SVGID_1_"
         style="overflow:visible"
         id="use1007-36"
         x="0"
         y="0"
         width="100%"
         height="100%" /></clipPath><clipPath
       id="SVGID_2_-2"><use
         xlink:href="#SVGID_1_"
         style="overflow:visible"
         id="use1007-61"
         x="0"
         y="0"
         width="100%"
         height="100%" /></clipPath><clipPath
       id="SVGID_2_-7"><use
         xlink:href="#SVGID_1_"
         style="overflow:visible"
         id="use1007-9"
         x="0"
         y="0"
         width="100%"
         height="100%" /></clipPath><clipPath
       id="SVGID_2_-0"><use
         xlink:href="#SVGID_1_"
         style="overflow:visible"
         id="use1007-23"
         x="0"
         y="0"
         width="100%"
         height="100%" /></clipPath><clipPath
       id="SVGID_2_-92"><use
         xlink:href="#SVGID_1_"
         style="overflow:visible"
         id="use1007-28"
         x="0"
         y="0"
         width="100%"
         height="100%" /></clipPath><clipPath
       id="SVGID_2_-36"><use
         xlink:href="#SVGID_1_"
         style="overflow:visible"
         id="use1007-1"
         x="0"
         y="0"
         width="100%"
         height="100%" /></clipPath><clipPath
       id="SVGID_2_-31"><use
         xlink:href="#SVGID_1_"
         style="overflow:visible"
         id="use1007-94"
         x="0"
         y="0"
         width="100%"
         height="100%" /></clipPath><clipPath
       id="SVGID_2_-4"><use
         xlink:href="#SVGID_1_"
         style="overflow:visible"
         id="use1007-5"
         x="0"
         y="0"
         width="100%"
         height="100%" /></clipPath><clipPath
       id="SVGID_2_-61"><use
         xlink:href="#SVGID_1_"
         style="overflow:visible"
         id="use1007-0"
         x="0"
         y="0"
         width="100%"
         height="100%" /></clipPath><clipPath
       id="SVGID_2_-32"><use
         xlink:href="#SVGID_1_"
         style="overflow:visible"
         id="use1007-06"
         x="0"
         y="0"
         width="100%"
         height="100%" /></clipPath><rect
       x="0"
       height="12.9"
       width="66.900002"
       y="0"
       id="SVGID_1_" /><clipPath
       id="clipPath4674"
       clipPathUnits="userSpaceOnUse"><path
         id="path4676"
         d="M 0,500 H 1024 V 0 H 0 Z" /></clipPath><linearGradient
       xlink:href="#linearGradient1027"
       id="linearGradient1029"
       x1="-1.2029998"
       y1="14.334795"
       x2="10.983719"
       y2="14.334795"
       gradientUnits="userSpaceOnUse" /><linearGradient
       xlink:href="#linearGradient1033"
       id="linearGradient1035"
       x1="-8.780899"
       y1="14.330109"
       x2="20.15568"
       y2="14.330109"
       gradientUnits="userSpaceOnUse"
       gradientTransform="translate(0.45401091,0.02964271)" /><linearGradient
       xlink:href="#linearGradient1027"
       id="linearGradient2569"
       gradientUnits="userSpaceOnUse"
       x1="-1.2029998"
       y1="14.334795"
       x2="10.983719"
       y2="14.334795" /><linearGradient
       inkscape:collect="always"
       xlink:href="#linearGradient1027"
       id="linearGradient327"
       gradientUnits="userSpaceOnUse"
       x1="-1.2029998"
       y1="14.334795"
       x2="10.983719"
       y2="14.334795"
       gradientTransform="translate(-5.9493788,-4.1862466)" /><linearGradient
       inkscape:collect="always"
       xlink:href="#linearGradient1027"
       id="linearGradient511"
       gradientUnits="userSpaceOnUse"
       gradientTransform="translate(-5.9493788,-4.1862466)"
       x1="-1.2029998"
       y1="14.334795"
       x2="10.983719"
       y2="14.334795" /><linearGradient
       inkscape:collect="always"
       xlink:href="#linearGradient1027"
       id="linearGradient577"
       gradientUnits="userSpaceOnUse"
       gradientTransform="translate(-3.4544986,-6.7882418)"
       x1="-1.2029998"
       y1="14.334795"
       x2="10.983719"
       y2="14.334795" /></defs><metadata
     id="metadata77"><rdf:RDF><cc:Work
         rdf:about=""><dc:format>image/svg+xml</dc:format><dc:type
           rdf:resource="http://purl.org/dc/dcmitype/StillImage" /></cc:Work></rdf:RDF></metadata><g
     id="layer1"
     transform="translate(13.842136,5.2194147)"><rect
       style="fill:#00007e;fill-opacity:1;stroke:url(#linearGradient1035);stroke-width:0.79375;stroke-dasharray:none"
       id="rect303"
       width="28.936579"
       height="29.187744"
       x="-8.3268881"
       y="-0.23412026"
       ry="14.468289" /><g
       aria-label="Lua"
       id="text1101"
       style="font-size:19.7556px;-inkscape-font-specification:sans-serif;fill:#00ff00;stroke-width:0.79375"><path
         d="m -4.9019726,18.024416 0.019756,-1.540936 0.1778004,-8.2578411 q 0,-0.2370672 0.2568228,-0.3753564 0.2568228,-0.1382892 0.6519348,-0.1382892 0.9482688,0 0.9482688,0.6716904 0,0.2173116 -0.2370672,3.3189403 -0.2173116,3.10163 -0.2173116,3.714053 0,0 0,2.094094 0,1.48167 0.197556,1.619959 0.296334,0.09878 0.691446,0.09878 l 2.84480641,-0.197556 q 0.92851319,0 0.92851319,0.67169 0,0.533402 -0.51364559,0.790224 -0.49389,0.237068 -0.98778,0.276579 -0.49389,0.01975 -1.20509161,0.01975 -3.1016292,0 -3.358452,-0.197556 -0.1382892,-0.118533 -0.1580448,-0.889002 -0.019756,-0.790224 -0.039511,-1.106313 0,-0.31609 0,-0.572913 z"
         style="font-family:'Patrick Hand';-inkscape-font-specification:'Patrick Hand';fill:#ffffff"
         id="path1830" /><path
         d="m 2.624906,12.315048 q 0.079022,-0.335845 0.3358452,-0.553157 0.2568228,-0.237067 0.5136456,-0.237067 0.2765784,0 0.4148676,0.09878 0.1580448,0.09878 0.1778004,0.1778 0.039511,0.07902 0.079022,0.276579 -0.1185336,1.540937 -0.1185336,2.785539 0,1.224848 0.296334,2.825051 0.296334,1.580448 0.6519348,1.580448 0.5334012,0 1.3433808,-0.592668 0.8297352,-0.592668 1.185336,-1.244603 -0.2370672,-2.844806 -0.2370672,-4.879633 0,-0.414867 0.2568228,-0.711201 0.2765784,-0.296334 0.6519348,-0.296334 0.6124236,0 0.6124236,0.829735 0,1.402647 0.197556,4.168431 0.2173116,2.765784 0.4346232,3.516497 0.039511,0.158045 0.039511,0.375357 0,0.197556 -0.2765784,0.375356 -0.2568228,0.197556 -0.691446,0.197556 -0.4148676,0 -0.5531568,-0.474134 -0.039511,-0.395112 -0.197556,-1.185336 -1.382892,1.442158 -2.7855396,1.442158 -0.6519348,0 -1.1655804,-0.49389 -0.5136456,-0.49389 -0.8099796,-1.34338 -0.5136456,-1.639715 -0.5136456,-3.081874 0,-1.442159 0.1580448,-3.556008 z"
         style="font-family:'Patrick Hand';-inkscape-font-specification:'Patrick Hand';fill:#ffffff"
         id="path1832" /><path
         d="m 16.078462,11.54458 q 0.869246,0 0.869246,1.48167 0,0.158044 0,0.335845 l -0.03951,1.382892 q -0.01976,0.651935 -0.01976,1.284114 l 0.296334,4.464765 q 0,0.49389 -1.007535,0.49389 -0.05927,0 -0.296334,0 -0.217312,0 -0.31609,-0.1778 -0.07902,-0.1778 -0.01975,-0.434623 0.07902,-0.256823 -0.03951,-0.572913 -0.908757,0.968025 -2.410183,0.968025 -2.785539,0 -2.785539,-4.306721 0,-2.390428 0.889002,-3.615275 0.908757,-1.224847 2.587983,-1.224847 0.790224,0 1.580448,0.276578 0.256823,-0.3556 0.711202,-0.3556 z m -2.054583,1.797759 q -1.126069,0 -1.679226,0.651935 -0.553156,0.651935 -0.553156,2.390428 0,2.923828 1.580448,2.923828 0.414867,0 0.908757,-0.375356 0.513646,-0.375356 0.711202,-0.849491 0.375356,-1.066802 0.375356,-2.331161 0,-1.264358 -0.316089,-1.83727 -0.296334,-0.572913 -1.027292,-0.572913 z"
         style="font-family:'Patrick Hand';-inkscape-font-specification:'Patrick Hand';fill:#ffffff"
         id="path1834" /></g><g
       transform="matrix(0.26458333,0,0,0.26458333,-786.78129,-477.41915)"
       id="g1026"><defs
         id="defs1005"><rect
           x="0"
           height="12.9"
           width="66.900002"
           y="0"
           id="rect1656" /></defs><clipPath
         id="SVGID_2_-67"><use
           height="100%"
           width="100%"
           y="0"
           x="0"
           id="use1007-365"
           style="overflow:visible"
           xlink:href="#SVGID_1_" /></clipPath></g><text
       xml:space="preserve"
       style="font-style:normal;font-variant:normal;font-weight:normal;font-stretch:normal;font-size:4.23333px;line-height:1.25;font-family:'SF Cartoonist Hand SC';-inkscape-font-specification:'SF Cartoonist Hand SC';font-variant-ligatures:normal;font-variant-caps:normal;font-variant-numeric:normal;font-feature-settings:normal;text-align:start;letter-spacing:0px;word-spacing:0px;writing-mode:lr-tb;text-anchor:start;fill:#000000;fill-opacity:1;stroke:none;stroke-width:0.264583"
       x="2.0215223"
       y="-6.5003476"
       id="text1669" /><text
       id="text1673"
       y="25.431738"
       x="13.260739"
       style="font-style:normal;font-variant:normal;font-weight:600;font-stretch:normal;font-size:7.00594px;line-height:1.25;font-family:'URW Gothic L';-inkscape-font-specification:'URW Gothic L Semi-Bold';font-variant-ligatures:normal;font-variant-caps:normal;font-variant-numeric:normal;font-feature-settings:normal;text-align:start;letter-spacing:0px;word-spacing:0px;writing-mode:lr-tb;text-anchor:start;fill:#000000;fill-opacity:1;stroke:none;stroke-width:0.437871"
       xml:space="preserve" /><g
       aria-label="’d"
       style="font-style:normal;font-variant:normal;font-weight:bold;font-stretch:normal;font-size:9.72288px;line-height:1.25;font-family:'Open Sans Condensed';-inkscape-font-specification:'Open Sans Condensed, Bold';font-variant-ligatures:normal;font-variant-caps:normal;font-variant-numeric:normal;font-feature-settings:normal;text-align:start;letter-spacing:-0.0767292px;word-spacing:0px;writing-mode:lr-tb;text-anchor:start;fill:#ffffff;fill-opacity:1;stroke:none;stroke-width:0.60768"
       id="text1677" /><g
       aria-label="Lua programming
language"
       id="text1774"
       style="font-size:11.2889px;font-family:'Patrick Hand';-inkscape-font-specification:'Patrick Hand';fill:#00007e;stroke-width:0.396876"><path
         d="m 25.763001,7.7049451 0.01129,-0.8805343 0.1016,-4.7187603 q 0,-0.1354668 0.146755,-0.2144891 0.146756,-0.079022 0.372534,-0.079022 0.541867,0 0.541867,0.3838226 0,0.1241779 -0.135466,1.8965352 -0.124178,1.7723574 -0.124178,2.1223133 0,0 0,1.1966234 0,0.8466676 0.112889,0.9256899 0.169333,0.056444 0.395111,0.056444 l 1.625602,-0.112889 q 0.530578,0 0.530578,0.3838226 0,0.3048003 -0.293511,0.451556 -0.282223,0.1354668 -0.564445,0.1580446 -0.282223,0.011289 -0.688623,0.011289 -1.772358,0 -1.919113,-0.112889 -0.07902,-0.067733 -0.09031,-0.5080005 -0.01129,-0.451556 -0.02258,-0.6321784 0,-0.1806224 0,-0.3273781 z"
         id="path1837" /><path
         d="m 30.064069,4.4424529 q 0.04516,-0.1919114 0.191911,-0.3160893 0.146756,-0.1354668 0.293512,-0.1354668 0.158044,0 0.237067,0.056445 0.09031,0.056444 0.1016,0.1016001 0.02258,0.045156 0.04515,0.1580446 -0.06773,0.8805343 -0.06773,1.591735 0,0.6999118 0.169333,1.6143128 0.169334,0.903112 0.372534,0.903112 0.3048,0 0.767645,-0.338667 0.474134,-0.338667 0.677334,-0.7112008 -0.135466,-1.6256016 -0.135466,-2.7883583 0,-0.237067 0.146755,-0.4064005 0.158045,-0.1693335 0.372534,-0.1693335 0.349956,0 0.349956,0.4741339 0,0.8015119 0.112889,2.3819579 0.124178,1.5804461 0.248356,2.0094243 0.02258,0.090311 0.02258,0.2144891 0,0.112889 -0.158045,0.2144891 -0.146756,0.112889 -0.395112,0.112889 -0.237066,0 -0.316089,-0.2709336 -0.02258,-0.225778 -0.112889,-0.677334 -0.790223,0.8240897 -1.591735,0.8240897 -0.372533,0 -0.666045,-0.2822225 -0.293511,-0.2822225 -0.462845,-0.7676452 -0.293511,-0.9369788 -0.293511,-1.7610685 0,-0.8240897 0.09031,-2.032002 z"
         id="path1839" /><path
         d="m 37.751806,4.0021857 q 0.496711,0 0.496711,0.8466676 0,0.090311 0,0.1919113 l -0.02258,0.790223 q -0.01129,0.3725337 -0.01129,0.7337785 l 0.169333,2.5512915 q 0,0.2822225 -0.575734,0.2822225 -0.03387,0 -0.169333,0 -0.124178,0 -0.180623,-0.1016001 -0.04516,-0.1016001 -0.01129,-0.2483558 0.04516,-0.1467557 -0.02258,-0.3273781 -0.51929,0.5531561 -1.377246,0.5531561 -1.591735,0 -1.591735,-2.4609803 0,-1.3659569 0.508,-2.0658687 0.51929,-0.6999119 1.478846,-0.6999119 0.451556,0 0.903112,0.1580446 0.146756,-0.2032002 0.406401,-0.2032002 z m -1.174046,1.02729 q -0.643467,0 -0.959556,0.3725337 -0.31609,0.3725337 -0.31609,1.3659569 0,1.6707573 0.903113,1.6707573 0.237066,0 0.519289,-0.2144891 0.293511,-0.2144891 0.4064,-0.4854227 0.214489,-0.6096007 0.214489,-1.3320903 0,-0.7224896 -0.180622,-1.0498677 Q 36.99545,5.0294757 36.57776,5.0294757 Z"
         id="path1841" /><path
         d="m 43.407542,9.2628133 q -0.383822,0 -0.711201,-0.2596447 0,0 -0.146755,-0.1241779 v 3.3866703 q -0.06773,0.225778 -0.237067,0.372534 -0.169334,0.158044 -0.361245,0.158044 -0.293511,0 -0.293511,-0.395111 V 4.5327641 q 0.06773,-0.2935115 0.158044,-0.4176894 0.1016,-0.1241779 0.304801,-0.1241779 0.214489,0 0.270933,0.1016001 0.06773,0.090311 0.158045,0.5192895 0.04516,-0.2257781 0.361245,-0.4176894 0.316089,-0.1919113 0.846667,-0.1919113 1.151468,0 1.636891,0.8353787 0.485422,0.8353786 0.485422,1.9755575 0,1.1288901 -0.666045,1.7949352 -0.654756,0.6547562 -1.806224,0.6547562 z M 42.549586,5.8761432 v 2.0997355 q 0.06773,0.033867 0.158044,0.112889 0.327378,0.2935114 0.711201,0.2935114 1.557868,0 1.557868,-1.6030239 0,-1.3659569 -0.699912,-1.7272017 -0.293511,-0.1580446 -0.722489,-0.1580446 -0.417689,0.056444 -0.711201,0.3725337 -0.293511,0.3048003 -0.293511,0.6096006 z"
         id="path1843" /><path
         d="m 47.911808,7.6259228 0.01129,1.1627567 q 0,0.2032002 -0.191911,0.3725337 -0.180623,0.1693335 -0.361245,0.1693335 -0.259645,0 -0.327378,-0.4064004 -0.01129,-0.090311 -0.09031,-1.6481795 -0.07902,-1.5691571 -0.304801,-2.4609802 -0.1016,-0.4289783 -0.1016,-0.5080006 0,-0.3725337 0.451556,-0.3725337 0.191911,0 0.3048,0.1467557 0.112889,0.1467557 0.135467,0.3048003 0.03387,0.1467558 0.05644,0.4064005 0.02258,0.2596447 0.03387,0.3273781 0.237067,-0.564445 0.711201,-0.8466676 0.474134,-0.2822225 1.038579,-0.2822225 0.92569,0 0.92569,0.4741339 0,0.2370669 -0.169334,0.3838226 -0.158044,0.1354668 -0.372533,0.1354668 -0.959557,0 -1.354668,0.6096006 -0.395112,0.6096006 -0.395112,2.0320021 z"
         id="path1845" /><path
         d="m 52.799903,4.0134746 q 0.812801,0 1.33209,0.7789342 0.530579,0.7789341 0.530579,1.8739574 0,1.0837345 -0.541868,1.8513797 -0.530578,0.7676452 -1.422401,0.7676452 -0.880534,0 -1.422402,-0.7789341 -0.541867,-0.790223 -0.541867,-1.7497796 0,-1.2304901 0.496712,-1.9642686 0.530578,-0.7789342 1.569157,-0.7789342 z m -0.135467,0.9256899 q -0.474134,0 -0.778934,0.4967116 -0.3048,0.4967116 -0.3048,1.0498677 0,0.8579564 0.338667,1.3095125 0.338667,0.451556 0.767645,0.451556 0.767645,0 0.982134,-0.6660451 0.09031,-0.3160893 0.09031,-0.7902231 0,-1.8513796 -1.095023,-1.8513796 z"
         id="path1847" /><path
         d="m 58.591109,8.8112573 q -0.4064,0.4741338 -1.02729,0.4741338 -0.620889,0 -1.072445,-0.3838226 -0.948268,-0.7337785 -0.948268,-2.2464912 0,-1.1853345 0.654756,-1.8965352 0.654756,-0.7224897 1.614313,-0.7224897 0.959556,0 1.309512,0.6547563 0.304801,0.5757339 0.304801,1.7384906 l -0.02258,0.9256898 q 0,0.6547563 0.05644,1.817513 0.06773,1.1514679 0.06773,1.7384909 0,0.970845 -0.485423,1.422401 -0.474134,0.462845 -1.456268,0.462845 -0.587023,0 -1.196624,-0.248356 -0.6096,-0.248355 -0.6096,-0.575734 0,-0.237067 0.124178,-0.361244 0.135467,-0.124178 0.3048,-0.124178 0.169334,0 0.756356,0.248355 0.598312,0.248356 0.857957,0.248356 0.812801,0 0.812801,-1.33209 0,-1.3320902 -0.04516,-1.8400907 z m -0.01129,-2.381958 q 0,-0.8240897 -0.248356,-1.1514678 -0.237067,-0.338667 -0.756356,-0.338667 -0.519289,0 -0.835379,0.4741338 -0.316089,0.4741338 -0.316089,1.2079123 0,0.7224896 0.293512,1.1514679 0.3048,0.4289782 0.925689,0.4289782 0.62089,0 0.801512,-0.5305783 0.135467,-0.4289783 0.135467,-1.2417791 z"
         id="path1849" /><path
         d="m 61.831019,7.6259228 0.01129,1.1627567 q 0,0.2032002 -0.191911,0.3725337 -0.180622,0.1693335 -0.361245,0.1693335 -0.259644,0 -0.327378,-0.4064004 -0.01129,-0.090311 -0.09031,-1.6481795 -0.07902,-1.5691571 -0.3048,-2.4609802 -0.1016,-0.4289783 -0.1016,-0.5080006 0,-0.3725337 0.451556,-0.3725337 0.191911,0 0.3048,0.1467557 0.112889,0.1467557 0.135467,0.3048003 0.03387,0.1467558 0.05644,0.4064005 0.02258,0.2596447 0.03387,0.3273781 0.237067,-0.564445 0.711201,-0.8466676 0.474133,-0.2822225 1.038578,-0.2822225 0.92569,0 0.92569,0.4741339 0,0.2370669 -0.169333,0.3838226 -0.158045,0.1354668 -0.372534,0.1354668 -0.959556,0 -1.354668,0.6096006 -0.395111,0.6096006 -0.395111,2.0320021 z"
         id="path1851" /><path
         d="m 67.870583,4.0021857 q 0.496712,0 0.496712,0.8466676 0,0.090311 0,0.1919113 l -0.02258,0.790223 q -0.01129,0.3725337 -0.01129,0.7337785 l 0.169334,2.5512915 q 0,0.2822225 -0.575734,0.2822225 -0.03387,0 -0.169334,0 -0.124178,0 -0.180622,-0.1016001 -0.04516,-0.1016001 -0.01129,-0.2483558 0.04516,-0.1467557 -0.02258,-0.3273781 -0.519289,0.5531561 -1.377246,0.5531561 -1.591735,0 -1.591735,-2.4609803 0,-1.3659569 0.508001,-2.0658687 0.519289,-0.6999119 1.478846,-0.6999119 0.451556,0 0.903112,0.1580446 0.146755,-0.2032002 0.4064,-0.2032002 z m -1.174045,1.02729 q -0.643468,0 -0.959557,0.3725337 -0.316089,0.3725337 -0.316089,1.3659569 0,1.6707573 0.903112,1.6707573 0.237067,0 0.519289,-0.2144891 0.293512,-0.2144891 0.406401,-0.4854227 0.214489,-0.6096007 0.214489,-1.3320903 0,-0.7224896 -0.180623,-1.0498677 -0.169333,-0.3273781 -0.587022,-0.3273781 z"
         id="path1853" /><path
         d="m 69.789698,9.2853911 q -0.293511,0 -0.349956,-0.3273781 0,-2.2803579 -0.270933,-4.0640041 0,-0.225778 0.158044,-0.4064004 0.169334,-0.1806225 0.372534,-0.1806225 0.214489,0 0.316089,0.237067 0.41769,-0.5531562 1.117601,-0.5531562 0.891824,0 1.377246,0.8579565 0.564445,-0.8128009 1.490135,-0.8128009 0.936979,0 1.399824,0.7450675 0.3048,0.4628449 0.428978,1.2192012 0.124178,0.7563563 0.124178,2.1448911 0,0.5418672 -0.112889,0.8466675 -0.112889,0.2935114 -0.474134,0.2935114 -0.293511,0 -0.293511,-0.3725337 l 0.03387,-1.4111125 q 0,-2.5400026 -1.320801,-2.5400026 -0.417689,0 -0.587023,0.2935114 -0.191911,0.3499559 -0.225778,0.7337785 -0.04515,0.677334 -0.04515,1.2304901 v 1.6368906 q 0,0.1806224 -0.180623,0.3048003 -0.180622,0.1241779 -0.372534,0.1241779 -0.248355,0 -0.316089,-0.3273781 l 0.03387,-2.3368024 q 0,-1.241779 -0.417689,-1.5465793 -0.203201,-0.1467557 -0.62089,-0.1467557 -0.4064,0 -0.609601,0.3048003 -0.191911,0.3048003 -0.191911,0.9821343 l 0.06773,2.0997355 q 0,0.9708454 -0.530579,0.9708454 z"
         id="path1855" /><path
         d="m 77.466155,9.2853911 q -0.293512,0 -0.349956,-0.3273781 0,-2.2803579 -0.270934,-4.0640041 0,-0.225778 0.158045,-0.4064004 0.169333,-0.1806225 0.372534,-0.1806225 0.214489,0 0.316089,0.237067 0.417689,-0.5531562 1.117601,-0.5531562 0.891823,0 1.377246,0.8579565 0.564445,-0.8128009 1.490135,-0.8128009 0.936978,0 1.399823,0.7450675 0.304801,0.4628449 0.428978,1.2192012 0.124178,0.7563563 0.124178,2.1448911 0,0.5418672 -0.112889,0.8466675 -0.112889,0.2935114 -0.474133,0.2935114 -0.293512,0 -0.293512,-0.3725337 l 0.03387,-1.4111125 q 0,-2.5400026 -1.320802,-2.5400026 -0.417689,0 -0.587022,0.2935114 -0.191912,0.3499559 -0.225778,0.7337785 -0.04516,0.677334 -0.04516,1.2304901 v 1.6368906 q 0,0.1806224 -0.180622,0.3048003 -0.180623,0.1241779 -0.372534,0.1241779 -0.248356,0 -0.316089,-0.3273781 l 0.03387,-2.3368024 q 0,-1.241779 -0.417689,-1.5465793 -0.2032,-0.1467557 -0.620889,-0.1467557 -0.406401,0 -0.609601,0.3048003 Q 77.929,5.5374762 77.929,6.2148102 l 0.06773,2.0997355 q 0,0.9708454 -0.530578,0.9708454 z"
         id="path1857" /><path
         d="m 85.244211,2.1395172 q 0.2032,0 0.383823,0.1919113 0.180622,0.1919113 0.180622,0.4064004 0,0.2032002 -0.2032,0.4176893 -0.191911,0.2144891 -0.4064,0.2144891 -0.214489,0 -0.395112,-0.1806224 -0.169333,-0.1806224 -0.169333,-0.4628449 0,-0.5418672 0.587022,-0.5870228 0.01129,0 0.02258,0 z m 0.474134,5.9153838 0.01129,0.790223 q 0,0.2144891 -0.169334,0.3612448 -0.169333,0.1354668 -0.361244,0.1354668 -0.282223,0 -0.293512,-0.2822225 -0.146755,-3.6011592 -0.146755,-3.9849818 0,-0.3838226 0.03387,-0.9369788 0.02258,-0.2032002 0.259645,-0.2032002 0.598312,0 0.677334,0.4854227 0.03387,0.2483559 0.03387,0.3951116 l -0.04516,0.7112007 z"
         id="path1859" /><path
         d="M 87.456843,8.9241463 87.332665,4.3408527 q 0,-0.2144891 0.146756,-0.3499559 0.146755,-0.1354668 0.293511,-0.1354668 0.361245,0 0.417689,0.3048003 0.04516,0.3048004 0.04516,0.6321785 0.609601,-0.801512 1.524002,-0.801512 1.399823,0 1.399823,3.1947588 0,0.2935115 0,0.8918232 0,0.5870228 -0.06773,0.8579564 -0.07902,0.338667 -0.485423,0.338667 -0.270933,0 -0.270933,-0.3612448 l 0.01129,-0.6321784 q 0,-1.3095125 -0.09031,-1.7836463 -0.07902,-0.4854227 -0.158044,-0.7676452 -0.191912,-0.6096006 -0.62089,-0.6096006 -0.564445,0 -0.790223,0.4064004 -0.248356,0.4402671 -0.293511,1.0385788 -0.07902,1.0498678 -0.07902,2.2239134 0,0.225778 -0.169333,0.3612448 -0.169334,0.1354668 -0.406401,0.1354668 -0.282222,0 -0.282222,-0.3612448 z"
         id="path1861" /><path
         d="m 95.370356,8.8112573 q -0.4064,0.4741338 -1.02729,0.4741338 -0.620889,0 -1.072445,-0.3838226 -0.948268,-0.7337785 -0.948268,-2.2464912 0,-1.1853345 0.654756,-1.8965352 0.654757,-0.7224897 1.614313,-0.7224897 0.959557,0 1.309513,0.6547563 0.3048,0.5757339 0.3048,1.7384906 l -0.02258,0.9256898 q 0,0.6547563 0.05645,1.817513 0.06773,1.1514679 0.06773,1.7384909 0,0.970845 -0.485423,1.422401 -0.474133,0.462845 -1.456268,0.462845 -0.587023,0 -1.196623,-0.248356 -0.609601,-0.248355 -0.609601,-0.575734 0,-0.237067 0.124178,-0.361244 0.135467,-0.124178 0.3048,-0.124178 0.169334,0 0.756357,0.248355 0.598311,0.248356 0.857956,0.248356 0.812801,0 0.812801,-1.33209 0,-1.3320902 -0.04516,-1.8400907 z m -0.01129,-2.381958 q 0,-0.8240897 -0.248355,-1.1514678 -0.237067,-0.338667 -0.756357,-0.338667 -0.519289,0 -0.835378,0.4741338 -0.31609,0.4741338 -0.31609,1.2079123 0,0.7224896 0.293512,1.1514679 0.3048,0.4289782 0.92569,0.4289782 0.620889,0 0.801512,-0.5305783 0.135466,-0.4289783 0.135466,-1.2417791 z"
         id="path1863" /><path
         d="m 25.853312,16.081309 q 0.03387,-0.428978 0.135467,-0.553156 0.112889,-0.135467 0.349956,-0.135467 0.485422,0 0.485422,0.395112 0,0.3048 -0.05644,1.591735 -0.04516,1.286934 -0.04516,2.302935 0,1.016001 0.07902,1.636891 0.135466,1.083734 0.383822,1.083734 0.248356,0 0.372534,-0.349956 0.05644,-0.135466 0.180622,-0.237066 0.124178,-0.112889 0.31609,-0.112889 0.395111,0 0.395111,0.666045 0,0.361244 -0.395111,0.722489 -0.383823,0.349956 -0.767646,0.349956 -0.383822,0 -0.620889,-0.124178 -0.225778,-0.135467 -0.372534,-0.395111 -0.135467,-0.259645 -0.225778,-0.496712 -0.07902,-0.248356 -0.112889,-0.598312 -0.06773,-0.564445 -0.1016,-1.806224 -0.02258,-1.253068 -0.02258,-2.381958 0,-1.140179 0.02258,-1.557868 z"
         id="path1865" /><path
         d="m 32.039638,18.113311 q 0.496712,0 0.496712,0.846668 0,0.09031 0,0.191911 l -0.02258,0.790223 q -0.01129,0.372534 -0.01129,0.733779 l 0.169333,2.551291 q 0,0.282223 -0.575734,0.282223 -0.03387,0 -0.169333,0 -0.124178,0 -0.180623,-0.101601 -0.04516,-0.1016 -0.01129,-0.248355 0.04516,-0.146756 -0.02258,-0.327378 -0.51929,0.553156 -1.377246,0.553156 -1.591735,0 -1.591735,-2.460981 0,-1.365957 0.508,-2.065868 0.51929,-0.699912 1.478846,-0.699912 0.451556,0 0.903112,0.158044 0.146756,-0.2032 0.406401,-0.2032 z m -1.174046,1.02729 q -0.643467,0 -0.959556,0.372534 -0.316089,0.372534 -0.316089,1.365957 0,1.670757 0.903112,1.670757 0.237066,0 0.519289,-0.214489 0.293511,-0.214489 0.4064,-0.485423 0.214489,-0.6096 0.214489,-1.33209 0,-0.72249 -0.180622,-1.049868 -0.169333,-0.327378 -0.587023,-0.327378 z"
         id="path1867" /><path
         d="m 33.744264,23.035272 -0.124178,-4.583294 q 0,-0.214489 0.146756,-0.349956 0.146756,-0.135466 0.293511,-0.135466 0.361245,0 0.41769,0.3048 0.04516,0.3048 0.04516,0.632178 0.609601,-0.801512 1.524002,-0.801512 1.399823,0 1.399823,3.194759 0,0.293512 0,0.891823 0,0.587023 -0.06773,0.857957 -0.07902,0.338667 -0.485423,0.338667 -0.270933,0 -0.270933,-0.361245 l 0.01129,-0.632179 q 0,-1.309512 -0.09031,-1.783646 -0.07902,-0.485423 -0.158044,-0.767645 -0.191911,-0.609601 -0.62089,-0.609601 -0.564445,0 -0.790223,0.406401 -0.248356,0.440267 -0.293511,1.038579 -0.07902,1.049867 -0.07902,2.223913 0,0.225778 -0.169334,0.361245 -0.169333,0.135467 -0.4064,0.135467 -0.282223,0 -0.282223,-0.361245 z"
         id="path1869" /><path
         d="m 41.657779,22.922383 q -0.4064,0.474134 -1.027289,0.474134 -0.62089,0 -1.072446,-0.383823 -0.948268,-0.733779 -0.948268,-2.246491 0,-1.185335 0.654757,-1.896535 0.654756,-0.72249 1.614312,-0.72249 0.959557,0 1.309513,0.654756 0.3048,0.575734 0.3048,1.738491 l -0.02258,0.92569 q 0,0.654756 0.05645,1.817513 0.06773,1.151467 0.06773,1.73849 0,0.970846 -0.485423,1.422402 -0.474133,0.462845 -1.456268,0.462845 -0.587022,0 -1.196623,-0.248356 -0.609601,-0.248356 -0.609601,-0.575734 0,-0.237067 0.124178,-0.361245 0.135467,-0.124178 0.3048,-0.124178 0.169334,0 0.756357,0.248356 0.598312,0.248356 0.857956,0.248356 0.812801,0 0.812801,-1.33209 0,-1.332091 -0.04516,-1.840091 z m -0.01129,-2.381958 q 0,-0.82409 -0.248356,-1.151468 -0.237067,-0.338667 -0.756357,-0.338667 -0.519289,0 -0.835378,0.474134 -0.316089,0.474134 -0.316089,1.207912 0,0.72249 0.293511,1.151468 0.3048,0.428978 0.92569,0.428978 0.620889,0 0.801512,-0.530578 0.135467,-0.428978 0.135467,-1.241779 z"
         id="path1871" /><path
         d="m 43.418844,18.553578 q 0.04516,-0.191911 0.191911,-0.316089 0.146756,-0.135467 0.293512,-0.135467 0.158044,0 0.237067,0.05645 0.09031,0.05644 0.1016,0.1016 0.02258,0.04516 0.04516,0.158045 -0.06773,0.880534 -0.06773,1.591734 0,0.699912 0.169333,1.614313 0.169334,0.903112 0.372534,0.903112 0.3048,0 0.767645,-0.338667 0.474134,-0.338667 0.677334,-0.7112 -0.135466,-1.625602 -0.135466,-2.788359 0,-0.237067 0.146755,-0.4064 0.158045,-0.169334 0.372534,-0.169334 0.349956,0 0.349956,0.474134 0,0.801512 0.112889,2.381958 0.124178,1.580446 0.248356,2.009424 0.02258,0.09031 0.02258,0.214489 0,0.112889 -0.158044,0.214489 -0.146756,0.112889 -0.395112,0.112889 -0.237067,0 -0.316089,-0.270933 -0.02258,-0.225778 -0.112889,-0.677334 -0.790223,0.82409 -1.591735,0.82409 -0.372534,0 -0.666045,-0.282223 -0.293511,-0.282222 -0.462845,-0.767645 -0.293511,-0.936979 -0.293511,-1.761069 0,-0.824089 0.09031,-2.032002 z"
         id="path1873" /><path
         d="m 51.106581,18.113311 q 0.496712,0 0.496712,0.846668 0,0.09031 0,0.191911 l -0.02258,0.790223 q -0.01129,0.372534 -0.01129,0.733779 l 0.169334,2.551291 q 0,0.282223 -0.575734,0.282223 -0.03387,0 -0.169334,0 -0.124178,0 -0.180622,-0.101601 -0.04516,-0.1016 -0.01129,-0.248355 0.04516,-0.146756 -0.02258,-0.327378 -0.519289,0.553156 -1.377246,0.553156 -1.591735,0 -1.591735,-2.460981 0,-1.365957 0.508001,-2.065868 0.519289,-0.699912 1.478846,-0.699912 0.451556,0 0.903112,0.158044 0.146756,-0.2032 0.4064,-0.2032 z m -1.174045,1.02729 q -0.643468,0 -0.959557,0.372534 -0.316089,0.372534 -0.316089,1.365957 0,1.670757 0.903112,1.670757 0.237067,0 0.519289,-0.214489 0.293512,-0.214489 0.406401,-0.485423 0.214489,-0.6096 0.214489,-1.33209 0,-0.72249 -0.180623,-1.049868 -0.169333,-0.327378 -0.587022,-0.327378 z"
         id="path1875" /><path
         d="m 55.622144,22.922383 q -0.406401,0.474134 -1.02729,0.474134 -0.62089,0 -1.072446,-0.383823 -0.948268,-0.733779 -0.948268,-2.246491 0,-1.185335 0.654757,-1.896535 0.654756,-0.72249 1.614312,-0.72249 0.959557,0 1.309513,0.654756 0.3048,0.575734 0.3048,1.738491 l -0.02258,0.92569 q 0,0.654756 0.05644,1.817513 0.06773,1.151467 0.06773,1.73849 0,0.970846 -0.485422,1.422402 -0.474134,0.462845 -1.456269,0.462845 -0.587022,0 -1.196623,-0.248356 -0.609601,-0.248356 -0.609601,-0.575734 0,-0.237067 0.124178,-0.361245 0.135467,-0.124178 0.304801,-0.124178 0.169333,0 0.756356,0.248356 0.598312,0.248356 0.857956,0.248356 0.812801,0 0.812801,-1.33209 0,-1.332091 -0.04516,-1.840091 z m -0.01129,-2.381958 q 0,-0.82409 -0.248356,-1.151468 -0.237067,-0.338667 -0.756357,-0.338667 -0.519289,0 -0.835378,0.474134 -0.316089,0.474134 -0.316089,1.207912 0,0.72249 0.293511,1.151468 0.3048,0.428978 0.92569,0.428978 0.620889,0 0.801512,-0.530578 0.135467,-0.428978 0.135467,-1.241779 z"
         id="path1877" /><path
         d="m 59.031388,18.158467 q 0.598312,0 1.140179,0.349956 0.541868,0.349956 0.541868,0.869245 0,0.508001 -0.440268,0.993423 -0.440267,0.474134 -1.174045,0.575734 -0.316089,0.04516 -0.948268,0.04516 0.124178,0.959556 0.485423,1.264357 0.112889,0.124178 0.3048,0.124178 0.699912,0 1.174046,-0.440268 0.474134,-0.451556 0.677334,-0.451556 0.09031,0 0.270933,0.169334 0.180623,0.169333 0.180623,0.316089 0,0.293512 -0.711201,0.846668 -0.316089,0.259644 -0.767645,0.440267 -0.440267,0.169333 -0.82409,0.169333 -0.982134,0 -1.444979,-1.264357 -0.293511,-0.778934 -0.293511,-1.715912 0,-0.936979 0.440267,-1.614313 0.440267,-0.677334 1.388534,-0.677334 z m 0.05645,0.778934 q -0.428978,0 -0.733779,0.485423 -0.112889,0.169333 -0.214489,0.767645 1.580446,0 1.580446,-0.778934 0,-0.474134 -0.632178,-0.474134 z"
         id="path1879" /></g><circle
       style="fill:#ffffff;fill-opacity:1;stroke:none;stroke-width:0.396876;stroke-dasharray:none"
       id="path7426"
       cx="11.945727"
       cy="6.1561346"
       r="3.7842398" /><circle
       style="fill:#00007e;fill-opacity:1;stroke:none;stroke-width:0.396876;stroke-dasharray:none"
       id="path7426-3"
       cx="19.448467"
       cy="0.22683871"
       r="3.7842398" /></g><style
     id="style1002"
     type="text/css">
	.st0{clip-path:url(#SVGID_2_);fill:#4967A9;}
</style></svg>
