<?xml version="1.0" encoding="UTF-8" standalone="no"?>
<!-- Created with Inkscape (http://www.inkscape.org/) -->

<svg
   width="418"
   height="148"
   viewBox="0 0 110.59616 39.158333"
   version="1.1"
   id="svg80"
   sodipodi:docname="php.svg"
   inkscape:version="1.2.2 (b0a8486541, 2022-12-01)"
   xmlns:inkscape="http://www.inkscape.org/namespaces/inkscape"
   xmlns:sodipodi="http://sodipodi.sourceforge.net/DTD/sodipodi-0.dtd"
   xmlns:xlink="http://www.w3.org/1999/xlink"
   xmlns="http://www.w3.org/2000/svg"
   xmlns:svg="http://www.w3.org/2000/svg"
   xmlns:rdf="http://www.w3.org/1999/02/22-rdf-syntax-ns#"
   xmlns:cc="http://creativecommons.org/ns#"
   xmlns:dc="http://purl.org/dc/elements/1.1/">
  <sodipodi:namedview
     id="namedview62"
     pagecolor="#ffffff"
     bordercolor="#000000"
     borderopacity="0.25"
     inkscape:showpageshadow="2"
     inkscape:pageopacity="0.0"
     inkscape:pagecheckerboard="0"
     inkscape:deskcolor="#d1d1d1"
     showgrid="false"
     inkscape:zoom="3.6435407"
     inkscape:cx="252.7761"
     inkscape:cy="74.515429"
     inkscape:window-width="2560"
     inkscape:window-height="1400"
     inkscape:window-x="0"
     inkscape:window-y="40"
     inkscape:window-maximized="1"
     inkscape:current-layer="layer1" />
  <defs
     id="defs74">
    <linearGradient
       id="linearGradient1033">
      <stop
         style="stop-color:#000000;stop-opacity:1;"
         offset="0"
         id="stop1031" />
    </linearGradient>
    <linearGradient
       id="linearGradient1027">
      <stop
         style="stop-color:#000000;stop-opacity:1;"
         offset="0"
         id="stop1025" />
    </linearGradient>
    <clipPath
       id="SVGID_2_">
      <use
         xlink:href="#SVGID_1_"
         style="overflow:visible"
         id="use1007"
         x="0"
         y="0"
         width="100%"
         height="100%" />
    </clipPath>
    <clipPath
       id="SVGID_2_-3">
      <use
         xlink:href="#SVGID_1_"
         style="overflow:visible"
         id="use1007-6"
         x="0"
         y="0"
         width="100%"
         height="100%" />
    </clipPath>
    <clipPath
       id="SVGID_2_-5">
      <use
         xlink:href="#SVGID_1_"
         style="overflow:visible"
         id="use1007-3"
         x="0"
         y="0"
         width="100%"
         height="100%" />
    </clipPath>
    <clipPath
       id="SVGID_2_-6">
      <use
         xlink:href="#SVGID_1_"
         style="overflow:visible"
         id="use1007-2"
         x="0"
         y="0"
         width="100%"
         height="100%" />
    </clipPath>
    <clipPath
       id="SVGID_2_-1">
      <use
         xlink:href="#SVGID_1_"
         style="overflow:visible"
         id="use1007-27"
         x="0"
         y="0"
         width="100%"
         height="100%" />
    </clipPath>
    <clipPath
       id="SVGID_2_-9">
      <use
         xlink:href="#SVGID_1_"
         style="overflow:visible"
         id="use1007-36"
         x="0"
         y="0"
         width="100%"
         height="100%" />
    </clipPath>
    <clipPath
       id="SVGID_2_-2">
      <use
         xlink:href="#SVGID_1_"
         style="overflow:visible"
         id="use1007-61"
         x="0"
         y="0"
         width="100%"
         height="100%" />
    </clipPath>
    <clipPath
       id="SVGID_2_-7">
      <use
         xlink:href="#SVGID_1_"
         style="overflow:visible"
         id="use1007-9"
         x="0"
         y="0"
         width="100%"
         height="100%" />
    </clipPath>
    <clipPath
       id="SVGID_2_-0">
      <use
         xlink:href="#SVGID_1_"
         style="overflow:visible"
         id="use1007-23"
         x="0"
         y="0"
         width="100%"
         height="100%" />
    </clipPath>
    <clipPath
       id="SVGID_2_-92">
      <use
         xlink:href="#SVGID_1_"
         style="overflow:visible"
         id="use1007-28"
         x="0"
         y="0"
         width="100%"
         height="100%" />
    </clipPath>
    <clipPath
       id="SVGID_2_-36">
      <use
         xlink:href="#SVGID_1_"
         style="overflow:visible"
         id="use1007-1"
         x="0"
         y="0"
         width="100%"
         height="100%" />
    </clipPath>
    <clipPath
       id="SVGID_2_-31">
      <use
         xlink:href="#SVGID_1_"
         style="overflow:visible"
         id="use1007-94"
         x="0"
         y="0"
         width="100%"
         height="100%" />
    </clipPath>
    <clipPath
       id="SVGID_2_-4">
      <use
         xlink:href="#SVGID_1_"
         style="overflow:visible"
         id="use1007-5"
         x="0"
         y="0"
         width="100%"
         height="100%" />
    </clipPath>
    <clipPath
       id="SVGID_2_-61">
      <use
         xlink:href="#SVGID_1_"
         style="overflow:visible"
         id="use1007-0"
         x="0"
         y="0"
         width="100%"
         height="100%" />
    </clipPath>
    <clipPath
       id="SVGID_2_-32">
      <use
         xlink:href="#SVGID_1_"
         style="overflow:visible"
         id="use1007-06"
         x="0"
         y="0"
         width="100%"
         height="100%" />
    </clipPath>
    <rect
       x="0"
       height="12.9"
       width="66.900002"
       y="0"
       id="SVGID_1_" />
    <clipPath
       id="clipPath4674"
       clipPathUnits="userSpaceOnUse">
      <path
         id="path4676"
         d="M 0,500 H 1024 V 0 H 0 Z" />
    </clipPath>
    <linearGradient
       xlink:href="#linearGradient1027"
       id="linearGradient1029"
       x1="-1.2029998"
       y1="14.334795"
       x2="10.983719"
       y2="14.334795"
       gradientUnits="userSpaceOnUse" />
    <linearGradient
       xlink:href="#linearGradient1033"
       id="linearGradient1035"
       x1="-8.780899"
       y1="14.330109"
       x2="20.15568"
       y2="14.330109"
       gradientUnits="userSpaceOnUse"
       gradientTransform="translate(0.45401091,0.0296427)" />
    <linearGradient
       xlink:href="#linearGradient1027"
       id="linearGradient2569"
       gradientUnits="userSpaceOnUse"
       x1="-1.2029998"
       y1="14.334795"
       x2="10.983719"
       y2="14.334795" />
    <linearGradient
       inkscape:collect="always"
       xlink:href="#linearGradient1027"
       id="linearGradient327"
       gradientUnits="userSpaceOnUse"
       x1="-1.2029998"
       y1="14.334795"
       x2="10.983719"
       y2="14.334795"
       gradientTransform="translate(-5.9493788,-4.1862466)" />
    <linearGradient
       inkscape:collect="always"
       xlink:href="#linearGradient1027"
       id="linearGradient511"
       gradientUnits="userSpaceOnUse"
       gradientTransform="translate(-5.9493788,-4.1862466)"
       x1="-1.2029998"
       y1="14.334795"
       x2="10.983719"
       y2="14.334795" />
    <linearGradient
       inkscape:collect="always"
       xlink:href="#linearGradient1027"
       id="linearGradient577"
       gradientUnits="userSpaceOnUse"
       gradientTransform="translate(-5.9437234,-6.6993394)"
       x1="-1.2029998"
       y1="14.334795"
       x2="10.983719"
       y2="14.334795" />
  </defs>
  <metadata
     id="metadata77">
    <rdf:RDF>
      <cc:Work
         rdf:about="">
        <dc:format>image/svg+xml</dc:format>
        <dc:type
           rdf:resource="http://purl.org/dc/dcmitype/StillImage" />
      </cc:Work>
    </rdf:RDF>
  </metadata>
  <g
     id="layer1"
     transform="translate(13.842136,5.2194147)">
    <rect
       style="fill:#7a86b8;fill-opacity:1;stroke:url(#linearGradient1035);stroke-width:0.79375;stroke-dasharray:none"
       id="rect303"
       width="28.936579"
       height="29.187744"
       x="-8.3268881"
       y="-0.23412028"
       ry="0.97906625" />
    <g
       aria-label="PHP"
       id="text1101"
       style="font-size:19.7556px;-inkscape-font-specification:sans-serif;fill:#00ff00;stroke:url(#linearGradient577);stroke-width:0.79375">
      <path
         d="m -6.79853,18.844273 q -0.1382892,-2.034827 -0.1382892,-5.492057 0,-3.4769851 0.098778,-4.5042763 0.098778,-0.6321792 0.8692464,-0.8297352 0.7704684,-0.2173116 2.0348268,-0.2173116 1.8570264,0 3.12138482,0.8099796 1.284114,0.790224 1.284114,2.3509165 0,1.284114 -0.3556008,2.15336 -0.3556008,0.849491 -0.889002,1.264359 -0.86924642,0.67169 -2.56822802,0.67169 -0.7309572,0 -1.9162932,-0.197556 0.098778,3.95112 0.079022,4.978411 -0.019756,1.027291 -0.691446,1.027291 -0.4346232,0 -0.5531568,-0.158044 -0.1185336,-0.158045 -0.1580448,-0.217312 -0.039511,-0.07902 -0.079022,-0.217312 -0.039511,-0.138289 -0.059267,-0.217311 -0.019756,-0.09878 -0.039511,-0.276579 0,-0.1778 -0.019756,-0.276578 -0.019756,-0.296334 -0.019756,-0.651935 z m 5.630346,-7.823217 q 0,-0.80998 -0.8692464,-1.2643587 -0.8692464,-0.4741344 -1.8570264,-0.4741344 -0.98778,0 -1.382892,0.1778004 -0.079022,1.1655807 -0.079022,2.1533607 0,0.968024 0.079022,1.758248 0.5334012,0.05927 0.7309572,0.09878 0.5136456,0.05927 0.8692464,0.05927 0.3753564,0 0.49389,0 0.1382892,-0.01976 0.49389,-0.05927 0.3753564,-0.05927 0.5334012,-0.1778 0.1580448,-0.118534 0.395112,-0.31609 0.2370672,-0.197556 0.3358452,-0.454379 0.2568228,-0.711201 0.2568228,-1.501425 z"
         style="font-family:'Patrick Hand';-inkscape-font-specification:'Patrick Hand';fill:#ffffff"
         id="path376" />
      <path
         d="m 4.1856015,13.29295 q 1.5409368,0.256822 2.8250508,0.256822 1.284114,0 1.6397148,-0.01975 -0.039511,-1.501426 -0.039511,-2.884318 0,-1.3828917 0,-1.8767817 0,-0.49389 0.039511,-0.6124236 0.039511,-0.1382892 0.2568228,-0.2568228 0.2173116,-0.1185336 0.6321792,-0.1185336 0.5926679,0 0.5926679,0.7112016 v 6.9934821 q 0,2.173116 -0.09878,4.780855 -0.01976,0.572913 -0.9680243,0.572913 -0.4741344,0 -0.4741344,-0.572913 l 0.079022,-5.235234 q -0.6321792,0.03951 -1.7384928,0.03951 -1.086558,0 -2.7460284,-0.237068 0,2.60774 0.2370672,5.452546 0.019756,0.31609 -0.2765784,0.49389 -0.296334,0.158045 -0.7507128,0.158045 -0.4346232,0 -0.4741344,-0.454379 Q 2.6644203,17.678693 2.6644203,14.95242 L 2.7829539,8.7886729 q 0,-0.395112 0.296334,-0.5729124 0.296334,-0.197556 0.6321792,-0.197556 0.5531568,0 0.5531568,0.5334012 z"
         style="font-family:'Patrick Hand';-inkscape-font-specification:'Patrick Hand';fill:#ffffff"
         id="path378" />
      <path
         d="m 11.949561,18.844273 q -0.138289,-2.034827 -0.138289,-5.492057 0,-3.4769851 0.09878,-4.5042763 0.09878,-0.6321792 0.869246,-0.8297352 0.770468,-0.2173116 2.034827,-0.2173116 1.857026,0 3.121385,0.8099796 1.284114,0.790224 1.284114,2.3509165 0,1.284114 -0.355601,2.15336 -0.355601,0.849491 -0.889002,1.264359 -0.869247,0.67169 -2.568228,0.67169 -0.730957,0 -1.916293,-0.197556 0.09878,3.95112 0.07902,4.978411 -0.01976,1.027291 -0.691446,1.027291 -0.434623,0 -0.553157,-0.158044 -0.118533,-0.158045 -0.158045,-0.217312 -0.03951,-0.07902 -0.07902,-0.217312 -0.03951,-0.138289 -0.05927,-0.217311 -0.01975,-0.09878 -0.03951,-0.276579 0,-0.1778 -0.01976,-0.276578 -0.01975,-0.296334 -0.01975,-0.651935 z m 5.630346,-7.823217 q 0,-0.80998 -0.869247,-1.2643587 -0.869246,-0.4741344 -1.857026,-0.4741344 -0.98778,0 -1.382892,0.1778004 -0.07902,1.1655807 -0.07902,2.1533607 0,0.968024 0.07902,1.758248 0.533401,0.05927 0.730957,0.09878 0.513646,0.05927 0.869247,0.05927 0.375356,0 0.49389,0 0.138289,-0.01976 0.49389,-0.05927 0.375356,-0.05927 0.533401,-0.1778 0.158045,-0.118534 0.395112,-0.31609 0.237067,-0.197556 0.335845,-0.454379 0.256823,-0.711201 0.256823,-1.501425 z"
         style="font-family:'Patrick Hand';-inkscape-font-specification:'Patrick Hand';fill:#ffffff"
         id="path380" />
    </g>
    <g
       transform="matrix(0.26458333,0,0,0.26458333,-786.78129,-477.41915)"
       id="g1026">
      <defs
         id="defs1005">
        <rect
           x="0"
           height="12.9"
           width="66.900002"
           y="0"
           id="rect1656" />
      </defs>
      <clipPath
         id="SVGID_2_-67">
        <use
           height="100%"
           width="100%"
           y="0"
           x="0"
           id="use1007-365"
           style="overflow:visible"
           xlink:href="#SVGID_1_" />
      </clipPath>
    </g>
    <text
       xml:space="preserve"
       style="font-style:normal;font-variant:normal;font-weight:normal;font-stretch:normal;font-size:4.23333px;line-height:1.25;font-family:'SF Cartoonist Hand SC';-inkscape-font-specification:'SF Cartoonist Hand SC';font-variant-ligatures:normal;font-variant-caps:normal;font-variant-numeric:normal;font-feature-settings:normal;text-align:start;letter-spacing:0px;word-spacing:0px;writing-mode:lr-tb;text-anchor:start;fill:#000000;fill-opacity:1;stroke:none;stroke-width:0.264583"
       x="2.0215223"
       y="-6.5003476"
       id="text1669" />
    <text
       id="text1673"
       y="25.431738"
       x="13.260739"
       style="font-style:normal;font-variant:normal;font-weight:600;font-stretch:normal;font-size:7.00594px;line-height:1.25;font-family:'URW Gothic L';-inkscape-font-specification:'URW Gothic L Semi-Bold';font-variant-ligatures:normal;font-variant-caps:normal;font-variant-numeric:normal;font-feature-settings:normal;text-align:start;letter-spacing:0px;word-spacing:0px;writing-mode:lr-tb;text-anchor:start;fill:#000000;fill-opacity:1;stroke:none;stroke-width:0.437871"
       xml:space="preserve" />
    <g
       aria-label="’d"
       style="font-style:normal;font-variant:normal;font-weight:bold;font-stretch:normal;font-size:9.72288px;line-height:1.25;font-family:'Open Sans Condensed';-inkscape-font-specification:'Open Sans Condensed, Bold';font-variant-ligatures:normal;font-variant-caps:normal;font-variant-numeric:normal;font-feature-settings:normal;text-align:start;letter-spacing:-0.0767292px;word-spacing:0px;writing-mode:lr-tb;text-anchor:start;fill:#ffffff;fill-opacity:1;stroke:none;stroke-width:0.60768"
       id="text1677" />
    <g
       aria-label="PHP: Hypertext
Preprocessor"
       id="text1774"
       style="font-size:11.2889px;font-family:'Patrick Hand';-inkscape-font-specification:'Patrick Hand';fill:#7a86b8;stroke-width:0.396876">
      <path
         d="m 24.284863,8.4161458 q -0.07902,-1.1627568 -0.07902,-3.1383143 0,-1.9868465 0.05644,-2.5738693 0.05645,-0.3612448 0.496712,-0.4741338 0.440267,-0.1241779 1.162756,-0.1241779 1.061157,0 1.783647,0.4628449 0.733778,0.451556 0.733778,1.3433791 0,0.7337785 -0.2032,1.2304902 -0.2032,0.4854227 -0.508,0.7224896 -0.496712,0.3838226 -1.467558,0.3838226 -0.417689,0 -1.095023,-0.112889 0.05645,2.2577801 0.04516,2.8448029 -0.01129,0.5870228 -0.395112,0.5870228 -0.248356,0 -0.316089,-0.090311 -0.06773,-0.090311 -0.09031,-0.1241779 -0.02258,-0.045156 -0.04516,-0.1241779 -0.02258,-0.079022 -0.03387,-0.1241779 -0.01129,-0.056444 -0.02258,-0.1580446 0,-0.1016001 -0.01129,-0.1580446 -0.01129,-0.1693335 -0.01129,-0.3725337 z m 3.217336,-4.4704046 q 0,-0.4628449 -0.496711,-0.7224896 -0.496712,-0.2709336 -1.061157,-0.2709336 -0.564445,0 -0.790223,0.1016001 -0.04516,0.6660451 -0.04516,1.2304901 0,0.5531561 0.04516,1.0047122 0.304801,0.033867 0.41769,0.056445 0.293511,0.033867 0.496711,0.033867 0.214489,0 0.282223,0 0.07902,-0.011289 0.282222,-0.033867 0.214489,-0.033867 0.3048,-0.1016001 0.09031,-0.067733 0.225778,-0.1806224 0.135467,-0.1128891 0.191912,-0.2596448 0.146755,-0.4064004 0.146755,-0.8579564 z"
         id="path325" />
      <path
         d="m 30.561502,5.2439648 q 0.880534,0.1467557 1.614312,0.1467557 0.733779,0 0.936979,-0.011289 -0.02258,-0.8579565 -0.02258,-1.6481795 0,-0.790223 0,-1.0724455 0,-0.2822225 0.02258,-0.3499559 0.02258,-0.079022 0.146756,-0.1467557 0.124178,-0.067733 0.361245,-0.067733 0.338667,0 0.338667,0.4064004 v 3.9962707 q 0,1.241779 -0.05644,2.7319139 -0.01129,0.3273781 -0.553156,0.3273781 -0.270934,0 -0.270934,-0.3273781 l 0.04516,-2.9915586 q -0.361245,0.022578 -0.993423,0.022578 -0.62089,0 -1.569157,-0.1354668 0,1.4901348 0.135466,3.1157365 0.01129,0.1806224 -0.158044,0.2822225 -0.169334,0.090311 -0.428978,0.090311 -0.248356,0 -0.270934,-0.2596447 -0.146756,-1.6030239 -0.146756,-3.1608921 l 0.06773,-3.5221369 q 0,-0.225778 0.169333,-0.3273781 0.169334,-0.112889 0.361245,-0.112889 0.316089,0 0.316089,0.3048003 z"
         id="path327" />
      <path
         d="m 34.998043,8.4161458 q -0.07902,-1.1627568 -0.07902,-3.1383143 0,-1.9868465 0.05644,-2.5738693 0.05644,-0.3612448 0.496711,-0.4741338 0.440267,-0.1241779 1.162757,-0.1241779 1.061157,0 1.783646,0.4628449 0.733779,0.451556 0.733779,1.3433791 0,0.7337785 -0.2032,1.2304902 -0.203201,0.4854227 -0.508001,0.7224896 -0.496712,0.3838226 -1.467557,0.3838226 -0.417689,0 -1.095023,-0.112889 0.05644,2.2577801 0.04516,2.8448029 -0.01129,0.5870228 -0.395111,0.5870228 -0.248356,0 -0.316089,-0.090311 -0.06773,-0.090311 -0.09031,-0.1241779 -0.02258,-0.045156 -0.04516,-0.1241779 -0.02258,-0.079022 -0.03387,-0.1241779 -0.01129,-0.056444 -0.02258,-0.1580446 0,-0.1016001 -0.01129,-0.1580446 -0.01129,-0.1693335 -0.01129,-0.3725337 z M 38.21538,3.9457412 q 0,-0.4628449 -0.496712,-0.7224896 -0.496711,-0.2709336 -1.061156,-0.2709336 -0.564445,0 -0.790223,0.1016001 -0.04516,0.6660451 -0.04516,1.2304901 0,0.5531561 0.04516,1.0047122 0.3048,0.033867 0.417689,0.056445 0.293511,0.033867 0.496712,0.033867 0.214489,0 0.282222,0 0.07902,-0.011289 0.282223,-0.033867 0.214489,-0.033867 0.3048,-0.1016001 0.09031,-0.067733 0.225778,-0.1806224 Q 38.01218,4.9504533 38.068624,4.8036976 38.21538,4.3972972 38.21538,3.9457412 Z"
         id="path329" />
      <path
         d="m 41.026327,4.8375643 q 0.248356,0 0.428978,0.1806225 0.191911,0.1806224 0.225778,0.4967116 0,0.2483558 -0.191911,0.4628449 -0.180623,0.2032002 -0.41769,0.2032002 -0.237066,0 -0.428978,-0.1354668 -0.191911,-0.1354668 -0.191911,-0.3951115 0,-0.2709336 0.169333,-0.5418672 0.169334,-0.2709337 0.406401,-0.2709337 z m 0.158044,3.4544036 q 0.09031,0 0.225778,0.056445 0.07902,0.045156 0.169334,0.2483558 0.1016,0.2032002 0.1016,0.4064004 0,0.2032002 -0.191911,0.3838226 -0.191912,0.1693335 -0.428978,0.1693335 -0.237067,0 -0.395112,-0.1693335 -0.146756,-0.1806224 -0.146756,-0.451556 0,-0.6434673 0.666045,-0.6434673 z"
         id="path331" />
      <path
         d="m 46.490154,5.2439648 q 0.880534,0.1467557 1.614313,0.1467557 0.733778,0 0.936978,-0.011289 -0.02258,-0.8579565 -0.02258,-1.6481795 0,-0.790223 0,-1.0724455 0,-0.2822225 0.02258,-0.3499559 0.02258,-0.079022 0.146756,-0.1467557 0.124178,-0.067733 0.361245,-0.067733 0.338667,0 0.338667,0.4064004 v 3.9962707 q 0,1.241779 -0.05644,2.7319139 -0.01129,0.3273781 -0.553156,0.3273781 -0.270933,0 -0.270933,-0.3273781 l 0.04516,-2.9915586 q -0.361245,0.022578 -0.993423,0.022578 -0.620889,0 -1.569157,-0.1354668 0,1.4901348 0.135467,3.1157365 0.01129,0.1806224 -0.158045,0.2822225 -0.169333,0.090311 -0.428978,0.090311 -0.248356,0 -0.270934,-0.2596447 -0.146755,-1.6030239 -0.146755,-3.1608921 l 0.06773,-3.5221369 q 0,-0.225778 0.169334,-0.3273781 0.169333,-0.112889 0.361244,-0.112889 0.31609,0 0.31609,0.3048003 z"
         id="path333" />
      <path
         d="m 54.313365,4.3521416 q 0.146756,0 0.282223,0.1016001 0.146756,0.1016001 0.146756,0.225778 0,0.3273782 -0.959557,3.5447148 -0.959556,3.2173365 -1.422401,4.5155605 -0.101601,0.3048 -0.31609,0.3048 -0.214489,0 -0.338667,-0.158045 -0.124178,-0.146755 -0.124178,-0.440267 0,-0.293511 0.372534,-1.411112 0.383823,-1.1063126 0.462845,-1.4111129 -0.282222,-0.4741338 -1.907824,-4.7413382 -0.02258,-0.056444 -0.02258,-0.1467557 0,-0.090311 0.135467,-0.2370669 0.135467,-0.1467557 0.372534,-0.1467557 0.237067,0 0.383822,0.2370669 0.158045,0.4064004 0.51929,1.4224015 0.361244,1.0047121 0.553156,1.4562681 0.2032,0.451556 0.383822,0.9369788 0.158045,-0.5305784 0.541868,-2.0545799 0.383822,-1.5352905 0.440267,-1.7497796 0.04516,-0.2483558 0.496711,-0.2483558 z"
         id="path335" />
      <path
         d="m 57.271062,9.5563247 q -0.383823,0 -0.711201,-0.2596447 0,0 -0.146756,-0.1241779 v 3.3866699 q -0.06773,0.225778 -0.237067,0.372534 -0.169333,0.158045 -0.361244,0.158045 -0.293512,0 -0.293512,-0.395112 V 4.8262754 q 0.06773,-0.2935114 0.158045,-0.4176893 0.1016,-0.1241779 0.3048,-0.1241779 0.214489,0 0.270934,0.1016001 0.06773,0.090311 0.158044,0.5192894 0.04516,-0.225778 0.361245,-0.4176893 0.316089,-0.1919113 0.846668,-0.1919113 1.151468,0 1.63689,0.8353787 0.485423,0.8353786 0.485423,1.9755575 0,1.1288901 -0.666045,1.7949352 -0.654756,0.6547562 -1.806224,0.6547562 z M 56.413105,6.1696546 v 2.0997355 q 0.06773,0.033867 0.158045,0.112889 0.327378,0.2935114 0.711201,0.2935114 1.557868,0 1.557868,-1.6030239 0,-1.3659569 -0.699912,-1.7272017 -0.293511,-0.1580446 -0.722489,-0.1580446 -0.41769,0.056444 -0.711201,0.3725337 -0.293512,0.3048003 -0.293512,0.6096006 z"
         id="path337" />
      <path
         d="m 61.944659,4.3408527 q 0.598312,0 1.140179,0.3499559 0.541868,0.349956 0.541868,0.8692454 0,0.5080005 -0.440268,0.9934232 -0.440267,0.4741338 -1.174045,0.5757339 -0.316089,0.045156 -0.948268,0.045156 0.124178,0.9595566 0.485423,1.2643569 0.112889,0.1241779 0.3048,0.1241779 0.699912,0 1.174046,-0.4402671 0.474134,-0.4515561 0.677334,-0.4515561 0.09031,0 0.270933,0.1693335 0.180623,0.1693335 0.180623,0.3160893 0,0.2935114 -0.711201,0.8466675 -0.316089,0.2596447 -0.767645,0.4402671 -0.440267,0.1693335 -0.82409,0.1693335 -0.982134,0 -1.444979,-1.2643568 -0.293511,-0.7789342 -0.293511,-1.7159129 0,-0.9369787 0.440267,-1.6143127 0.440267,-0.6773341 1.388534,-0.6773341 z m 0.05644,0.7789342 q -0.428978,0 -0.733779,0.4854227 -0.112889,0.1693335 -0.214489,0.7676452 1.580446,0 1.580446,-0.7789341 0,-0.4741338 -0.632178,-0.4741338 z"
         id="path339" />
      <path
         d="m 66.268318,7.9194341 0.01129,1.1627568 q 0,0.2032002 -0.191911,0.3725337 -0.180623,0.1693335 -0.361245,0.1693335 -0.259645,0 -0.327378,-0.4064004 -0.01129,-0.090311 -0.09031,-1.6481795 -0.07902,-1.5691571 -0.304801,-2.4609802 -0.1016,-0.4289783 -0.1016,-0.5080006 0,-0.3725337 0.451556,-0.3725337 0.191912,0 0.304801,0.1467557 0.112889,0.1467557 0.135466,0.3048003 0.03387,0.1467557 0.05644,0.4064005 0.02258,0.2596447 0.03387,0.3273781 0.237067,-0.5644451 0.7112,-0.8466676 0.474134,-0.2822225 1.038579,-0.2822225 0.92569,0 0.92569,0.4741338 0,0.2370669 -0.169333,0.3838227 -0.158045,0.1354668 -0.372534,0.1354668 -0.959557,0 -1.354668,0.6096006 -0.395112,0.6096006 -0.395112,2.032002 z"
         id="path341" />
      <path
         d="m 69.440502,4.2956971 0.564445,0.011289 q 0.191912,0 0.214489,-0.011289 V 1.9814725 q 0.01129,-0.1919113 0.191912,-0.3273781 0.180622,-0.1354668 0.338667,-0.1354668 0.158044,0 0.248355,0.1016001 0.101601,0.1016001 0.09031,0.3160892 -0.01129,0.2144892 -0.01129,2.3480913 l 1.320801,-0.045156 q 0.338667,0 0.338667,0.3951115 0,0.2935114 -0.180622,0.4402672 -0.169334,0.1467557 -0.372534,0.1580446 -0.191911,0.011289 -0.383823,0.011289 l -0.688623,-0.011289 q 0,0.4628449 0.09031,1.8288018 0.1016,1.365957 0.158044,1.7723574 0.05644,0.3951115 0.02258,0.5192894 -0.03387,0.112889 -0.124178,0.1580446 -0.146756,0.067733 -0.395111,0.067733 -0.248356,0 -0.293512,-0.2709336 -0.225778,-1.478846 -0.3048,-4.0640041 -0.1016,0.011289 -0.778934,0.011289 -0.677334,0 -0.677334,-0.3951116 0,-0.564445 0.632178,-0.564445 z"
         id="path343" />
      <path
         d="m 74.667258,4.3408527 q 0.598312,0 1.140179,0.3499559 0.541868,0.349956 0.541868,0.8692454 0,0.5080005 -0.440268,0.9934232 -0.440267,0.4741338 -1.174045,0.5757339 -0.316089,0.045156 -0.948268,0.045156 0.124178,0.9595566 0.485423,1.2643569 0.112889,0.1241779 0.3048,0.1241779 0.699912,0 1.174046,-0.4402671 0.474134,-0.4515561 0.677334,-0.4515561 0.09031,0 0.270933,0.1693335 0.180623,0.1693335 0.180623,0.3160893 0,0.2935114 -0.711201,0.8466675 -0.316089,0.2596447 -0.767645,0.4402671 -0.440267,0.1693335 -0.82409,0.1693335 -0.982134,0 -1.444979,-1.2643568 -0.293511,-0.7789342 -0.293511,-1.7159129 0,-0.9369787 0.440267,-1.6143127 0.440267,-0.6773341 1.388534,-0.6773341 z m 0.05644,0.7789342 q -0.428978,0 -0.733779,0.4854227 -0.112889,0.1693335 -0.214489,0.7676452 1.580446,0 1.580446,-0.7789341 0,-0.4741338 -0.632178,-0.4741338 z"
         id="path345" />
      <path
         d="m 78.810295,4.4988973 0.92569,1.6256017 q 0.383822,-0.4176893 0.722489,-0.9256898 l 0.474134,-0.6999119 q 0.135467,-0.1919113 0.327378,-0.1919113 0.2032,0 0.327378,0.1241779 0.124178,0.112889 0.124178,0.2822225 0,0.1580446 -0.474134,0.8805343 -0.474133,0.7112007 -1.016001,1.3885347 0.101601,0.1580446 0.451556,0.7337785 0.349956,0.575734 0.767646,1.0950234 0.07902,0.1241779 0.07902,0.3048003 0,0.1693335 -0.135467,0.3160892 -0.135467,0.1467557 -0.3048,0.1467557 -0.282223,0 -0.733779,-0.6208895 -0.451556,-0.6321784 -0.801512,-1.3772459 -0.338667,0.462845 -0.666045,0.9708455 -0.316089,0.5080005 -0.496711,0.7450674 -0.169334,0.225778 -0.383823,0.225778 -0.2032,0 -0.327378,-0.1241779 -0.112889,-0.1241779 -0.112889,-0.3048003 0,-0.4402671 1.580446,-2.2239134 -0.191911,-0.3725337 -0.699912,-1.1627567 -0.508,-0.7902231 -0.508,-0.9708455 0,-0.1806224 0.146755,-0.3160892 0.158045,-0.1354668 0.383823,-0.1354668 0.237067,0 0.349956,0.2144891 z"
         id="path347" />
      <path
         d="m 82.874298,4.2956971 0.564445,0.011289 q 0.191911,0 0.214489,-0.011289 V 1.9814725 q 0.01129,-0.1919113 0.191912,-0.3273781 0.180622,-0.1354668 0.338667,-0.1354668 0.158044,0 0.248355,0.1016001 0.1016,0.1016001 0.09031,0.3160892 -0.01129,0.2144892 -0.01129,2.3480913 l 1.320801,-0.045156 q 0.338667,0 0.338667,0.3951115 0,0.2935114 -0.180622,0.4402672 -0.169334,0.1467557 -0.372534,0.1580446 -0.191911,0.011289 -0.383823,0.011289 l -0.688623,-0.011289 q 0,0.4628449 0.09031,1.8288018 0.1016,1.365957 0.158044,1.7723574 0.05644,0.3951115 0.02258,0.5192894 -0.03387,0.112889 -0.124178,0.1580446 -0.146756,0.067733 -0.395111,0.067733 -0.248356,0 -0.293512,-0.2709336 -0.225778,-1.478846 -0.3048,-4.0640041 -0.1016,0.011289 -0.778934,0.011289 -0.677334,0 -0.677334,-0.3951116 0,-0.564445 0.632178,-0.564445 z"
         id="path349" />
      <path
         d="m 24.284863,22.527271 q -0.07902,-1.162757 -0.07902,-3.138314 0,-1.986847 0.05644,-2.573869 0.05645,-0.361245 0.496712,-0.474134 0.440267,-0.124178 1.162756,-0.124178 1.061157,0 1.783647,0.462845 0.733778,0.451556 0.733778,1.343379 0,0.733779 -0.2032,1.23049 -0.2032,0.485423 -0.508,0.72249 -0.496712,0.383822 -1.467558,0.383822 -0.417689,0 -1.095023,-0.112889 0.05645,2.25778 0.04516,2.844803 -0.01129,0.587023 -0.395112,0.587023 -0.248356,0 -0.316089,-0.09031 -0.06773,-0.09031 -0.09031,-0.124178 -0.02258,-0.04516 -0.04516,-0.124178 -0.02258,-0.07902 -0.03387,-0.124178 -0.01129,-0.05644 -0.02258,-0.158044 0,-0.101601 -0.01129,-0.158045 -0.01129,-0.169334 -0.01129,-0.372534 z m 3.217336,-4.470404 q 0,-0.462845 -0.496711,-0.72249 -0.496712,-0.270934 -1.061157,-0.270934 -0.564445,0 -0.790223,0.101601 -0.04516,0.666045 -0.04516,1.23049 0,0.553156 0.04516,1.004712 0.304801,0.03387 0.41769,0.05644 0.293511,0.03387 0.496711,0.03387 0.214489,0 0.282223,0 0.07902,-0.01129 0.282222,-0.03387 0.214489,-0.03387 0.3048,-0.1016 0.09031,-0.06773 0.225778,-0.180622 0.135467,-0.112889 0.191912,-0.259645 0.146755,-0.4064 0.146755,-0.857956 z"
         id="path351" />
      <path
         d="m 30.956613,22.03056 0.01129,1.162756 q 0,0.203201 -0.191911,0.372534 -0.180623,0.169334 -0.361245,0.169334 -0.259645,0 -0.327378,-0.406401 -0.01129,-0.09031 -0.09031,-1.648179 -0.07902,-1.569157 -0.304801,-2.460981 -0.1016,-0.428978 -0.1016,-0.508 0,-0.372534 0.451556,-0.372534 0.191912,0 0.304801,0.146756 0.112889,0.146756 0.135466,0.3048 0.03387,0.146756 0.05645,0.406401 0.02258,0.259644 0.03387,0.327378 0.237066,-0.564445 0.7112,-0.846668 0.474134,-0.282222 1.038579,-0.282222 0.92569,0 0.92569,0.474134 0,0.237066 -0.169334,0.383822 -0.158044,0.135467 -0.372533,0.135467 -0.959557,0 -1.354668,0.609601 -0.395112,0.6096 -0.395112,2.032002 z"
         id="path353" />
      <path
         d="m 35.472176,18.451978 q 0.598311,0 1.140179,0.349956 0.541867,0.349956 0.541867,0.869245 0,0.508001 -0.440267,0.993424 -0.440267,0.474133 -1.174046,0.575734 -0.316089,0.04516 -0.948267,0.04516 0.124177,0.959557 0.485422,1.264357 0.112889,0.124178 0.304801,0.124178 0.699911,0 1.174045,-0.440267 0.474134,-0.451556 0.677334,-0.451556 0.09031,0 0.270934,0.169333 0.180622,0.169334 0.180622,0.31609 0,0.293511 -0.711201,0.846667 -0.316089,0.259645 -0.767645,0.440267 -0.440267,0.169334 -0.824089,0.169334 -0.982135,0 -1.44498,-1.264357 -0.293511,-0.778934 -0.293511,-1.715913 0,-0.936979 0.440267,-1.614313 0.440267,-0.677334 1.388535,-0.677334 z m 0.05644,0.778934 q -0.428978,0 -0.733778,0.485423 -0.112889,0.169334 -0.214489,0.767645 1.580446,0 1.580446,-0.778934 0,-0.474134 -0.632179,-0.474134 z"
         id="path355" />
      <path
         d="m 40.123211,23.66745 q -0.383823,0 -0.711201,-0.259645 0,0 -0.146756,-0.124177 v 3.38667 q -0.06773,0.225778 -0.237067,0.372533 -0.169333,0.158045 -0.361244,0.158045 -0.293512,0 -0.293512,-0.395112 v -7.868363 q 0.06773,-0.293511 0.158045,-0.417689 0.1016,-0.124178 0.3048,-0.124178 0.214489,0 0.270934,0.1016 0.06773,0.09031 0.158044,0.519289 0.04516,-0.225778 0.361245,-0.417689 0.316089,-0.191911 0.846668,-0.191911 1.151468,0 1.63689,0.835378 0.485423,0.835379 0.485423,1.975558 0,1.12889 -0.666045,1.794935 -0.654756,0.654756 -1.806224,0.654756 z m -0.857957,-3.38667 v 2.099736 q 0.06773,0.03387 0.158045,0.112889 0.327378,0.293511 0.711201,0.293511 1.557868,0 1.557868,-1.603024 0,-1.365957 -0.699912,-1.727202 -0.293511,-0.158044 -0.722489,-0.158044 -0.41769,0.05644 -0.711201,0.372533 -0.293512,0.304801 -0.293512,0.609601 z"
         id="path357" />
      <path
         d="m 44.627476,22.03056 0.01129,1.162756 q 0,0.203201 -0.191912,0.372534 -0.180622,0.169334 -0.361244,0.169334 -0.259645,0 -0.327379,-0.406401 -0.01129,-0.09031 -0.09031,-1.648179 -0.07902,-1.569157 -0.3048,-2.460981 -0.1016,-0.428978 -0.1016,-0.508 0,-0.372534 0.451556,-0.372534 0.191911,0 0.3048,0.146756 0.112889,0.146756 0.135467,0.3048 0.03387,0.146756 0.05644,0.406401 0.02258,0.259644 0.03387,0.327378 0.237067,-0.564445 0.711201,-0.846668 0.474134,-0.282222 1.038579,-0.282222 0.92569,0 0.92569,0.474134 0,0.237066 -0.169334,0.383822 -0.158045,0.135467 -0.372534,0.135467 -0.959556,0 -1.354668,0.609601 -0.395111,0.6096 -0.395111,2.032002 z"
         id="path359" />
      <path
         d="m 49.515573,18.418111 q 0.8128,0 1.33209,0.778935 0.530578,0.778934 0.530578,1.873957 0,1.083735 -0.541867,1.85138 -0.530578,0.767645 -1.422402,0.767645 -0.880534,0 -1.422401,-0.778934 -0.541867,-0.790223 -0.541867,-1.74978 0,-1.23049 0.496711,-1.964268 0.530579,-0.778935 1.569158,-0.778935 z m -0.135467,0.92569 q -0.474134,0 -0.778934,0.496712 -0.304801,0.496712 -0.304801,1.049868 0,0.857956 0.338667,1.309512 0.338667,0.451556 0.767646,0.451556 0.767645,0 0.982134,-0.666045 0.09031,-0.316089 0.09031,-0.790223 0,-1.85138 -1.095023,-1.85138 z"
         id="path361" />
      <path
         d="m 51.908818,21.037136 q 0,-0.756356 0.395111,-1.377245 0.406401,-0.62089 1.02729,-0.92569 0.62089,-0.31609 1.207913,-0.31609 0.587022,0 0.936978,0.146756 0.361245,0.135467 0.361245,0.372534 0,0.225778 -0.135467,0.462845 -0.124178,0.225778 -0.338667,0.225778 -0.07902,0 -0.440267,-0.124178 -0.349956,-0.135467 -0.451556,-0.135467 -0.654756,0 -1.117601,0.485423 -0.462845,0.474134 -0.462845,1.264357 0,0.790223 0.248356,1.185334 0.259645,0.383823 0.880534,0.383823 0.248356,0 0.846668,-0.282223 0.6096,-0.293511 0.756356,-0.293511 0.146756,0 0.237067,0.09031 0.09031,0.09031 0.09031,0.225778 0,0.270934 -0.349956,0.575734 -0.338667,0.293511 -0.846667,0.496712 -0.508001,0.191911 -0.914401,0.191911 -0.903112,0 -1.422402,-0.711201 -0.508,-0.7112 -0.508,-1.941691 z"
         id="path363" />
      <path
         d="m 58.072562,18.451978 q 0.598312,0 1.140179,0.349956 0.541868,0.349956 0.541868,0.869245 0,0.508001 -0.440268,0.993424 -0.440267,0.474133 -1.174045,0.575734 -0.316089,0.04516 -0.948268,0.04516 0.124178,0.959557 0.485423,1.264357 0.112889,0.124178 0.3048,0.124178 0.699912,0 1.174046,-0.440267 0.474134,-0.451556 0.677334,-0.451556 0.09031,0 0.270933,0.169333 0.180623,0.169334 0.180623,0.31609 0,0.293511 -0.711201,0.846667 -0.316089,0.259645 -0.767645,0.440267 -0.440267,0.169334 -0.82409,0.169334 -0.982134,0 -1.444979,-1.264357 -0.293512,-0.778934 -0.293512,-1.715913 0,-0.936979 0.440268,-1.614313 0.440267,-0.677334 1.388534,-0.677334 z m 0.05645,0.778934 q -0.428978,0 -0.733779,0.485423 -0.112889,0.169334 -0.214489,0.767645 1.580446,0 1.580446,-0.778934 0,-0.474134 -0.632178,-0.474134 z"
         id="path365" />
      <path
         d="m 61.131864,19.840513 q 0,-0.666045 0.474134,-1.061157 0.474134,-0.395111 1.095024,-0.395111 0.632178,0 1.207912,0.225778 0.575734,0.225778 0.575734,0.598312 0,0.191911 -0.146756,0.3048 -0.146756,0.112889 -0.259645,0.112889 -0.1016,0 -0.169333,0 -0.05645,-0.01129 -0.451556,-0.214489 -0.383823,-0.2032 -0.711201,-0.2032 -0.327378,0 -0.564445,0.169333 -0.225778,0.158045 -0.225778,0.474134 0,0.316089 0.259645,0.496711 0.270933,0.180623 0.936979,0.31609 0.666045,0.124178 1.016001,0.361244 0.361244,0.237067 0.361244,0.880535 0,0.936978 -0.496711,1.33209 -0.485423,0.383823 -1.185335,0.383823 -0.699912,0 -1.196623,-0.191912 -0.485423,-0.191911 -0.485423,-0.575734 0,-0.440267 0.440267,-0.440267 0.112889,0 0.496712,0.158045 0.383822,0.158044 0.756356,0.158044 0.383823,0 0.575734,-0.237066 0.2032,-0.248356 0.2032,-0.564445 0,-0.31609 -0.259644,-0.451557 -0.259645,-0.146755 -0.790223,-0.237066 -0.530579,-0.09031 -0.778935,-0.191912 -0.677334,-0.270933 -0.677334,-1.207912 z"
         id="path367" />
      <path
         d="m 65.478094,19.840513 q 0,-0.666045 0.474134,-1.061157 0.474134,-0.395111 1.095023,-0.395111 0.632179,0 1.207912,0.225778 0.575734,0.225778 0.575734,0.598312 0,0.191911 -0.146755,0.3048 -0.146756,0.112889 -0.259645,0.112889 -0.1016,0 -0.169334,0 -0.05644,-0.01129 -0.451556,-0.214489 -0.383822,-0.2032 -0.7112,-0.2032 -0.327378,0 -0.564445,0.169333 -0.225778,0.158045 -0.225778,0.474134 0,0.316089 0.259644,0.496711 0.270934,0.180623 0.936979,0.31609 0.666045,0.124178 1.016001,0.361244 0.361245,0.237067 0.361245,0.880535 0,0.936978 -0.496712,1.33209 -0.485422,0.383823 -1.185334,0.383823 -0.699912,0 -1.196624,-0.191912 -0.485422,-0.191911 -0.485422,-0.575734 0,-0.440267 0.440267,-0.440267 0.112889,0 0.496711,0.158045 0.383823,0.158044 0.756357,0.158044 0.383822,0 0.575734,-0.237066 0.2032,-0.248356 0.2032,-0.564445 0,-0.31609 -0.259645,-0.451557 -0.259645,-0.146755 -0.790223,-0.237066 -0.530578,-0.09031 -0.778934,-0.191912 -0.677334,-0.270933 -0.677334,-1.207912 z"
         id="path369" />
      <path
         d="m 71.630544,18.418111 q 0.812801,0 1.33209,0.778935 0.530578,0.778934 0.530578,1.873957 0,1.083735 -0.541867,1.85138 -0.530578,0.767645 -1.422401,0.767645 -0.880535,0 -1.422402,-0.778934 -0.541867,-0.790223 -0.541867,-1.74978 0,-1.23049 0.496712,-1.964268 0.530578,-0.778935 1.569157,-0.778935 z m -0.135467,0.92569 q -0.474134,0 -0.778934,0.496712 -0.3048,0.496712 -0.3048,1.049868 0,0.857956 0.338667,1.309512 0.338667,0.451556 0.767645,0.451556 0.767645,0 0.982134,-0.666045 0.09031,-0.316089 0.09031,-0.790223 0,-1.85138 -1.095023,-1.85138 z"
         id="path371" />
      <path
         d="m 75.638104,22.03056 0.01129,1.162756 q 0,0.203201 -0.191911,0.372534 -0.180622,0.169334 -0.361245,0.169334 -0.259644,0 -0.327378,-0.406401 -0.01129,-0.09031 -0.09031,-1.648179 -0.07902,-1.569157 -0.3048,-2.460981 -0.1016,-0.428978 -0.1016,-0.508 0,-0.372534 0.451556,-0.372534 0.191911,0 0.3048,0.146756 0.112889,0.146756 0.135467,0.3048 0.03387,0.146756 0.05644,0.406401 0.02258,0.259644 0.03387,0.327378 0.237067,-0.564445 0.711201,-0.846668 0.474133,-0.282222 1.038579,-0.282222 0.925689,0 0.925689,0.474134 0,0.237066 -0.169333,0.383822 -0.158045,0.135467 -0.372534,0.135467 -0.959556,0 -1.354668,0.609601 -0.395111,0.6096 -0.395111,2.032002 z"
         id="path373" />
    </g>
  </g>
  <style
     id="style1002"
     type="text/css">
	.st0{clip-path:url(#SVGID_2_);fill:#4967A9;}
</style>
</svg>
