<?xml version="1.0" encoding="UTF-8" standalone="no"?>
<!-- Created with Inkscape (http://www.inkscape.org/) -->

<svg
   width="418"
   height="148"
   viewBox="0 0 110.59616 39.158333"
   version="1.1"
   id="svg80"
   sodipodi:docname="posix-shell.svg"
   inkscape:version="1.2.2 (b0a8486541, 2022-12-01)"
   xmlns:inkscape="http://www.inkscape.org/namespaces/inkscape"
   xmlns:sodipodi="http://sodipodi.sourceforge.net/DTD/sodipodi-0.dtd"
   xmlns:xlink="http://www.w3.org/1999/xlink"
   xmlns="http://www.w3.org/2000/svg"
   xmlns:svg="http://www.w3.org/2000/svg"
   xmlns:rdf="http://www.w3.org/1999/02/22-rdf-syntax-ns#"
   xmlns:cc="http://creativecommons.org/ns#"
   xmlns:dc="http://purl.org/dc/elements/1.1/">
  <style
     id="style2116">fill: #fbf1c7;#text1774 { fill: #000000; }
.dark { #text1774 }
</style>
  <sodipodi:namedview
     id="namedview62"
     pagecolor="#ffffff"
     bordercolor="#000000"
     borderopacity="0.25"
     inkscape:showpageshadow="2"
     inkscape:pageopacity="0.0"
     inkscape:pagecheckerboard="0"
     inkscape:deskcolor="#d1d1d1"
     showgrid="false"
     inkscape:zoom="3.6435407"
     inkscape:cx="147.10965"
     inkscape:cy="74.515429"
     inkscape:window-width="2560"
     inkscape:window-height="1400"
     inkscape:window-x="0"
     inkscape:window-y="40"
     inkscape:window-maximized="1"
     inkscape:current-layer="layer1" />
  <defs
     id="defs74">
    <linearGradient
       id="linearGradient1033">
      <stop
         style="stop-color:#000000;stop-opacity:1;"
         offset="0"
         id="stop1031" />
    </linearGradient>
    <linearGradient
       id="linearGradient1027">
      <stop
         style="stop-color:#000000;stop-opacity:1;"
         offset="0"
         id="stop1025" />
    </linearGradient>
    <clipPath
       id="SVGID_2_">
      <use
         xlink:href="#SVGID_1_"
         style="overflow:visible"
         id="use1007"
         x="0"
         y="0"
         width="100%"
         height="100%" />
    </clipPath>
    <clipPath
       id="SVGID_2_-3">
      <use
         xlink:href="#SVGID_1_"
         style="overflow:visible"
         id="use1007-6"
         x="0"
         y="0"
         width="100%"
         height="100%" />
    </clipPath>
    <clipPath
       id="SVGID_2_-5">
      <use
         xlink:href="#SVGID_1_"
         style="overflow:visible"
         id="use1007-3"
         x="0"
         y="0"
         width="100%"
         height="100%" />
    </clipPath>
    <clipPath
       id="SVGID_2_-6">
      <use
         xlink:href="#SVGID_1_"
         style="overflow:visible"
         id="use1007-2"
         x="0"
         y="0"
         width="100%"
         height="100%" />
    </clipPath>
    <clipPath
       id="SVGID_2_-1">
      <use
         xlink:href="#SVGID_1_"
         style="overflow:visible"
         id="use1007-27"
         x="0"
         y="0"
         width="100%"
         height="100%" />
    </clipPath>
    <clipPath
       id="SVGID_2_-9">
      <use
         xlink:href="#SVGID_1_"
         style="overflow:visible"
         id="use1007-36"
         x="0"
         y="0"
         width="100%"
         height="100%" />
    </clipPath>
    <clipPath
       id="SVGID_2_-2">
      <use
         xlink:href="#SVGID_1_"
         style="overflow:visible"
         id="use1007-61"
         x="0"
         y="0"
         width="100%"
         height="100%" />
    </clipPath>
    <clipPath
       id="SVGID_2_-7">
      <use
         xlink:href="#SVGID_1_"
         style="overflow:visible"
         id="use1007-9"
         x="0"
         y="0"
         width="100%"
         height="100%" />
    </clipPath>
    <clipPath
       id="SVGID_2_-0">
      <use
         xlink:href="#SVGID_1_"
         style="overflow:visible"
         id="use1007-23"
         x="0"
         y="0"
         width="100%"
         height="100%" />
    </clipPath>
    <clipPath
       id="SVGID_2_-92">
      <use
         xlink:href="#SVGID_1_"
         style="overflow:visible"
         id="use1007-28"
         x="0"
         y="0"
         width="100%"
         height="100%" />
    </clipPath>
    <clipPath
       id="SVGID_2_-36">
      <use
         xlink:href="#SVGID_1_"
         style="overflow:visible"
         id="use1007-1"
         x="0"
         y="0"
         width="100%"
         height="100%" />
    </clipPath>
    <clipPath
       id="SVGID_2_-31">
      <use
         xlink:href="#SVGID_1_"
         style="overflow:visible"
         id="use1007-94"
         x="0"
         y="0"
         width="100%"
         height="100%" />
    </clipPath>
    <clipPath
       id="SVGID_2_-4">
      <use
         xlink:href="#SVGID_1_"
         style="overflow:visible"
         id="use1007-5"
         x="0"
         y="0"
         width="100%"
         height="100%" />
    </clipPath>
    <clipPath
       id="SVGID_2_-61">
      <use
         xlink:href="#SVGID_1_"
         style="overflow:visible"
         id="use1007-0"
         x="0"
         y="0"
         width="100%"
         height="100%" />
    </clipPath>
    <clipPath
       id="SVGID_2_-32">
      <use
         xlink:href="#SVGID_1_"
         style="overflow:visible"
         id="use1007-06"
         x="0"
         y="0"
         width="100%"
         height="100%" />
    </clipPath>
    <rect
       x="0"
       height="12.9"
       width="66.900002"
       y="0"
       id="SVGID_1_" />
    <clipPath
       id="clipPath4674"
       clipPathUnits="userSpaceOnUse">
      <path
         id="path4676"
         d="M 0,500 H 1024 V 0 H 0 Z" />
    </clipPath>
    <linearGradient
       xlink:href="#linearGradient1027"
       id="linearGradient1029"
       x1="-1.2029998"
       y1="14.334795"
       x2="10.983719"
       y2="14.334795"
       gradientUnits="userSpaceOnUse" />
    <linearGradient
       xlink:href="#linearGradient1033"
       id="linearGradient1035"
       x1="-8.780899"
       y1="14.330109"
       x2="20.15568"
       y2="14.330109"
       gradientUnits="userSpaceOnUse"
       gradientTransform="translate(0.45401091,0.62219336)" />
    <linearGradient
       xlink:href="#linearGradient1027"
       id="linearGradient2569"
       gradientUnits="userSpaceOnUse"
       x1="-1.2029998"
       y1="14.334795"
       x2="10.983719"
       y2="14.334795" />
    <linearGradient
       inkscape:collect="always"
       xlink:href="#linearGradient1027"
       id="linearGradient327"
       gradientUnits="userSpaceOnUse"
       x1="-1.2029998"
       y1="14.334795"
       x2="10.983719"
       y2="14.334795"
       gradientTransform="translate(-5.9493788,-4.1862466)" />
    <linearGradient
       inkscape:collect="always"
       xlink:href="#linearGradient1027"
       id="linearGradient511"
       gradientUnits="userSpaceOnUse"
       gradientTransform="translate(-5.9493788,-4.1862466)"
       x1="-1.2029998"
       y1="14.334795"
       x2="10.983719"
       y2="14.334795" />
  </defs>
  <metadata
     id="metadata77">
    <rdf:RDF>
      <cc:Work
         rdf:about="">
        <dc:format>image/svg+xml</dc:format>
        <dc:type
           rdf:resource="http://purl.org/dc/dcmitype/StillImage" />
      </cc:Work>
    </rdf:RDF>
  </metadata>
  <g
     id="layer1"
     transform="translate(13.842136,5.2194147)">
    <g
       id="g509"
       transform="translate(0,-0.59255066)">
      <rect
         style="fill:#000000;fill-opacity:1;stroke:url(#linearGradient1035);stroke-width:0.79375;stroke-dasharray:none"
         id="rect303"
         width="28.936579"
         height="29.187744"
         x="-8.3268881"
         y="0.35843039"
         ry="0.97906625" />
      <g
         aria-label="$_"
         id="text1101"
         style="font-size:25.4001px;-inkscape-font-specification:sans-serif;fill:#00ff00;stroke:url(#linearGradient511);stroke-width:0.79375">
        <path
           d="m 3.2457899,10.392985 q -0.5334022,0 -0.7874032,-0.6096024 Q 2.1281854,8.4625774 -0.03082314,8.2339765 V 8.9197792 L -0.18322374,14.203 q 4.31801714,1.600207 4.31801714,5.537222 0,1.905008 -1.5240061,2.717811 -1.524006,0.812803 -3.32741316,0.812803 v 0.609603 q -0.0254001,0.431801 -0.30480124,0.711202 -0.2794011,0.279401 -0.5842023,0.279401 -0.7366029,0 -0.8636034,-0.914403 v -0.711203 q -1.4732058,-0.406402 -2.7178108,-1.295405 -1.2192048,-0.914404 -1.2192048,-1.828807 0,-0.381002 0.2286009,-0.635003 0.2286009,-0.254001 0.5334021,-0.254001 0.3302013,0 0.8890035,0.482602 0.0254,0.0254 0.4318017,0.406402 1.2954052,1.168404 1.9812079,1.422405 0.1016004,-1.219205 0.1270005,-2.997212 0.0254,-1.803407 0.1778007,-3.200412 -3.022612,-1.143005 -3.784615,-2.33681 -0.3048012,-0.508002 -0.3048012,-1.422405 0,-0.939804 0.508002,-2.0574084 0.508002,-1.1176044 1.4224056,-1.9304076 0.9398038,-0.8382033 2.1844087,-1.0922043 V 5.7955668 q 0.0508,-0.3810015 0.3048012,-0.5842023 0.254001,-0.2286009 0.5588022,-0.2286009 0.63500255,0 0.86360345,0.7366029 V 6.4305694 Q 1.3407823,6.5575699 2.5599871,7.3703731 3.779192,8.1831763 4.1601935,9.4531813 q -0.0508,0.5842027 -0.4826019,0.8382037 -0.1778007,0.1016 -0.4318017,0.1016 z m -5.1054203,1.092204 0.0762,-2.2860087 q 0,-0.6858027 -0.0254,-0.8890035 -1.0922043,0.2794011 -1.8288072,1.3208052 -0.736603,1.016004 -0.736603,2.057408 0.0762,1.117605 2.51461,1.905008 z m 4.1910166,8.559834 q 0,-1.574806 -0.6350025,-2.438409 -0.6096024,-0.863604 -2.10820835,-1.549406 -0.0762003,0.762003 -0.1270005,2.286009 -0.0254001,1.524006 -0.10160041,3.479813 2.97181176,-0.228601 2.97181176,-1.778007 z"
           style="font-family:'Patrick Hand';-inkscape-font-specification:'Patrick Hand'"
           id="path2179" />
        <path
           d="m 8.0972086,24.896443 q -1.0414042,0 -1.752607,0 -0.6096024,0 -0.6096024,-0.685803 0,-0.355602 0.2286009,-0.584202 0.2286009,-0.228601 0.6858027,-0.228601 3.7846152,0.0254 6.6294262,0.0254 2.870211,0 4.775219,-0.0254 0.635003,0 0.635003,0.711202 0,0.279402 -0.330202,0.533403 -0.330201,0.254001 -0.609602,0.254001 -0.990604,0.0254 -2.717811,0.0254 z"
           style="font-family:'Patrick Hand';-inkscape-font-specification:'Patrick Hand'"
           id="path2181" />
      </g>
    </g>
    <g
       transform="matrix(0.26458333,0,0,0.26458333,-786.78129,-477.41915)"
       id="g1026">
      <defs
         id="defs1005">
        <rect
           x="0"
           height="12.9"
           width="66.900002"
           y="0"
           id="rect1656" />
      </defs>
      <clipPath
         id="SVGID_2_-67">
        <use
           height="100%"
           width="100%"
           y="0"
           x="0"
           id="use1007-365"
           style="overflow:visible"
           xlink:href="#SVGID_1_" />
      </clipPath>
    </g>
    <text
       xml:space="preserve"
       style="font-style:normal;font-variant:normal;font-weight:normal;font-stretch:normal;font-size:4.23333px;line-height:1.25;font-family:'SF Cartoonist Hand SC';-inkscape-font-specification:'SF Cartoonist Hand SC';font-variant-ligatures:normal;font-variant-caps:normal;font-variant-numeric:normal;font-feature-settings:normal;text-align:start;letter-spacing:0px;word-spacing:0px;writing-mode:lr-tb;text-anchor:start;fill:#000000;fill-opacity:1;stroke:none;stroke-width:0.264583"
       x="2.0215223"
       y="-6.5003476"
       id="text1669" />
    <text
       id="text1673"
       y="25.431738"
       x="13.260739"
       style="font-style:normal;font-variant:normal;font-weight:600;font-stretch:normal;font-size:7.00594px;line-height:1.25;font-family:'URW Gothic L';-inkscape-font-specification:'URW Gothic L Semi-Bold';font-variant-ligatures:normal;font-variant-caps:normal;font-variant-numeric:normal;font-feature-settings:normal;text-align:start;letter-spacing:0px;word-spacing:0px;writing-mode:lr-tb;text-anchor:start;fill:#000000;fill-opacity:1;stroke:none;stroke-width:0.437871"
       xml:space="preserve" />
    <g
       aria-label="’d"
       style="font-style:normal;font-variant:normal;font-weight:bold;font-stretch:normal;font-size:9.72288px;line-height:1.25;font-family:'Open Sans Condensed';-inkscape-font-specification:'Open Sans Condensed, Bold';font-variant-ligatures:normal;font-variant-caps:normal;font-variant-numeric:normal;font-feature-settings:normal;text-align:start;letter-spacing:-0.0767292px;word-spacing:0px;writing-mode:lr-tb;text-anchor:start;fill:#ffffff;fill-opacity:1;stroke:none;stroke-width:0.60768"
       id="text1677" />
    <g
       aria-label="Shellscript"
       id="text1774"
       style="font-size:11.2889px;font-family:'Patrick Hand';-inkscape-font-specification:'Patrick Hand';stroke-width:0.79375">
      <path
         d="m 28.792726,9.166858 q 0.733779,0 1.241779,0.2483558 0.51929,0.2483558 0.51929,0.6321782 0,0.169334 -0.09031,0.293512 -0.07902,0.124178 -0.248356,0.124178 -0.158045,0 -0.699912,-0.248356 -0.541867,-0.259645 -0.993423,-0.259645 -0.440267,0 -0.914401,0.282223 -0.474134,0.282222 -0.474134,0.688622 0,0.553157 0.575734,0.812801 0.428978,0.191912 1.23049,0.349956 0.801512,0.146756 1.309512,0.62089 0.508001,0.462845 0.508001,1.411112 0,1.444979 -0.869245,2.133602 -0.485423,0.383823 -1.377246,0.383823 -0.880534,0 -1.761069,-0.485423 -0.575734,-0.3048 -0.575734,-0.6096 0,-0.112889 0.09031,-0.248356 0.1016,-0.135467 0.270933,-0.225778 0.169334,-0.09031 0.304801,-0.02258 0.146755,0.05645 0.462844,0.214489 0.31609,0.158045 0.462845,0.214489 0.474134,0.180623 0.891824,0.180623 0.417689,0 0.801511,-0.406401 0.395112,-0.417689 0.395112,-1.016001 0,-0.790223 -0.790223,-1.106312 -0.383823,-0.158045 -0.869245,-0.237067 -1.004713,-0.180622 -1.512713,-0.598312 -0.508001,-0.428978 -0.508001,-1.286934 0,-0.857957 0.733779,-1.3433794 0.733779,-0.4967116 1.885246,-0.4967116 z"
         id="path2184" />
      <path
         d="m 32.60837,12.982506 0.09031,2.664181 q 0,0.496711 -0.04516,0.575734 -0.02258,0.2032 -0.135467,0.316089 -0.1016,0.112889 -0.4064,0.112889 -0.146756,0 -0.237067,-0.180622 -0.09031,-0.191912 -0.1016,-0.428979 -0.07902,-1.986846 -0.214489,-3.725337 -0.124178,-1.749779 -0.124178,-3.2512031 0,-0.2370669 0.158044,-0.3725337 0.158045,-0.1354669 0.372534,-0.1354669 0.316089,0 0.372534,0.5418673 0.06773,0.5418672 0.07902,1.3546684 0.02258,0.8128 0.04516,1.185334 0.564445,-0.293511 1.12889,-0.293511 1.309512,0 1.659468,1.151468 0.2032,0.654756 0.2032,1.682046 0,0.338667 -0.06773,1.072445 -0.05645,0.72249 -0.06773,0.936979 -0.01129,0.214489 -0.191912,0.338667 -0.169333,0.112889 -0.372533,0.112889 -0.31609,0 -0.31609,-0.338667 l 0.07902,-1.964269 q 0,-0.248355 -0.02258,-0.824089 -0.02258,-0.575734 -0.237067,-0.914401 -0.2032,-0.338667 -0.72249,-0.338667 -0.92569,0 -0.92569,0.722489 z"
         id="path2186" />
      <path
         d="m 37.767399,11.413349 q 0.598312,0 1.140179,0.349956 0.541867,0.349956 0.541867,0.869245 0,0.508001 -0.440267,0.993424 -0.440267,0.474133 -1.174046,0.575734 -0.316089,0.04515 -0.948267,0.04515 0.124178,0.959557 0.485422,1.264357 0.112889,0.124178 0.304801,0.124178 0.699912,0 1.174045,-0.440267 0.474134,-0.451556 0.677334,-0.451556 0.09031,0 0.270934,0.169333 0.180622,0.169334 0.180622,0.316089 0,0.293512 -0.7112,0.846668 -0.316089,0.259645 -0.767646,0.440267 -0.440267,0.169334 -0.824089,0.169334 -0.982135,0 -1.444979,-1.264357 -0.293512,-0.778934 -0.293512,-1.715913 0,-0.936979 0.440267,-1.614313 0.440267,-0.677334 1.388535,-0.677334 z m 0.05644,0.778934 q -0.428978,0 -0.733778,0.485423 -0.112889,0.169333 -0.214489,0.767645 1.580446,0 1.580446,-0.778934 0,-0.474134 -0.632179,-0.474134 z"
         id="path2188" />
      <path
         d="m 44.732659,14.958064 q 0.395111,0 0.395111,0.666045 0,0.361245 -0.395111,0.72249 -0.383823,0.349956 -0.846668,0.349956 -0.688623,0 -1.016001,-0.699912 -0.146756,0.282222 -0.474134,0.496711 -0.316089,0.203201 -0.643467,0.203201 -0.316089,0 -0.553156,-0.124178 -0.225778,-0.135467 -0.372534,-0.395112 -0.135467,-0.259645 -0.225778,-0.496712 -0.07902,-0.248355 -0.124178,-0.598311 -0.05644,-0.564445 -0.09031,-1.806224 -0.02258,-1.253068 -0.02258,-2.381958 0,-1.1401792 0.02258,-1.5578685 0.03387,-0.4289782 0.135467,-0.5531561 0.112889,-0.1354668 0.338667,-0.1354668 0.496711,0 0.496711,0.3951115 0,0.3048003 -0.05644,1.5917349 -0.04516,1.286935 -0.04516,2.302936 0,1.016001 0.07902,1.63689 0.135466,1.083735 0.383822,1.083735 0.248356,0 0.383823,-0.349956 0.04516,-0.135467 0.169333,-0.237067 0.124178,-0.112889 0.31609,-0.112889 h 0.02258 q -0.1016,-0.993423 -0.1016,-3.093159 0,-2.1110242 0.02258,-2.5287135 0.03387,-0.4289782 0.135467,-0.5531561 0.112889,-0.1354668 0.338667,-0.1354668 0.496712,0 0.496712,0.3951115 0,0.3048003 -0.05645,1.5917349 -0.04516,1.286935 -0.04516,2.302936 0,1.016001 0.07902,1.63689 0.135467,1.083735 0.383822,1.083735 0.248356,0 0.383823,-0.349956 0.04516,-0.135467 0.169333,-0.237067 0.124178,-0.112889 0.31609,-0.112889 z"
         id="path2190" />
      <path
         d="m 45.692213,12.801884 q 0,-0.666045 0.474134,-1.061157 0.474134,-0.395111 1.095023,-0.395111 0.632178,0 1.207912,0.225778 0.575734,0.225778 0.575734,0.598311 0,0.191912 -0.146755,0.304801 -0.146756,0.112889 -0.259645,0.112889 -0.1016,0 -0.169334,0 -0.05644,-0.01129 -0.451556,-0.214489 -0.383822,-0.203201 -0.7112,-0.203201 -0.327378,0 -0.564445,0.169334 -0.225778,0.158045 -0.225778,0.474134 0,0.316089 0.259644,0.496711 0.270934,0.180623 0.936979,0.31609 0.666045,0.124178 1.016001,0.361244 0.361245,0.237067 0.361245,0.880535 0,0.936978 -0.496712,1.33209 -0.485422,0.383823 -1.185334,0.383823 -0.699912,0 -1.196624,-0.191912 -0.485422,-0.191911 -0.485422,-0.575734 0,-0.440267 0.440267,-0.440267 0.112889,0 0.496711,0.158045 0.383823,0.158044 0.756357,0.158044 0.383822,0 0.575734,-0.237067 0.2032,-0.248355 0.2032,-0.564445 0,-0.316089 -0.259645,-0.451556 -0.259645,-0.146755 -0.790223,-0.237066 -0.530578,-0.09031 -0.778934,-0.191912 -0.677334,-0.270933 -0.677334,-1.207912 z"
         id="path2192" />
      <path
         d="m 49.688487,13.998507 q 0,-0.756356 0.395111,-1.377246 0.4064,-0.620889 1.02729,-0.925689 0.62089,-0.31609 1.207912,-0.31609 0.587023,0 0.936979,0.146756 0.361245,0.135467 0.361245,0.372534 0,0.225778 -0.135467,0.462845 -0.124178,0.225778 -0.338667,0.225778 -0.07902,0 -0.440267,-0.124178 -0.349956,-0.135467 -0.451556,-0.135467 -0.654756,0 -1.117601,0.485423 -0.462845,0.474134 -0.462845,1.264357 0,0.790223 0.248356,1.185334 0.259644,0.383823 0.880534,0.383823 0.248356,0 0.846667,-0.282223 0.609601,-0.293511 0.756357,-0.293511 0.146755,0 0.237067,0.09031 0.09031,0.09031 0.09031,0.225778 0,0.270934 -0.349956,0.575734 -0.338667,0.293511 -0.846668,0.496712 -0.508,0.191911 -0.9144,0.191911 -0.903113,0 -1.422402,-0.711201 -0.508,-0.711201 -0.508,-1.941691 z"
         id="path2194" />
      <path
         d="m 55.682898,14.991931 0.01129,1.162756 q 0,0.203201 -0.191912,0.372534 -0.180622,0.169334 -0.361245,0.169334 -0.259644,0 -0.327378,-0.406401 -0.01129,-0.09031 -0.09031,-1.648179 -0.07902,-1.569158 -0.3048,-2.460981 -0.1016,-0.428978 -0.1016,-0.508 0,-0.372534 0.451556,-0.372534 0.191911,0 0.3048,0.146756 0.112889,0.146756 0.135467,0.3048 0.03387,0.146756 0.05644,0.406401 0.02258,0.259644 0.03387,0.327378 0.237067,-0.564445 0.711201,-0.846668 0.474134,-0.282222 1.038579,-0.282222 0.925689,0 0.925689,0.474133 0,0.237067 -0.169333,0.383823 -0.158045,0.135467 -0.372534,0.135467 -0.959556,0 -1.354668,0.6096 -0.395111,0.609601 -0.395111,2.032003 z"
         id="path2196" />
      <path
         d="m 59.317925,9.505525 q 0.2032,0 0.383822,0.1919113 0.180623,0.1919113 0.180623,0.4064007 0,0.2032 -0.203201,0.417689 -0.191911,0.214489 -0.4064,0.214489 -0.214489,0 -0.395112,-0.180622 -0.169333,-0.180623 -0.169333,-0.462845 0,-0.5418674 0.587023,-0.587023 0.01129,0 0.02258,0 z m 0.474133,5.915384 0.01129,0.790223 q 0,0.214489 -0.169333,0.361245 -0.169334,0.135466 -0.361245,0.135466 -0.282223,0 -0.293511,-0.282222 -0.146756,-3.601159 -0.146756,-3.984982 0,-0.383823 0.03387,-0.936979 0.02258,-0.2032 0.259644,-0.2032 0.598312,0 0.677334,0.485423 0.03387,0.248356 0.03387,0.395111 l -0.04516,0.711201 z"
         id="path2198" />
      <path
         d="m 62.885228,16.628821 q -0.383823,0 -0.711201,-0.259645 0,0 -0.146755,-0.124177 v 3.38667 q -0.06773,0.225778 -0.237067,0.372533 -0.169334,0.158045 -0.361245,0.158045 -0.293511,0 -0.293511,-0.395112 v -7.868363 q 0.06773,-0.293512 0.158044,-0.417689 0.1016,-0.124178 0.3048,-0.124178 0.21449,0 0.270934,0.1016 0.06773,0.09031 0.158045,0.519289 0.04515,-0.225778 0.361244,-0.417689 0.31609,-0.191911 0.846668,-0.191911 1.151468,0 1.636891,0.835378 0.485422,0.835379 0.485422,1.975558 0,1.12889 -0.666045,1.794935 -0.654756,0.654756 -1.806224,0.654756 z m -0.857956,-3.38667 v 2.099735 q 0.06773,0.03387 0.158044,0.112889 0.327378,0.293512 0.711201,0.293512 1.557868,0 1.557868,-1.603024 0,-1.365957 -0.699912,-1.727202 -0.293511,-0.158044 -0.722489,-0.158044 -0.41769,0.05644 -0.711201,0.372533 -0.293511,0.304801 -0.293511,0.609601 z"
         id="path2200" />
      <path
         d="m 66.21545,11.368194 0.564445,0.01129 q 0.191912,0 0.214489,-0.01129 V 9.053969 q 0.01129,-0.1919113 0.191912,-0.3273781 0.180622,-0.1354669 0.338667,-0.1354669 0.158044,0 0.248356,0.1016002 0.1016,0.1016001 0.09031,0.3160892 -0.01129,0.2144891 -0.01129,2.3480916 l 1.320801,-0.04516 q 0.338667,0 0.338667,0.395112 0,0.293511 -0.180622,0.440267 -0.169334,0.146755 -0.372534,0.158044 -0.191911,0.01129 -0.383823,0.01129 l -0.688622,-0.01129 q 0,0.462845 0.09031,1.828802 0.1016,1.365957 0.158044,1.772357 0.05644,0.395112 0.02258,0.51929 -0.03387,0.112889 -0.124178,0.158045 -0.146755,0.06773 -0.395111,0.06773 -0.248356,0 -0.293512,-0.270934 -0.225778,-1.478846 -0.3048,-4.064004 -0.1016,0.01129 -0.778934,0.01129 -0.677334,0 -0.677334,-0.395111 0,-0.564445 0.632178,-0.564445 z"
         id="path2202" />
    </g>
  </g>
  <style
     id="style1002"
     type="text/css">
	.st0{clip-path:url(#SVGID_2_);fill:#4967A9;}
</style>
</svg>
