<?xml version="1.0" encoding="UTF-8" standalone="no"?>
<!-- Created with Inkscape (http://www.inkscape.org/) -->

<svg
   width="418"
   height="148"
   viewBox="0 0 110.59616 39.158333"
   version="1.1"
   id="svg80"
   sodipodi:docname="typescript.svg"
   inkscape:version="1.2.2 (b0a8486541, 2022-12-01)"
   xml:space="preserve"
   xmlns:inkscape="http://www.inkscape.org/namespaces/inkscape"
   xmlns:sodipodi="http://sodipodi.sourceforge.net/DTD/sodipodi-0.dtd"
   xmlns:xlink="http://www.w3.org/1999/xlink"
   xmlns="http://www.w3.org/2000/svg"
   xmlns:svg="http://www.w3.org/2000/svg"
   xmlns:rdf="http://www.w3.org/1999/02/22-rdf-syntax-ns#"
   xmlns:cc="http://creativecommons.org/ns#"
   xmlns:dc="http://purl.org/dc/elements/1.1/"><sodipodi:namedview
     id="namedview62"
     pagecolor="#ffffff"
     bordercolor="#000000"
     borderopacity="0.25"
     inkscape:showpageshadow="2"
     inkscape:pageopacity="0.0"
     inkscape:pagecheckerboard="0"
     inkscape:deskcolor="#d1d1d1"
     showgrid="false"
     inkscape:zoom="5.1527447"
     inkscape:cx="168.64798"
     inkscape:cy="95.968271"
     inkscape:window-width="2560"
     inkscape:window-height="1400"
     inkscape:window-x="0"
     inkscape:window-y="40"
     inkscape:window-maximized="1"
     inkscape:current-layer="layer1" /><defs
     id="defs74"><linearGradient
       id="linearGradient1033"><stop
         style="stop-color:#000000;stop-opacity:1;"
         offset="0"
         id="stop1031" /></linearGradient><linearGradient
       id="linearGradient1027"><stop
         style="stop-color:#000000;stop-opacity:1;"
         offset="0"
         id="stop1025" /></linearGradient><clipPath
       id="SVGID_2_"><use
         xlink:href="#SVGID_1_"
         style="overflow:visible"
         id="use1007"
         x="0"
         y="0"
         width="100%"
         height="100%" /></clipPath><clipPath
       id="SVGID_2_-3"><use
         xlink:href="#SVGID_1_"
         style="overflow:visible"
         id="use1007-6"
         x="0"
         y="0"
         width="100%"
         height="100%" /></clipPath><clipPath
       id="SVGID_2_-5"><use
         xlink:href="#SVGID_1_"
         style="overflow:visible"
         id="use1007-3"
         x="0"
         y="0"
         width="100%"
         height="100%" /></clipPath><clipPath
       id="SVGID_2_-6"><use
         xlink:href="#SVGID_1_"
         style="overflow:visible"
         id="use1007-2"
         x="0"
         y="0"
         width="100%"
         height="100%" /></clipPath><clipPath
       id="SVGID_2_-1"><use
         xlink:href="#SVGID_1_"
         style="overflow:visible"
         id="use1007-27"
         x="0"
         y="0"
         width="100%"
         height="100%" /></clipPath><clipPath
       id="SVGID_2_-9"><use
         xlink:href="#SVGID_1_"
         style="overflow:visible"
         id="use1007-36"
         x="0"
         y="0"
         width="100%"
         height="100%" /></clipPath><clipPath
       id="SVGID_2_-2"><use
         xlink:href="#SVGID_1_"
         style="overflow:visible"
         id="use1007-61"
         x="0"
         y="0"
         width="100%"
         height="100%" /></clipPath><clipPath
       id="SVGID_2_-7"><use
         xlink:href="#SVGID_1_"
         style="overflow:visible"
         id="use1007-9"
         x="0"
         y="0"
         width="100%"
         height="100%" /></clipPath><clipPath
       id="SVGID_2_-0"><use
         xlink:href="#SVGID_1_"
         style="overflow:visible"
         id="use1007-23"
         x="0"
         y="0"
         width="100%"
         height="100%" /></clipPath><clipPath
       id="SVGID_2_-92"><use
         xlink:href="#SVGID_1_"
         style="overflow:visible"
         id="use1007-28"
         x="0"
         y="0"
         width="100%"
         height="100%" /></clipPath><clipPath
       id="SVGID_2_-36"><use
         xlink:href="#SVGID_1_"
         style="overflow:visible"
         id="use1007-1"
         x="0"
         y="0"
         width="100%"
         height="100%" /></clipPath><clipPath
       id="SVGID_2_-31"><use
         xlink:href="#SVGID_1_"
         style="overflow:visible"
         id="use1007-94"
         x="0"
         y="0"
         width="100%"
         height="100%" /></clipPath><clipPath
       id="SVGID_2_-4"><use
         xlink:href="#SVGID_1_"
         style="overflow:visible"
         id="use1007-5"
         x="0"
         y="0"
         width="100%"
         height="100%" /></clipPath><clipPath
       id="SVGID_2_-61"><use
         xlink:href="#SVGID_1_"
         style="overflow:visible"
         id="use1007-0"
         x="0"
         y="0"
         width="100%"
         height="100%" /></clipPath><clipPath
       id="SVGID_2_-32"><use
         xlink:href="#SVGID_1_"
         style="overflow:visible"
         id="use1007-06"
         x="0"
         y="0"
         width="100%"
         height="100%" /></clipPath><rect
       x="0"
       height="12.9"
       width="66.900002"
       y="0"
       id="SVGID_1_" /><clipPath
       id="clipPath4674"
       clipPathUnits="userSpaceOnUse"><path
         id="path4676"
         d="M 0,500 H 1024 V 0 H 0 Z" /></clipPath><linearGradient
       xlink:href="#linearGradient1027"
       id="linearGradient1029"
       x1="-1.2029998"
       y1="14.334795"
       x2="10.983719"
       y2="14.334795"
       gradientUnits="userSpaceOnUse" /><linearGradient
       xlink:href="#linearGradient1033"
       id="linearGradient1035"
       x1="-8.780899"
       y1="14.330109"
       x2="20.15568"
       y2="14.330109"
       gradientUnits="userSpaceOnUse"
       gradientTransform="translate(0.45401091,0.0296427)" /><linearGradient
       xlink:href="#linearGradient1027"
       id="linearGradient2569"
       gradientUnits="userSpaceOnUse"
       x1="-1.2029998"
       y1="14.334795"
       x2="10.983719"
       y2="14.334795" /><linearGradient
       inkscape:collect="always"
       xlink:href="#linearGradient1027"
       id="linearGradient327"
       gradientUnits="userSpaceOnUse"
       x1="-1.2029998"
       y1="14.334795"
       x2="10.983719"
       y2="14.334795"
       gradientTransform="translate(-5.9493788,-4.1862466)" /><linearGradient
       inkscape:collect="always"
       xlink:href="#linearGradient1027"
       id="linearGradient511"
       gradientUnits="userSpaceOnUse"
       gradientTransform="translate(-5.9493788,-4.1862466)"
       x1="-1.2029998"
       y1="14.334795"
       x2="10.983719"
       y2="14.334795" /></defs><metadata
     id="metadata77"><rdf:RDF><cc:Work
         rdf:about=""><dc:format>image/svg+xml</dc:format><dc:type
           rdf:resource="http://purl.org/dc/dcmitype/StillImage" /></cc:Work></rdf:RDF></metadata><g
     id="layer1"
     transform="translate(13.842136,5.2194147)"><rect
       style="fill:#007acc;fill-opacity:1;stroke:none;stroke-width:0.79375;stroke-dasharray:none"
       id="rect303"
       width="28.936579"
       height="29.187744"
       x="-8.3268881"
       y="-0.23412028"
       ry="0.97906625" /><g
       aria-label="TS"
       id="text1101"
       style="font-size:19.7556px;-inkscape-font-specification:sans-serif;fill:#ffffff;stroke:#ffffff;stroke-width:0.79375"><path
         d="m 2.3018753,13.936548 8.0010177,-0.118533 q 0.572913,0.1778 0.572913,0.572912 0,0.98778 -0.80998,0.98778 -1.4816699,0 -3.1411403,0.07902 -0.098778,1.698982 -0.098778,2.568228 0,0.849491 0,1.086558 l 0.079022,6.934216 q 0,0.612424 -0.3160896,0.711202 -0.2370672,0.07902 -0.592668,0.07902 -0.5729124,0 -0.6321792,-0.651935 -0.1185336,-1.521181 -0.1185336,-5.669857 0,-4.168432 0.1185336,-5.017922 -0.4148676,0.01975 -1.2248472,0.01975 -0.8099796,0 -2.0150712,-0.01975 -0.3160896,0 -0.49389,-0.197556 -0.1778004,-0.197556 -0.1778004,-0.474135 0,-0.296334 0.2370672,-0.572912 0.2568228,-0.276579 0.6124236,-0.31609 z"
         style="font-family:'Patrick Hand';-inkscape-font-specification:'Patrick Hand'"
         id="path2484" /><path
         d="m 15.933248,13.679725 q 1.284114,0 2.173116,0.434624 0.908757,0.434623 0.908757,1.106313 0,0.296334 -0.158044,0.513646 -0.13829,0.217311 -0.434624,0.217311 -0.276578,0 -1.224847,-0.434623 -0.948269,-0.454379 -1.738493,-0.454379 -0.770468,0 -1.600203,0.49389 -0.829735,0.49389 -0.829735,1.205092 0,0.968024 1.007535,1.422403 0.750713,0.335845 2.153361,0.612424 1.402647,0.256823 2.291649,1.086558 0.889002,0.809979 0.889002,2.46945 0,2.528717 -1.521181,3.733808 -0.849491,0.671691 -2.410183,0.671691 -1.540937,0 -3.081874,-0.849491 -1.007535,-0.533401 -1.007535,-1.066803 0,-0.197556 0.158044,-0.434623 0.177801,-0.237067 0.474135,-0.395112 0.296334,-0.158045 0.533401,-0.03951 0.256823,0.09878 0.80998,0.375356 0.553156,0.276579 0.809979,0.375357 0.829735,0.316089 1.560693,0.316089 0.730957,0 1.402647,-0.711201 0.691446,-0.730957 0.691446,-1.778004 0,-1.382892 -1.382892,-1.936049 -0.67169,-0.276578 -1.521181,-0.414868 -1.758248,-0.316089 -2.64725,-1.047046 -0.889002,-0.750713 -0.889002,-2.252139 0,-1.501425 1.284114,-2.350916 1.284114,-0.869247 3.299185,-0.869247 z"
         style="font-family:'Patrick Hand';-inkscape-font-specification:'Patrick Hand'"
         id="path2486" /></g><g
       transform="matrix(0.26458333,0,0,0.26458333,-786.78129,-477.41915)"
       id="g1026"><defs
         id="defs1005"><rect
           x="0"
           height="12.9"
           width="66.900002"
           y="0"
           id="rect1656" /></defs><clipPath
         id="SVGID_2_-67"><use
           height="100%"
           width="100%"
           y="0"
           x="0"
           id="use1007-365"
           style="overflow:visible"
           xlink:href="#SVGID_1_" /></clipPath></g><text
       xml:space="preserve"
       style="font-style:normal;font-variant:normal;font-weight:normal;font-stretch:normal;font-size:4.23333px;line-height:1.25;font-family:'SF Cartoonist Hand SC';-inkscape-font-specification:'SF Cartoonist Hand SC';font-variant-ligatures:normal;font-variant-caps:normal;font-variant-numeric:normal;font-feature-settings:normal;text-align:start;letter-spacing:0px;word-spacing:0px;writing-mode:lr-tb;text-anchor:start;fill:#000000;fill-opacity:1;stroke:none;stroke-width:0.264583"
       x="2.0215223"
       y="-6.5003476"
       id="text1669" /><text
       id="text1673"
       y="25.431738"
       x="13.260739"
       style="font-style:normal;font-variant:normal;font-weight:600;font-stretch:normal;font-size:7.00594px;line-height:1.25;font-family:'URW Gothic L';-inkscape-font-specification:'URW Gothic L Semi-Bold';font-variant-ligatures:normal;font-variant-caps:normal;font-variant-numeric:normal;font-feature-settings:normal;text-align:start;letter-spacing:0px;word-spacing:0px;writing-mode:lr-tb;text-anchor:start;fill:#000000;fill-opacity:1;stroke:none;stroke-width:0.437871"
       xml:space="preserve" /><g
       aria-label="’d"
       style="font-style:normal;font-variant:normal;font-weight:bold;font-stretch:normal;font-size:9.72288px;line-height:1.25;font-family:'Open Sans Condensed';-inkscape-font-specification:'Open Sans Condensed, Bold';font-variant-ligatures:normal;font-variant-caps:normal;font-variant-numeric:normal;font-feature-settings:normal;text-align:start;letter-spacing:-0.0767292px;word-spacing:0px;writing-mode:lr-tb;text-anchor:start;fill:#ffffff;fill-opacity:1;stroke:none;stroke-width:0.60768"
       id="text1677" /><g
       aria-label="Typescript"
       id="text1774"
       style="font-size:11.2889px;font-family:'Patrick Hand';-inkscape-font-specification:'Patrick Hand';fill:#007acc;stroke-width:0.396876"><path
         d="m 24.138107,9.2966802 4.572005,-0.067733 q 0.327378,0.1016001 0.327378,0.3273781 0,0.5644451 -0.462845,0.5644451 -0.846667,0 -1.794935,0.04516 -0.05645,0.970845 -0.05645,1.467557 0,0.485422 0,0.620889 l 0.04516,3.962404 q 0,0.349956 -0.180622,0.406401 -0.135467,0.04516 -0.338667,0.04516 -0.327379,0 -0.361245,-0.372534 -0.06773,-0.869245 -0.06773,-3.239914 0,-2.381958 0.06773,-2.867381 -0.237067,0.01129 -0.699912,0.01129 -0.462845,0 -1.151468,-0.01129 -0.180622,0 -0.282222,-0.112889 -0.101601,-0.1128886 -0.101601,-0.2709333 0,-0.1693335 0.135467,-0.3273781 0.146756,-0.1580446 0.349956,-0.1806224 z"
         id="path2489" /><path
         d="m 32.954743,11.407705 q 0.146756,0 0.282222,0.1016 0.146756,0.1016 0.146756,0.225778 0,0.327378 -0.959557,3.544714 -0.959556,3.217337 -1.422401,4.515561 -0.1016,0.3048 -0.316089,0.3048 -0.214489,0 -0.338667,-0.158045 -0.124178,-0.146755 -0.124178,-0.440267 0,-0.293511 0.372534,-1.411112 0.383822,-1.106313 0.462845,-1.411113 -0.282223,-0.474134 -1.907825,-4.741338 -0.02258,-0.05645 -0.02258,-0.146756 0,-0.09031 0.135466,-0.237067 0.135467,-0.146755 0.372534,-0.146755 0.237067,0 0.383823,0.237067 0.158044,0.4064 0.519289,1.422401 0.361245,1.004712 0.553156,1.456268 0.2032,0.451556 0.383823,0.936979 0.158044,-0.530578 0.541867,-2.05458 0.383823,-1.53529 0.440267,-1.74978 0.04516,-0.248355 0.496712,-0.248355 z"
         id="path2491" /><path
         d="m 35.912438,16.611888 q -0.383822,0 -0.7112,-0.259645 0,0 -0.146756,-0.124178 v 3.38667 q -0.06773,0.225778 -0.237067,0.372534 -0.169334,0.158044 -0.361245,0.158044 -0.293511,0 -0.293511,-0.395111 v -7.868364 q 0.06773,-0.293511 0.158044,-0.417689 0.1016,-0.124178 0.304801,-0.124178 0.214489,0 0.270933,0.1016 0.06773,0.09031 0.158045,0.51929 0.04516,-0.225778 0.361245,-0.41769 0.316089,-0.191911 0.846667,-0.191911 1.151468,0 1.636891,0.835379 0.485422,0.835378 0.485422,1.975557 0,1.12889 -0.666045,1.794935 -0.654756,0.654757 -1.806224,0.654757 z m -0.857956,-3.38667 v 2.099735 q 0.06773,0.03387 0.158044,0.112889 0.327379,0.293511 0.711201,0.293511 1.557868,0 1.557868,-1.603023 0,-1.365957 -0.699911,-1.727202 -0.293512,-0.158045 -0.72249,-0.158045 -0.417689,0.05645 -0.711201,0.372534 -0.293511,0.3048 -0.293511,0.609601 z"
         id="path2493" /><path
         d="m 40.586038,11.396416 q 0.598311,0 1.140179,0.349956 0.541867,0.349956 0.541867,0.869245 0,0.508 -0.440267,0.993423 -0.440267,0.474134 -1.174046,0.575734 -0.316089,0.04516 -0.948267,0.04516 0.124177,0.959556 0.485422,1.264357 0.112889,0.124177 0.304801,0.124177 0.699911,0 1.174045,-0.440267 0.474134,-0.451556 0.677334,-0.451556 0.09031,0 0.270934,0.169334 0.180622,0.169333 0.180622,0.316089 0,0.293511 -0.7112,0.846668 -0.31609,0.259644 -0.767646,0.440267 -0.440267,0.169333 -0.824089,0.169333 -0.982135,0 -1.44498,-1.264357 -0.293511,-0.778934 -0.293511,-1.715913 0,-0.936978 0.440267,-1.614312 0.440267,-0.677334 1.388535,-0.677334 z m 0.05644,0.778934 q -0.428978,0 -0.733778,0.485423 -0.112889,0.169333 -0.214489,0.767645 1.580446,0 1.580446,-0.778934 0,-0.474134 -0.632179,-0.474134 z"
         id="path2495" /><path
         d="m 43.645338,12.78495 q 0,-0.666045 0.474134,-1.061156 0.474134,-0.395112 1.095023,-0.395112 0.632178,0 1.207912,0.225778 0.575734,0.225778 0.575734,0.598312 0,0.191911 -0.146755,0.3048 -0.146756,0.112889 -0.259645,0.112889 -0.1016,0 -0.169334,0 -0.05644,-0.01129 -0.451556,-0.214489 -0.383822,-0.2032 -0.7112,-0.2032 -0.327378,0 -0.564445,0.169334 -0.225778,0.158044 -0.225778,0.474133 0,0.31609 0.259644,0.496712 0.270934,0.180622 0.936979,0.316089 0.666045,0.124178 1.016001,0.361245 0.361245,0.237067 0.361245,0.880534 0,0.936979 -0.496712,1.33209 -0.485422,0.383823 -1.185334,0.383823 -0.699912,0 -1.196624,-0.191911 -0.485422,-0.191912 -0.485422,-0.575734 0,-0.440267 0.440267,-0.440267 0.112889,0 0.496711,0.158044 0.383823,0.158045 0.756357,0.158045 0.383822,0 0.575734,-0.237067 0.2032,-0.248356 0.2032,-0.564445 0,-0.316089 -0.259645,-0.451556 -0.259645,-0.146756 -0.790223,-0.237067 -0.530578,-0.09031 -0.778934,-0.191911 -0.677334,-0.270934 -0.677334,-1.207913 z"
         id="path2497" /><path
         d="m 47.641612,13.981574 q 0,-0.756356 0.395111,-1.377246 0.4064,-0.620889 1.02729,-0.92569 0.62089,-0.316089 1.207912,-0.316089 0.587023,0 0.936979,0.146756 0.361245,0.135467 0.361245,0.372533 0,0.225778 -0.135467,0.462845 -0.124178,0.225778 -0.338667,0.225778 -0.07902,0 -0.440267,-0.124178 -0.349956,-0.135466 -0.451556,-0.135466 -0.654756,0 -1.117601,0.485422 -0.462845,0.474134 -0.462845,1.264357 0,0.790223 0.248356,1.185335 0.259644,0.383822 0.880534,0.383822 0.248356,0 0.846667,-0.282222 0.609601,-0.293512 0.756357,-0.293512 0.146755,0 0.237067,0.09031 0.09031,0.09031 0.09031,0.225778 0,0.270933 -0.349956,0.575734 -0.338667,0.293511 -0.846668,0.496711 -0.508,0.191911 -0.9144,0.191911 -0.903113,0 -1.422402,-0.7112 -0.508,-0.711201 -0.508,-1.941691 z"
         id="path2499" /><path
         d="m 53.636023,14.974997 0.01129,1.162757 q 0,0.2032 -0.191912,0.372534 -0.180622,0.169333 -0.361245,0.169333 -0.259644,0 -0.327378,-0.4064 -0.01129,-0.09031 -0.09031,-1.64818 -0.07902,-1.569157 -0.3048,-2.46098 -0.1016,-0.428978 -0.1016,-0.508001 0,-0.372533 0.451556,-0.372533 0.191911,0 0.3048,0.146755 0.112889,0.146756 0.135467,0.304801 0.03387,0.146755 0.05644,0.4064 0.02258,0.259645 0.03387,0.327378 0.237067,-0.564445 0.711201,-0.846667 0.474134,-0.282223 1.038579,-0.282223 0.925689,0 0.925689,0.474134 0,0.237067 -0.169333,0.383823 -0.158045,0.135466 -0.372534,0.135466 -0.959556,0 -1.354668,0.609601 -0.395111,0.609601 -0.395111,2.032002 z"
         id="path2501" /><path
         d="m 57.27105,9.4885915 q 0.2032,0 0.383822,0.1919113 0.180623,0.1919114 0.180623,0.4064002 0,0.2032 -0.203201,0.41769 -0.191911,0.214489 -0.4064,0.214489 -0.214489,0 -0.395112,-0.180623 -0.169333,-0.180622 -0.169333,-0.462845 0,-0.5418669 0.587023,-0.5870225 0.01129,0 0.02258,0 z m 0.474133,5.9153835 0.01129,0.790223 q 0,0.214489 -0.169333,0.361245 -0.169334,0.135467 -0.361245,0.135467 -0.282223,0 -0.293511,-0.282223 -0.146756,-3.601159 -0.146756,-3.984981 0,-0.383823 0.03387,-0.936979 0.02258,-0.2032 0.259644,-0.2032 0.598312,0 0.677334,0.485422 0.03387,0.248356 0.03387,0.395112 l -0.04516,0.711201 z"
         id="path2503" /><path
         d="m 60.838353,16.611888 q -0.383823,0 -0.711201,-0.259645 0,0 -0.146755,-0.124178 v 3.38667 q -0.06773,0.225778 -0.237067,0.372534 -0.169334,0.158044 -0.361245,0.158044 -0.293511,0 -0.293511,-0.395111 v -7.868364 q 0.06773,-0.293511 0.158044,-0.417689 0.1016,-0.124178 0.3048,-0.124178 0.21449,0 0.270934,0.1016 0.06773,0.09031 0.158045,0.51929 0.04515,-0.225778 0.361244,-0.41769 0.31609,-0.191911 0.846668,-0.191911 1.151468,0 1.636891,0.835379 0.485422,0.835378 0.485422,1.975557 0,1.12889 -0.666045,1.794935 -0.654756,0.654757 -1.806224,0.654757 z m -0.857956,-3.38667 v 2.099735 q 0.06773,0.03387 0.158044,0.112889 0.327378,0.293511 0.711201,0.293511 1.557868,0 1.557868,-1.603023 0,-1.365957 -0.699912,-1.727202 -0.293511,-0.158045 -0.722489,-0.158045 -0.41769,0.05645 -0.711201,0.372534 -0.293511,0.3048 -0.293511,0.609601 z"
         id="path2505" /><path
         d="m 64.168575,11.35126 0.564445,0.01129 q 0.191912,0 0.214489,-0.01129 V 9.0370355 q 0.01129,-0.1919113 0.191912,-0.3273781 0.180622,-0.1354668 0.338667,-0.1354668 0.158044,0 0.248356,0.1016001 0.1016,0.1016001 0.09031,0.3160892 -0.01129,0.2144891 -0.01129,2.3480911 l 1.320801,-0.04515 q 0.338667,0 0.338667,0.395111 0,0.293512 -0.180622,0.440267 -0.169334,0.146756 -0.372534,0.158045 -0.191911,0.01129 -0.383823,0.01129 l -0.688622,-0.01129 q 0,0.462845 0.09031,1.828802 0.1016,1.365957 0.158044,1.772357 0.05644,0.395112 0.02258,0.519289 -0.03387,0.112889 -0.124178,0.158045 -0.146755,0.06773 -0.395111,0.06773 -0.248356,0 -0.293512,-0.270933 -0.225778,-1.478846 -0.3048,-4.064004 -0.1016,0.01129 -0.778934,0.01129 -0.677334,0 -0.677334,-0.395112 0,-0.564445 0.632178,-0.564445 z"
         id="path2507" /></g></g><style
     id="style1002"
     type="text/css">
	.st0{clip-path:url(#SVGID_2_);fill:#4967A9;}
</style></svg>
