<?xml version="1.0" encoding="UTF-8" standalone="no"?>
<!-- Created with Inkscape (http://www.inkscape.org/) -->

<svg
   version="1.1"
   id="svg2"
   width="192"
   height="192"
   viewBox="0 0 192 192"
   xmlns="http://www.w3.org/2000/svg"
   xmlns:svg="http://www.w3.org/2000/svg">
  <defs
     id="defs6" />
  <style
     id="style3">
   rect {
      fill: #fbf1c7;
   }
   #path308 {
      fill: #282828;
   }
   @media (prefers-color-scheme: dark) {
      #path308 {
         fill: #fbf1c7;
      }
      rect {
         fill: #282828;
      }
   }
</style>
  <g
     id="g8">
    <rect
       style="fill-opacity:1;stroke-width:2.98644"
       id="rect899"
       width="192"
       height="192"
       x="0"
       y="0"
       ry="33.968811" />
    <g
       aria-label="C"
       id="text1231"
       style="font-size:192px;font-family:'Patrick Hand';-inkscape-font-specification:'Patrick Hand';fill:#fbf1c7;stroke-width:3">
      <path
         d="m 108.288,33.312005 q 12.864,0 28.416,4.992 3.456,2.688 3.456,5.952 0,3.072 -3.264,5.568 -3.072,2.304 -7.104,2.304 -10.368,-2.688 -19.392,-2.688 -20.735999,0 -31.487999,12.288 -10.752,12.288 -10.752,36.48 0,24.191995 12.672,37.823995 6.528,7.104 15.552,7.104 9.023999,0 28.799999,-9.6 6.912,-3.264 9.216,-3.264 4.992,0 4.992,5.184 0,5.184 -4.8,8.64 -16.512,8.64 -25.728,11.712 -9.215999,2.88 -15.935999,2.88 -13.824,0 -23.616,-10.176 -17.472,-18.816 -17.472,-51.263995 0,-32.64 16.512,-48.192 16.704,-15.744 39.935999,-15.744 z"
         id="path308" />
    </g>
  </g>
</svg>
