<?xml version="1.0" encoding="UTF-8" standalone="no"?>
<!-- Created with Inkscape (http://www.inkscape.org/) -->

<svg
   width="418"
   height="148"
   viewBox="0 0 110.59616 39.158333"
   version="1.1"
   id="svg80"
   xml:space="preserve"
   xmlns:xlink="http://www.w3.org/1999/xlink"
   xmlns="http://www.w3.org/2000/svg"
   xmlns:svg="http://www.w3.org/2000/svg"
   xmlns:rdf="http://www.w3.org/1999/02/22-rdf-syntax-ns#"
   xmlns:cc="http://creativecommons.org/ns#"
   xmlns:dc="http://purl.org/dc/elements/1.1/"><defs
     id="defs74"><linearGradient
       id="linearGradient5837"><stop
         style="stop-color:#000000;stop-opacity:1;"
         offset="0"
         id="stop5835" /></linearGradient><linearGradient
       id="linearGradient2855"><stop
         style="stop-color:#000000;stop-opacity:1;"
         offset="0"
         id="stop2853" /></linearGradient><linearGradient
       id="linearGradient1033"><stop
         style="stop-color:#000000;stop-opacity:1;"
         offset="0"
         id="stop1031" /></linearGradient><linearGradient
       id="linearGradient1027"><stop
         style="stop-color:#000000;stop-opacity:1;"
         offset="0"
         id="stop1025" /></linearGradient><clipPath
       id="SVGID_2_"><use
         xlink:href="#SVGID_1_"
         style="overflow:visible"
         id="use1007"
         x="0"
         y="0"
         width="100%"
         height="100%" /></clipPath><clipPath
       id="SVGID_2_-3"><use
         xlink:href="#SVGID_1_"
         style="overflow:visible"
         id="use1007-6"
         x="0"
         y="0"
         width="100%"
         height="100%" /></clipPath><clipPath
       id="SVGID_2_-5"><use
         xlink:href="#SVGID_1_"
         style="overflow:visible"
         id="use1007-3"
         x="0"
         y="0"
         width="100%"
         height="100%" /></clipPath><clipPath
       id="SVGID_2_-6"><use
         xlink:href="#SVGID_1_"
         style="overflow:visible"
         id="use1007-2"
         x="0"
         y="0"
         width="100%"
         height="100%" /></clipPath><clipPath
       id="SVGID_2_-1"><use
         xlink:href="#SVGID_1_"
         style="overflow:visible"
         id="use1007-27"
         x="0"
         y="0"
         width="100%"
         height="100%" /></clipPath><clipPath
       id="SVGID_2_-9"><use
         xlink:href="#SVGID_1_"
         style="overflow:visible"
         id="use1007-36"
         x="0"
         y="0"
         width="100%"
         height="100%" /></clipPath><clipPath
       id="SVGID_2_-2"><use
         xlink:href="#SVGID_1_"
         style="overflow:visible"
         id="use1007-61"
         x="0"
         y="0"
         width="100%"
         height="100%" /></clipPath><clipPath
       id="SVGID_2_-7"><use
         xlink:href="#SVGID_1_"
         style="overflow:visible"
         id="use1007-9"
         x="0"
         y="0"
         width="100%"
         height="100%" /></clipPath><clipPath
       id="SVGID_2_-0"><use
         xlink:href="#SVGID_1_"
         style="overflow:visible"
         id="use1007-23"
         x="0"
         y="0"
         width="100%"
         height="100%" /></clipPath><clipPath
       id="SVGID_2_-92"><use
         xlink:href="#SVGID_1_"
         style="overflow:visible"
         id="use1007-28"
         x="0"
         y="0"
         width="100%"
         height="100%" /></clipPath><clipPath
       id="SVGID_2_-36"><use
         xlink:href="#SVGID_1_"
         style="overflow:visible"
         id="use1007-1"
         x="0"
         y="0"
         width="100%"
         height="100%" /></clipPath><clipPath
       id="SVGID_2_-31"><use
         xlink:href="#SVGID_1_"
         style="overflow:visible"
         id="use1007-94"
         x="0"
         y="0"
         width="100%"
         height="100%" /></clipPath><clipPath
       id="SVGID_2_-4"><use
         xlink:href="#SVGID_1_"
         style="overflow:visible"
         id="use1007-5"
         x="0"
         y="0"
         width="100%"
         height="100%" /></clipPath><clipPath
       id="SVGID_2_-61"><use
         xlink:href="#SVGID_1_"
         style="overflow:visible"
         id="use1007-0"
         x="0"
         y="0"
         width="100%"
         height="100%" /></clipPath><clipPath
       id="SVGID_2_-32"><use
         xlink:href="#SVGID_1_"
         style="overflow:visible"
         id="use1007-06"
         x="0"
         y="0"
         width="100%"
         height="100%" /></clipPath><rect
       x="0"
       height="12.9"
       width="66.900002"
       y="0"
       id="SVGID_1_" /><clipPath
       id="clipPath4674"
       clipPathUnits="userSpaceOnUse"><path
         id="path4676"
         d="M 0,500 H 1024 V 0 H 0 Z" /></clipPath><linearGradient
       xlink:href="#linearGradient1027"
       id="linearGradient1029"
       x1="-1.2029998"
       y1="14.334795"
       x2="10.983719"
       y2="14.334795"
       gradientUnits="userSpaceOnUse" /><linearGradient
       xlink:href="#linearGradient1033"
       id="linearGradient1035"
       x1="-8.780899"
       y1="14.330109"
       x2="20.15568"
       y2="14.330109"
       gradientUnits="userSpaceOnUse"
       gradientTransform="translate(14.296147,5.8416081)" /><linearGradient
       xlink:href="#linearGradient1027"
       id="linearGradient2569"
       gradientUnits="userSpaceOnUse"
       x1="-1.2029998"
       y1="14.334795"
       x2="10.983719"
       y2="14.334795"
       gradientTransform="translate(14.296147,5.8416081)" /><linearGradient
       xlink:href="#linearGradient5837"
       id="linearGradient5839"
       x1="45.932673"
       y1="-36.435273"
       x2="64.928802"
       y2="-36.435273"
       gradientUnits="userSpaceOnUse" /><linearGradient
       xlink:href="#linearGradient5837"
       id="linearGradient5841"
       gradientUnits="userSpaceOnUse"
       x1="45.932673"
       y1="-36.435273"
       x2="64.928802"
       y2="-36.435273" /><linearGradient
       xlink:href="#linearGradient5837"
       id="linearGradient5843"
       gradientUnits="userSpaceOnUse"
       x1="45.932673"
       y1="-36.435273"
       x2="64.928802"
       y2="-36.435273" /><linearGradient
       xlink:href="#linearGradient5837"
       id="linearGradient5845"
       gradientUnits="userSpaceOnUse"
       x1="45.932673"
       y1="-36.435273"
       x2="64.928802"
       y2="-36.435273" /><linearGradient
       xlink:href="#linearGradient5837"
       id="linearGradient5847"
       gradientUnits="userSpaceOnUse"
       x1="45.932673"
       y1="-36.435273"
       x2="64.928802"
       y2="-36.435273" /><linearGradient
       xlink:href="#linearGradient5837"
       id="linearGradient5849"
       gradientUnits="userSpaceOnUse"
       x1="45.932673"
       y1="-36.435273"
       x2="64.928802"
       y2="-36.435273" /><linearGradient
       xlink:href="#linearGradient5837"
       id="linearGradient5851"
       gradientUnits="userSpaceOnUse"
       x1="45.932673"
       y1="-36.435273"
       x2="64.928802"
       y2="-36.435273" /><linearGradient
       xlink:href="#linearGradient5837"
       id="linearGradient5853"
       gradientUnits="userSpaceOnUse"
       x1="45.932673"
       y1="-36.435273"
       x2="64.928802"
       y2="-36.435273" /></defs><metadata
     id="metadata77"><rdf:RDF><cc:Work
         rdf:about=""><dc:format>image/svg+xml</dc:format><dc:type
           rdf:resource="http://purl.org/dc/dcmitype/StillImage" /></cc:Work></rdf:RDF></metadata><rect
     style="fill:#1d9bf0;fill-opacity:1;stroke:url(#linearGradient1035);stroke-width:0.79375;stroke-dasharray:none"
     id="rect303"
     width="28.936579"
     height="29.187744"
     x="5.5152478"
     y="5.5778451"
     ry="0.97906625" /><g
     transform="matrix(0.26458333,0,0,0.26458333,-772.93915,-472.19974)"
     id="g1026"><defs
       id="defs1005"><rect
         x="0"
         height="12.9"
         width="66.900002"
         y="0"
         id="rect1656" /></defs><clipPath
       id="SVGID_2_-67"><use
         height="100%"
         width="100%"
         y="0"
         x="0"
         id="use1007-365"
         style="overflow:visible"
         xlink:href="#SVGID_1_" /></clipPath></g><text
     xml:space="preserve"
     style="font-style:normal;font-variant:normal;font-weight:normal;font-stretch:normal;font-size:4.23333px;line-height:1.25;font-family:'SF Cartoonist Hand SC';-inkscape-font-specification:'SF Cartoonist Hand SC';font-variant-ligatures:normal;font-variant-caps:normal;font-variant-numeric:normal;font-feature-settings:normal;text-align:start;letter-spacing:0px;word-spacing:0px;writing-mode:lr-tb;text-anchor:start;fill:#000000;fill-opacity:1;stroke:none;stroke-width:0.264583"
     x="15.863658"
     y="-1.2809329"
     id="text1669" /><text
     id="text1673"
     y="30.651152"
     x="27.102875"
     style="font-style:normal;font-variant:normal;font-weight:600;font-stretch:normal;font-size:7.00594px;line-height:1.25;font-family:'URW Gothic L';-inkscape-font-specification:'URW Gothic L Semi-Bold';font-variant-ligatures:normal;font-variant-caps:normal;font-variant-numeric:normal;font-feature-settings:normal;text-align:start;letter-spacing:0px;word-spacing:0px;writing-mode:lr-tb;text-anchor:start;fill:#000000;fill-opacity:1;stroke:none;stroke-width:0.437871"
     xml:space="preserve" /><g
     aria-label="’d"
     style="font-style:normal;font-variant:normal;font-weight:bold;font-stretch:normal;font-size:9.72288px;line-height:1.25;font-family:'Open Sans Condensed';-inkscape-font-specification:'Open Sans Condensed, Bold';font-variant-ligatures:normal;font-variant-caps:normal;font-variant-numeric:normal;font-feature-settings:normal;text-align:start;letter-spacing:-0.0767292px;word-spacing:0px;writing-mode:lr-tb;text-anchor:start;fill:#ffffff;fill-opacity:1;stroke:none;stroke-width:0.60768"
     id="text1677"
     transform="translate(13.842136,5.2194147)" /><text
     xml:space="preserve"
     style="font-style:normal;font-variant:normal;font-weight:normal;font-stretch:normal;font-size:11.2889px;font-family:'Patrick Hand';-inkscape-font-specification:'Patrick Hand';fill:#1d9bf0;fill-opacity:1;stroke-width:0.79375;stroke-dasharray:none"
     x="39.632015"
     y="19.447281"
     id="text1774"><tspan
       id="tspan1772"
       style="font-size:11.2889px;fill:#1d9bf0;fill-opacity:1;stroke-width:0.79375"
       x="39.632015"
       y="19.447281">You won't find me</tspan><tspan
       style="font-size:11.2889px;fill:#1d9bf0;fill-opacity:1;stroke-width:0.79375"
       x="39.632015"
       y="33.558407"
       id="tspan2311">on Twitter</tspan></text><style
     id="style1002"
     type="text/css">
	.st0{clip-path:url(#SVGID_2_);fill:#4967A9;}
</style><g
     id="g5819"
     transform="matrix(1.1589093,0,0,1.1589093,-44.001661,62.298105)"
     style="fill:#ffffff;stroke:url(#linearGradient5839);stroke-width:0.529168;stroke-dasharray:none"><path
       style="fill:#ffffff;stroke:url(#linearGradient5841);stroke-width:0.529168;stroke-dasharray:none"
       d="m 50.454522,-29.270408 -0.07133,-0.08091 0.08091,0.07133 c 0.07562,0.06667 0.0944,0.09049 0.07133,0.09049 -0.0053,0 -0.04168,-0.03641 -0.08091,-0.08091 z m -0.268083,-0.174561 c 0.02124,-0.0085 0.04662,-0.0075 0.05639,0.0023 0.0098,0.0098 -0.0076,0.01673 -0.03862,0.01545 -0.03428,-0.0014 -0.04125,-0.0084 -0.01778,-0.01778 z m -0.747525,-0.193207 -0.05605,-0.0662 0.0662,0.05605 c 0.06221,0.05267 0.07959,0.07635 0.05605,0.07635 -0.0056,0 -0.03537,-0.02979 -0.0662,-0.0662 z m 5.631484,-0.218693 c 0.02124,-0.0085 0.04661,-0.0075 0.05639,0.0023 0.0098,0.0098 -0.0076,0.01673 -0.03862,0.01545 -0.03427,-0.0014 -0.04125,-0.0084 -0.01778,-0.01778 z m 0.218822,-0.0013 c 0.06068,-0.0063 0.159979,-0.0063 0.22066,0 0.06068,0.0063 0.01103,0.01154 -0.11033,0.01154 -0.121363,0 -0.171012,-0.0052 -0.11033,-0.01154 z m -6.496633,-0.133028 -0.08641,-0.09562 0.09562,0.08641 c 0.08913,0.08055 0.109143,0.104826 0.08641,0.104826 -0.0051,0 -0.04809,-0.04303 -0.09562,-0.09562 z m 7.453172,0.07481 c 0.0366,-0.007 0.08956,-0.0068 0.117686,5.94e-4 0.02813,0.0074 -0.0018,0.01312 -0.06654,0.0128 -0.06473,-3.26e-4 -0.08774,-0.0064 -0.05114,-0.01339 z m 0.485111,5.26e-4 c 0.02832,-0.0074 0.07466,-0.0074 0.102975,0 0.02832,0.0074 0.0051,0.01346 -0.05149,0.01346 -0.05664,0 -0.07981,-0.0061 -0.05149,-0.01346 z m -2.248901,-0.02924 c 0.02124,-0.0085 0.04662,-0.0075 0.05639,0.0023 0.0098,0.0098 -0.0076,0.01673 -0.03862,0.01545 -0.03427,-0.0014 -0.04125,-0.0084 -0.01778,-0.01778 z m 2.647929,0 c 0.02124,-0.0085 0.04662,-0.0075 0.05639,0.0023 0.0098,0.0098 -0.0076,0.01673 -0.03862,0.01545 -0.03428,-0.0014 -0.04125,-0.0084 -0.01778,-0.01778 z m -8.83842,-0.310892 -0.05605,-0.0662 0.0662,0.05605 c 0.06221,0.05267 0.07959,0.07635 0.05605,0.07635 -0.0056,0 -0.03537,-0.02979 -0.0662,-0.0662 z m -0.129601,-0.386232 c 0,-0.0061 0.02317,-0.02928 0.05149,-0.05149 l 0.05149,-0.04038 -0.04038,0.05149 c -0.03844,0.04901 -0.0626,0.06459 -0.0626,0.04038 z m 12.91601,-0.882643 c 0,-0.0061 0.02317,-0.02928 0.05149,-0.05149 l 0.05149,-0.04038 -0.04038,0.05149 c -0.03843,0.04901 -0.0626,0.06459 -0.0626,0.04038 z m 0.793149,-0.614097 c 0.07214,-0.07686 0.13503,-0.139752 0.139752,-0.139752 0.02209,0 -0.0013,0.02642 -0.131167,0.148337 l -0.139752,0.131167 z m 0.266023,-0.272148 c 0.038,-0.04045 0.07572,-0.07355 0.08381,-0.07355 0.0081,0 -0.01638,0.0331 -0.05439,0.07355 -0.038,0.04045 -0.07572,0.07355 -0.08381,0.07355 -0.0081,0 0.01638,-0.0331 0.05439,-0.07355 z m -11.079966,-1.346031 -0.05605,-0.0662 0.0662,0.05605 c 0.06221,0.05267 0.07959,0.07635 0.05605,0.07635 -0.0056,0 -0.03537,-0.02979 -0.0662,-0.0662 z m -0.300394,-0.566362 c 6e-4,-0.04855 0.0072,-0.06484 0.01465,-0.03622 0.0075,0.02863 0.007,0.06835 -0.0011,0.08826 -0.0081,0.01992 -0.01416,-0.0035 -0.01356,-0.05205 z m 12.894354,-0.281462 c -0.01067,-0.01726 -0.01308,-0.03769 -0.0054,-0.0454 0.0077,-0.0077 0.02186,0.0064 0.03144,0.03138 0.01989,0.05184 0.0029,0.06096 -0.02607,0.01402 z m -5.87212,-0.961594 -0.04038,-0.05149 0.05149,0.04038 c 0.04901,0.03843 0.06459,0.0626 0.04038,0.0626 -0.0061,0 -0.02928,-0.02317 -0.05149,-0.05149 z m -0.441321,-0.353057 -0.04038,-0.05149 0.05149,0.04038 c 0.02832,0.02221 0.05149,0.04538 0.05149,0.05149 0,0.02421 -0.02416,0.0086 -0.0626,-0.04038 z m -7.476647,-0.02684 c 0.02023,-0.0082 0.05333,-0.0082 0.07355,0 0.02023,0.0082 0.0037,0.01484 -0.03678,0.01484 -0.04046,0 -0.05701,-0.0067 -0.03678,-0.01484 z m -0.233533,-0.03003 c 0.02124,-0.0085 0.04662,-0.0075 0.05639,0.0023 0.0098,0.0098 -0.0076,0.01673 -0.03862,0.01545 -0.03427,-0.0014 -0.04125,-0.0084 -0.01778,-0.01778 z m 7.54932,-0.07552 -0.05605,-0.0662 0.0662,0.05605 c 0.06221,0.05267 0.07959,0.07635 0.05605,0.07635 -0.0056,0 -0.03537,-0.02979 -0.0662,-0.0662 z m 1.723949,-0.0626 c 0,-0.0061 0.02317,-0.02928 0.05149,-0.05149 l 0.05149,-0.04038 -0.04038,0.05149 c -0.03844,0.04901 -0.0626,0.06459 -0.0626,0.04038 z m 4.545612,-0.224263 c 0.02929,-0.03236 0.05987,-0.05884 0.06796,-0.05884 0.0081,0 -0.0093,0.02648 -0.03854,0.05884 -0.02929,0.03236 -0.05987,0.05884 -0.06796,0.05884 -0.0081,0 0.0093,-0.02648 0.03854,-0.05884 z m -15.507892,-0.330991 -0.05605,-0.0662 0.0662,0.05605 c 0.06221,0.05267 0.07959,0.07635 0.05605,0.07635 -0.0056,0 -0.03537,-0.02979 -0.0662,-0.0662 z m 8.57756,-0.04413 -0.101391,-0.11033 0.11033,0.101391 c 0.102693,0.09437 0.123858,0.119269 0.101391,0.119269 -0.0049,0 -0.05457,-0.04965 -0.11033,-0.11033 z m -0.384648,-0.470743 -0.04038,-0.05149 0.05149,0.04038 c 0.02832,0.02221 0.05149,0.04538 0.05149,0.05149 0,0.02422 -0.02416,0.0086 -0.0626,-0.04038 z m -0.20595,-0.294214 -0.04038,-0.05149 0.05149,0.04038 c 0.04901,0.03844 0.06459,0.0626 0.04038,0.0626 -0.0061,0 -0.02928,-0.02317 -0.05149,-0.05149 z m -8.587306,-0.138016 c 0,-0.02332 0.012,-0.04981 0.02668,-0.05888 0.01467,-0.0091 0.01975,0.01001 0.01128,0.0424 -0.01796,0.0687 -0.03796,0.07738 -0.03796,0.01649 z m 1.444102,0.03191 c 0.0067,-0.0058 0.0586,-0.01899 0.115234,-0.02938 l 0.102975,-0.0189 -0.04413,0.02893 c -0.03989,0.02615 -0.203256,0.0443 -0.174077,0.01935 z m 6.966675,-0.129267 -0.04038,-0.05149 0.05149,0.04038 c 0.04901,0.03843 0.06459,0.0626 0.04038,0.0626 -0.0061,0 -0.02928,-0.02317 -0.05149,-0.05149 z m 4.505233,-0.08091 c 0.05489,-0.05664 0.106427,-0.102975 0.114518,-0.102975 0.0081,0 -0.0302,0.04634 -0.0851,0.102975 -0.05489,0.05664 -0.106427,0.102975 -0.114518,0.102975 -0.0081,0 0.0302,-0.04634 0.0851,-0.102975 z m -12.658573,-0.0342 c 0.02023,-0.0082 0.05333,-0.0082 0.07355,0 0.02023,0.0082 0.0037,0.01484 -0.03678,0.01484 -0.04046,0 -0.057,-0.0067 -0.03678,-0.01484 z m 17.311805,-1.12795 c 0,-0.04046 0.0067,-0.057 0.01484,-0.03678 0.0082,0.02023 0.0082,0.05333 0,0.07355 -0.0082,0.02023 -0.01484,0.0037 -0.01484,-0.03678 z m -18.336427,-0.286859 -0.07133,-0.08091 0.08091,0.07133 c 0.07562,0.06667 0.0944,0.09049 0.07133,0.09049 -0.0053,0 -0.04168,-0.03641 -0.08091,-0.08091 z m -0.178054,-0.20595 -0.04038,-0.05149 0.05149,0.04038 c 0.02832,0.02221 0.05149,0.04538 0.05149,0.05149 0,0.02421 -0.02416,0.0086 -0.0626,-0.04038 z m 8.179159,-0.08826 -0.04038,-0.05149 0.05149,0.04038 c 0.04901,0.03843 0.06459,0.0626 0.04038,0.0626 -0.0061,0 -0.02928,-0.02317 -0.05149,-0.05149 z m -8.296845,-0.05884 -0.04038,-0.05149 0.05149,0.04038 c 0.02832,0.02221 0.05149,0.04538 0.05149,0.05149 0,0.02422 -0.02416,0.0086 -0.0626,-0.04038 z m 18.632167,-0.0074 c 0,-0.04045 0.0067,-0.057 0.01484,-0.03678 0.0082,0.02023 0.0082,0.05333 0,0.07355 -0.0082,0.02023 -0.01484,0.0037 -0.01484,-0.03678 z m -10.480903,-0.08091 -0.07133,-0.08091 0.08091,0.07133 c 0.0445,0.03923 0.08091,0.07564 0.08091,0.08091 0,0.02307 -0.02383,0.0043 -0.09049,-0.07133 z m -2.092212,-0.615882 c 0.02124,-0.0085 0.04662,-0.0075 0.05639,0.0023 0.0098,0.0098 -0.0076,0.01673 -0.03862,0.01545 -0.03428,-0.0014 -0.04125,-0.0084 -0.01778,-0.01778 z m -5.088145,-0.06081 -0.04038,-0.05149 0.05149,0.04038 c 0.02832,0.02221 0.05149,0.04538 0.05149,0.05149 0,0.02422 -0.02416,0.0086 -0.0626,-0.04038 z m -0.455074,-0.07355 -0.05605,-0.0662 0.0662,0.05605 c 0.06221,0.05267 0.07959,0.07635 0.05605,0.07635 -0.0056,0 -0.03537,-0.02979 -0.0662,-0.0662 z m -0.858312,-0.198595 c 0,-0.05664 0.0061,-0.07981 0.01346,-0.05149 0.0074,0.02832 0.0074,0.07466 0,0.102975 -0.0074,0.02832 -0.01346,0.0051 -0.01346,-0.05149 z m 17.338368,-0.67466 c -0.0093,-0.01506 -0.0057,-0.03434 0.0081,-0.04284 0.01375,-0.0085 0.025,0.0038 0.025,0.02739 0,0.04961 -0.0093,0.05394 -0.03307,0.01545 z m -0.196249,-0.259471 -0.04038,-0.05149 0.05149,0.04038 c 0.02832,0.02221 0.05149,0.04538 0.05149,0.05149 0,0.02421 -0.02416,0.0086 -0.0626,-0.04038 z m -0.611775,-0.02452 c 0.0014,-0.03428 0.0084,-0.04125 0.01778,-0.01778 0.0085,0.02124 0.0075,0.04661 -0.0023,0.05639 -0.0098,0.0098 -0.01673,-0.0076 -0.01545,-0.03862 z m -15.466082,-1.019944 -0.05605,-0.0662 0.0662,0.05605 c 0.06221,0.05267 0.07959,0.07635 0.05605,0.07635 -0.0056,0 -0.03537,-0.02979 -0.0662,-0.0662 z m -0.948756,-0.198594 c 0,-0.04046 0.0067,-0.057 0.01484,-0.03678 0.0082,0.02023 0.0082,0.05333 0,0.07355 -0.0082,0.02023 -0.01484,0.0037 -0.01484,-0.03678 z m -0.0023,-0.16427 c 0.0014,-0.03427 0.0084,-0.04125 0.01778,-0.01778 0.0085,0.02124 0.0075,0.04661 -0.0023,0.05639 -0.0098,0.0098 -0.01673,-0.0076 -0.01545,-0.03862 z m -0.0023,-0.758903 c 0,-0.0061 0.02317,-0.02928 0.05149,-0.05149 l 0.05149,-0.04038 -0.04038,0.05149 c -0.03843,0.04901 -0.0626,0.06459 -0.0626,0.04038 z"
       id="path5833" /><path
       style="fill:#ffffff;stroke:url(#linearGradient5843);stroke-width:0.529168;stroke-dasharray:none"
       d="m 50.052764,-29.445259 c 0.02863,-0.0075 0.06834,-0.007 0.08826,0.0011 0.01992,0.0081 -0.0035,0.01416 -0.05205,0.01356 -0.04855,-6e-4 -0.06484,-0.0072 -0.03622,-0.01465 z m 6.413313,-0.471428 c 0.0445,-0.0067 0.117318,-0.0067 0.161818,0 0.0445,0.0067 0.0081,0.01226 -0.08091,0.01226 -0.089,0 -0.125409,-0.0055 -0.08091,-0.01226 z m -8.278532,-0.442314 -0.04038,-0.05149 0.05149,0.04038 c 0.04901,0.03844 0.06459,0.0626 0.04038,0.0626 -0.0061,0 -0.02928,-0.02317 -0.05149,-0.05149 z m 16.207609,-3.233777 c 0.02023,-0.0082 0.05333,-0.0082 0.07355,0 0.02023,0.0082 0.0037,0.01484 -0.03678,0.01484 -0.04046,0 -0.057,-0.0067 -0.03678,-0.01484 z m -6.412034,-1.883585 c 0.02124,-0.0085 0.04662,-0.0075 0.05639,0.0023 0.0098,0.0098 -0.0076,0.01673 -0.03862,0.01545 -0.03427,-0.0014 -0.04124,-0.0084 -0.01778,-0.01777 z m 0.343863,-0.274116 c 0.02929,-0.03236 0.05987,-0.05884 0.06796,-0.05884 0.0081,0 -0.0093,0.02648 -0.03854,0.05884 -0.02929,0.03236 -0.05987,0.05884 -0.06796,0.05884 -0.0081,0 0.0093,-0.02648 0.03854,-0.05884 z m -7.583375,-0.196014 c 0.02023,-0.0082 0.05333,-0.0082 0.07355,0 0.02023,0.0082 0.0037,0.01484 -0.03678,0.01484 -0.04046,0 -0.057,-0.0067 -0.03678,-0.01484 z m 12.349648,-0.0982 c 0.02929,-0.03236 0.05987,-0.05884 0.06796,-0.05884 0.0081,0 -0.0093,0.02648 -0.03854,0.05884 -0.02929,0.03236 -0.05987,0.05884 -0.06796,0.05884 -0.0081,0 0.0093,-0.02648 0.03854,-0.05884 z m -6.122454,-0.183884 -0.05605,-0.0662 0.0662,0.05605 c 0.03641,0.03083 0.0662,0.06061 0.0662,0.0662 0,0.02354 -0.02368,0.0062 -0.07635,-0.05605 z m 6.887411,-0.463388 c 0.0632,-0.06473 0.121537,-0.117686 0.129628,-0.117686 0.0081,0 -0.037,0.05296 -0.100207,0.117686 -0.0632,0.06473 -0.121537,0.117686 -0.129628,0.117686 -0.0081,0 0.037,-0.05296 0.100207,-0.117686 z m -3.986605,-0.65838 c 0,-0.0061 0.02317,-0.02928 0.05149,-0.05149 l 0.05149,-0.04038 -0.04038,0.05149 c -0.03843,0.04901 -0.0626,0.06459 -0.0626,0.04038 z m -12.303676,-0.362047 c 0.02124,-0.0085 0.04661,-0.0075 0.05639,0.0023 0.0098,0.0098 -0.0076,0.01673 -0.03862,0.01545 -0.03427,-0.0014 -0.04125,-0.0084 -0.01778,-0.01778 z m 17.343859,-1.671634 c 1.76e-4,-0.09709 0.0057,-0.133263 0.01221,-0.08038 0.0065,0.05288 0.0064,0.132318 -3e-4,0.176528 -0.0067,0.04421 -0.01207,9.45e-4 -0.01191,-0.09615 z m -3.863325,-0.02582 c 0,-0.0061 0.02317,-0.02928 0.05149,-0.05149 l 0.05149,-0.04038 -0.04038,0.05149 c -0.03844,0.04901 -0.0626,0.06459 -0.0626,0.04038 z m -6.784437,-0.408147 -0.05605,-0.0662 0.0662,0.05605 c 0.03641,0.03083 0.0662,0.06061 0.0662,0.0662 0,0.02354 -0.02368,0.0062 -0.07635,-0.05605 z m -0.752967,-0.277536 c 0.02124,-0.0085 0.04661,-0.0075 0.05639,0.0023 0.0098,0.0098 -0.0076,0.01673 -0.03862,0.01545 -0.03427,-0.0014 -0.04125,-0.0084 -0.01778,-0.01778 z m 8.951955,-1.585822 c 0.0014,-0.03427 0.0084,-0.04125 0.01778,-0.01778 0.0085,0.02124 0.0075,0.04661 -0.0023,0.05639 -0.0098,0.0098 -0.01673,-0.0076 -0.01545,-0.03862 z m -14.540265,-0.210853 -0.04038,-0.05149 0.05149,0.04038 c 0.02832,0.02221 0.05149,0.04538 0.05149,0.05149 0,0.02421 -0.02416,0.0086 -0.0626,-0.04038 z m 15.24638,-0.25989 c 0.0014,-0.03427 0.0084,-0.04125 0.01778,-0.01778 0.0085,0.02124 0.0075,0.04661 -0.0023,0.05639 -0.0098,0.0098 -0.01673,-0.0076 -0.01545,-0.03862 z m 0.706114,-0.147107 c 0.0014,-0.03427 0.0084,-0.04125 0.01778,-0.01778 0.0085,0.02124 0.0075,0.04661 -0.0023,0.05639 -0.0098,0.0098 -0.01673,-0.0076 -0.01545,-0.03862 z"
       id="path5831" /><path
       style="fill:#ffffff;stroke:url(#linearGradient5845);stroke-width:0.529168;stroke-dasharray:none"
       d="m 55.774673,-29.885677 c 0.02023,-0.0082 0.05333,-0.0082 0.07355,0 0.02023,0.0082 0.0037,0.01484 -0.03678,0.01484 -0.04045,0 -0.057,-0.0067 -0.03678,-0.01484 z m 0.148946,-6.12e-4 c 0.02124,-0.0085 0.04661,-0.0075 0.05639,0.0023 0.0098,0.0098 -0.0076,0.01673 -0.03862,0.01545 -0.03428,-0.0014 -0.04125,-0.0084 -0.01778,-0.01778 z m 6.301704,-2.638941 c 0,-0.0061 0.02317,-0.02928 0.05149,-0.05149 l 0.05149,-0.04038 -0.04038,0.05149 c -0.03843,0.04901 -0.0626,0.06459 -0.0626,0.04038 z m -11.185662,-2.215597 c 0.02124,-0.0085 0.04661,-0.0075 0.05639,0.0023 0.0098,0.0098 -0.0076,0.01673 -0.03862,0.01545 -0.03428,-0.0014 -0.04125,-0.0084 -0.01778,-0.01778 z m 12.241081,-0.325604 -0.04038,-0.05149 0.05149,0.04038 c 0.02832,0.02221 0.05149,0.04538 0.05149,0.05149 0,0.02421 -0.02416,0.0086 -0.0626,-0.04038 z m 1.626577,-4.096934 c 0,-0.04046 0.0067,-0.057 0.01484,-0.03678 0.0082,0.02023 0.0082,0.05333 0,0.07355 -0.0082,0.02023 -0.01484,0.0037 -0.01484,-0.03678 z m -17.20427,-0.742892 -0.05605,-0.0662 0.0662,0.05605 c 0.06221,0.05267 0.07959,0.07635 0.05605,0.07635 -0.0056,0 -0.03537,-0.02979 -0.0662,-0.0662 z m -0.309883,-0.308925 -0.04038,-0.05149 0.05149,0.04038 c 0.02832,0.02221 0.05149,0.04538 0.05149,0.05149 0,0.02422 -0.02416,0.0086 -0.0626,-0.04038 z m -0.792852,-0.382478 -0.07133,-0.08091 0.08091,0.07133 c 0.07562,0.06667 0.0944,0.09049 0.07133,0.09049 -0.0053,0 -0.04168,-0.03641 -0.08091,-0.08091 z m 17.304354,-1.260218 c 0.0014,-0.03428 0.0084,-0.04125 0.01778,-0.01778 0.0085,0.02124 0.0075,0.04661 -0.0023,0.05639 -0.0098,0.0098 -0.01673,-0.0076 -0.01545,-0.03862 z m -17.070509,-0.916968 -0.04038,-0.05149 0.05149,0.04038 c 0.02832,0.02221 0.05149,0.04538 0.05149,0.05149 0,0.02422 -0.02416,0.0086 -0.0626,-0.04038 z m -0.788303,-0.318733 c 0.0014,-0.03427 0.0084,-0.04125 0.01778,-0.01778 0.0085,0.02124 0.0075,0.04661 -0.0023,0.05639 -0.0098,0.0098 -0.01673,-0.0076 -0.01545,-0.03862 z"
       id="path5829" /><path
       style="fill:#ffffff;stroke:url(#linearGradient5847);stroke-width:0.529168;stroke-dasharray:none"
       d="m 54.921452,-29.885677 c 0.02023,-0.0082 0.05333,-0.0082 0.07355,0 0.02023,0.0082 0.0037,0.01484 -0.03678,0.01484 -0.04045,0 -0.057,-0.0067 -0.03678,-0.01484 z m 7.112632,-2.451916 c 0.02929,-0.03236 0.05987,-0.05884 0.06796,-0.05884 0.0081,0 -0.0093,0.02648 -0.03854,0.05884 -0.02929,0.03236 -0.05987,0.05884 -0.06796,0.05884 -0.0081,0 0.0093,-0.02648 0.03854,-0.05884 z m -4.725894,-3.582059 -0.04038,-0.05149 0.05149,0.04038 c 0.02832,0.02221 0.05149,0.04538 0.05149,0.05149 0,0.02421 -0.02416,0.0086 -0.0626,-0.04038 z m -0.175002,-0.147107 -0.07133,-0.08091 0.08091,0.07133 c 0.07562,0.06667 0.0944,0.09049 0.07133,0.09049 -0.0053,0 -0.04168,-0.03641 -0.08091,-0.08091 z m -9.328121,-0.764958 -0.04038,-0.05149 0.05149,0.04038 c 0.04901,0.03843 0.06459,0.0626 0.04038,0.0626 -0.0061,0 -0.02928,-0.02317 -0.05149,-0.05149 z m 13.434638,-2.743548 c 0.02929,-0.03236 0.05987,-0.05884 0.06796,-0.05884 0.0081,0 -0.0093,0.02648 -0.03854,0.05884 -0.02929,0.03236 -0.05987,0.05884 -0.06796,0.05884 -0.0081,0 0.0093,-0.02648 0.03854,-0.05884 z m -13.742606,-0.536942 -0.05605,-0.0662 0.0662,0.05605 c 0.06221,0.05267 0.07959,0.07635 0.05605,0.07635 -0.0056,0 -0.03537,-0.02979 -0.0662,-0.0662 z m 14.742935,-0.228016 c 0.01,-0.01618 0.02402,-0.02942 0.03116,-0.02942 0.0071,0 0.01297,0.01324 0.01297,0.02942 0,0.01618 -0.01402,0.02942 -0.03116,0.02942 -0.01714,0 -0.02298,-0.01324 -0.01297,-0.02942 z m 0.658229,-1.404873 -0.04038,-0.05149 0.05149,0.04038 c 0.04901,0.03844 0.06459,0.0626 0.04038,0.0626 -0.0061,0 -0.02928,-0.02317 -0.05149,-0.05149 z m 0.853222,-0.147107 -0.04038,-0.05149 0.05149,0.04038 c 0.04901,0.03844 0.06459,0.0626 0.04038,0.0626 -0.0061,0 -0.02928,-0.02317 -0.05149,-0.05149 z m 0.123761,-0.25989 c 0.0014,-0.03427 0.0084,-0.04125 0.01778,-0.01778 0.0085,0.02124 0.0075,0.04661 -0.0023,0.05639 -0.0098,0.0098 -0.01673,-0.0076 -0.01545,-0.03862 z"
       id="path5827" /><path
       style="fill:#ffffff;stroke:url(#linearGradient5849);stroke-width:0.529168;stroke-dasharray:none"
       d="m 51.569247,-29.180176 c 0.02124,-0.0085 0.04662,-0.0075 0.05639,0.0023 0.0098,0.0098 -0.0076,0.01673 -0.03862,0.01545 -0.03427,-0.0014 -0.04125,-0.0084 -0.01778,-0.01778 z m -1.116251,-0.119654 -0.04038,-0.05149 0.05149,0.04038 c 0.02832,0.02221 0.05149,0.04538 0.05149,0.05149 0,0.02422 -0.02416,0.0086 -0.0626,-0.04038 z m 8.624234,-6.961922 c 0,-0.0061 0.02317,-0.02928 0.05149,-0.05149 l 0.05149,-0.04038 -0.04038,0.05149 c -0.03843,0.04901 -0.0626,0.06459 -0.0626,0.04038 z"
       id="path5825" /><path
       style="fill:#ffffff;stroke:url(#linearGradient5851);stroke-width:0.529168;stroke-dasharray:none"
       d="m 56.863266,-29.94452 c 0.02023,-0.0082 0.05333,-0.0082 0.07355,0 0.02023,0.0082 0.0037,0.01484 -0.03678,0.01484 -0.04045,0 -0.057,-0.0067 -0.03678,-0.01484 z m -8.087292,-0.09084 -0.04038,-0.05149 0.05149,0.04038 c 0.02832,0.02221 0.05149,0.04538 0.05149,0.05149 0,0.02422 -0.02416,0.0086 -0.0626,-0.04038 z m 12.978606,-2.019122 c 0,-0.0061 0.02317,-0.02928 0.05149,-0.05149 l 0.05149,-0.04038 -0.04038,0.05149 c -0.03844,0.04901 -0.0626,0.06459 -0.0626,0.04038 z M 51.133442,-34.63246 c 0.02427,-0.01569 0.05737,-0.02852 0.07355,-0.02852 0.01618,0 0.0096,0.01283 -0.01471,0.02852 -0.02427,0.01569 -0.05737,0.02852 -0.07355,0.02852 -0.01618,0 -0.0096,-0.01283 0.01471,-0.02852 z m -1.353386,-0.792642 c 0,-0.01523 0.01309,-0.03577 0.02908,-0.04566 0.01668,-0.01031 0.02161,0.0015 0.01156,0.02769 -0.01956,0.05097 -0.04065,0.0603 -0.04065,0.01797 z m 0.375123,-0.521386 c 0.02023,-0.0082 0.05333,-0.0082 0.07355,0 0.02023,0.0082 0.0037,0.01484 -0.03678,0.01484 -0.04045,0 -0.057,-0.0067 -0.03678,-0.01484 z m 0.309485,-9.03e-4 c 0.02863,-0.0075 0.06835,-0.007 0.08826,0.0011 0.01992,0.0081 -0.0035,0.01416 -0.05205,0.01356 -0.04854,-6e-4 -0.06484,-0.0072 -0.03622,-0.01465 z m 6.021895,-0.766635 -0.101391,-0.11033 0.110331,0.101391 c 0.102693,0.09437 0.123858,0.119269 0.101391,0.119269 -0.0049,0 -0.05457,-0.04965 -0.110331,-0.11033 z m -8.18493,-0.938905 c 0.02023,-0.0082 0.05333,-0.0082 0.07355,0 0.02023,0.0082 0.0037,0.01484 -0.03678,0.01484 -0.04045,0 -0.057,-0.0067 -0.03678,-0.01484 z m 11.893615,-0.04856 c 0,-0.0051 0.04303,-0.04809 0.09562,-0.09562 l 0.09562,-0.08641 -0.08641,0.09562 c -0.08055,0.08913 -0.104826,0.109143 -0.104826,0.08641 z m -5.799776,-1.984096 -0.04038,-0.05149 0.05149,0.04038 c 0.04901,0.03843 0.06459,0.0626 0.04038,0.0626 -0.0061,0 -0.02928,-0.02317 -0.05149,-0.05149 z m 6.934393,-0.810358 c 0.01105,-0.02902 0.0275,-0.04535 0.03656,-0.03629 0.0091,0.0091 1.9e-5,0.0328 -0.02009,0.05276 l -0.03656,0.03629 z m -15.079927,-0.276498 c -7.09e-4,-0.05507 0.06001,-0.07838 0.09773,-0.03752 l 0.03421,0.03706 -0.04007,-0.0228 c -0.02373,-0.0135 -0.05054,-0.0063 -0.06575,0.01775 -0.01689,0.02666 -0.02584,0.02854 -0.02613,0.0055 z m 15.745753,-0.406282 c 6.01e-4,-0.04855 0.0072,-0.06484 0.01465,-0.03622 0.0075,0.02863 0.007,0.06835 -0.0011,0.08826 -0.0081,0.01992 -0.01416,-0.0035 -0.01356,-0.05205 z m 1.911303,-0.809089 c 0,-0.04046 0.0067,-0.057 0.01484,-0.03678 0.0082,0.02023 0.0082,0.05333 0,0.07355 -0.0082,0.02023 -0.01484,0.0037 -0.01484,-0.03678 z m -0.710759,-0.08826 c 0,-0.04855 0.01095,-0.08826 0.02433,-0.08826 0.01338,0 0.0185,0.03972 0.01137,0.08826 -0.0071,0.04855 -0.01807,0.08826 -0.02433,0.08826 -0.0063,0 -0.01137,-0.03972 -0.01137,-0.08826 z m -16.199296,-0.50752 -0.05605,-0.0662 0.0662,0.05605 c 0.06221,0.05267 0.07959,0.07635 0.05605,0.07635 -0.0056,0 -0.03537,-0.02979 -0.0662,-0.0662 z"
       id="path5823" /><path
       style="fill:#ffffff;stroke:url(#linearGradient5853);stroke-width:0.529168;stroke-dasharray:none"
       d="m 50.676995,-29.105463 c -0.04832,-0.03469 -0.142186,-0.129412 -0.208596,-0.210496 l -0.120747,-0.147425 -0.247021,-0.0055 -0.247022,-0.0055 -0.168503,-0.06533 c -0.09268,-0.03593 -0.19388,-0.09759 -0.224895,-0.137018 -0.03102,-0.03943 -0.07716,-0.07169 -0.102541,-0.07169 -0.101369,0 -0.386032,-0.130523 -0.490498,-0.224901 -0.06094,-0.05506 -0.176485,-0.119611 -0.256759,-0.143451 -0.298234,-0.08856 -0.491413,-0.310326 -0.420167,-0.482331 l 0.03504,-0.08458 0.166892,-0.06054 c 0.178032,-0.06458 0.70114,-0.182102 1.064246,-0.23909 0.121363,-0.01905 0.419255,-0.07948 0.661982,-0.1343 0.242727,-0.05482 0.560479,-0.119885 0.706115,-0.144595 0.145636,-0.02471 0.337611,-0.06501 0.426611,-0.08956 0.089,-0.02455 0.259673,-0.07024 0.379274,-0.101552 0.517538,-0.13547 1.044285,-0.434899 1.167477,-0.663652 l 0.05575,-0.103513 -0.04182,-0.06587 c -0.126057,-0.198525 -0.182995,-0.329616 -0.245604,-0.565465 l -0.06943,-0.261546 -0.218275,-0.07947 c -0.695705,-0.253287 -1.127497,-0.480639 -1.260605,-0.663749 -0.308501,-0.42439 -0.304508,-0.595792 0.01668,-0.715965 0.09098,-0.03404 0.191258,-0.07999 0.222849,-0.102119 l 0.05744,-0.04023 -0.08335,-0.01604 c -0.04584,-0.0088 -0.182649,-0.02489 -0.304012,-0.03571 -0.439528,-0.03917 -0.824521,-0.179351 -1.039322,-0.378422 l -0.07869,-0.07293 v -0.115489 c 0,-0.144457 0.02056,-0.16052 0.304311,-0.237744 0.126917,-0.03454 0.272553,-0.08402 0.323636,-0.109959 0.1132,-0.05748 0.431225,-0.250923 0.431225,-0.262305 0,-0.0045 -0.221764,-0.0081 -0.492809,-0.0079 -1.547544,9.18e-4 -2.86423,-0.703209 -2.968988,-1.587729 l -0.01697,-0.143262 0.08443,-0.0665 0.08443,-0.0665 0.141986,0.01878 c 0.07809,0.01033 0.209249,0.04529 0.29146,0.0777 0.08221,0.0324 0.243393,0.07207 0.35818,0.08815 0.4032,0.05648 0.620709,0.08048 0.631593,0.06969 0.03296,-0.03266 -0.03578,-0.100335 -0.133971,-0.131899 -0.239621,-0.07703 -0.803241,-0.376791 -1.077577,-0.573116 -0.747198,-0.534721 -0.906221,-0.660505 -1.024749,-0.81055 -0.06959,-0.0881 -0.155577,-0.193275 -0.191079,-0.23373 -0.364509,-0.415362 -0.498873,-0.697318 -0.583778,-1.225031 -0.02447,-0.152086 0.02735,-0.353115 0.101218,-0.392647 0.07939,-0.04249 0.148042,-0.03704 0.148042,0.01176 0,0.02292 0.01655,0.04759 0.03678,0.05481 0.02023,0.0072 0.02717,0.02345 0.01542,0.03607 -0.01175,0.01261 -0.04485,0.0047 -0.07355,-0.01753 l -0.0522,-0.04046 0.05668,0.06639 0.05668,0.06639 0.02172,-0.03515 0.02172,-0.03515 0.07955,0.05212 c 0.04375,0.02867 0.180589,0.14595 0.304081,0.260627 0.123492,0.114676 0.370167,0.303409 0.548167,0.419406 0.645171,0.420437 0.696861,0.40173 0.232923,-0.0843 -0.562676,-0.589464 -0.865877,-1.060379 -1.201533,-1.866152 -0.143876,-0.345387 -0.202221,-0.770138 -0.222121,-1.617028 -0.0012,-0.04919 0.117894,-0.155639 0.173883,-0.155472 0.02942,8.8e-5 0.109427,0.129122 0.222469,0.358787 0.303176,0.615958 0.459657,0.813172 0.952482,1.200412 0.2105,0.165402 0.315542,0.240773 0.5333,0.382658 0.108737,0.07085 0.778803,0.38687 1.016935,0.479612 0.144594,0.05631 0.362195,0.148928 0.483559,0.205811 0.351778,0.164877 0.419982,0.191321 1.118014,0.433464 0.36409,0.126301 0.733401,0.256727 0.82069,0.289837 0.16721,0.06342 0.46963,0.124113 0.885753,0.177752 0.274334,0.03536 1.1226,0.183306 1.471072,0.256565 0.477212,0.100325 0.747078,0.336239 1.206279,1.054518 0.153727,0.240459 0.308931,0.48127 0.344897,0.535136 0.03597,0.05387 0.09861,0.167392 0.139219,0.252281 0.0406,0.08489 0.140252,0.2404 0.221439,0.345581 0.08119,0.105182 0.270092,0.362501 0.419788,0.57182 0.402268,0.562489 0.884231,1.061171 1.491914,1.543666 l 0.337095,0.26765 h 0.101408 0.101408 l 0.154157,-0.170348 0.154156,-0.170348 0.244802,-0.131222 c 0.311423,-0.166933 0.564973,-0.403807 0.7971,-0.744678 0.10082,-0.148052 0.249962,-0.36752 0.331424,-0.487705 0.08146,-0.120186 0.27533,-0.351879 0.430816,-0.514875 l 0.282702,-0.296356 0.0486,-0.194347 c 0.08234,-0.329266 0.186393,-0.605776 0.33355,-0.886416 l 0.141049,-0.26899 0.18596,-0.181179 0.185961,-0.181178 -0.05,-0.152863 -0.05,-0.152863 0.01401,-0.218361 c 0.0077,-0.120099 0.03041,-0.23812 0.05045,-0.262271 0.02004,-0.02415 0.02876,-0.05634 0.01937,-0.07154 -0.06225,-0.100718 0.5178,0.01964 0.774085,0.160614 0.175541,0.09656 0.162685,-0.05563 -0.0418,-0.494867 -0.03983,-0.08556 -0.07256,-0.209193 -0.07271,-0.274729 -1.48e-4,-0.06554 -0.01574,-0.134611 -0.03463,-0.153498 l -0.03434,-0.03434 0.05359,-0.02056 c 0.112718,-0.04326 0.603522,0.167218 0.603522,0.258809 0,0.01545 0.01206,0.02064 0.0268,0.01153 0.01474,-0.0091 -0.01174,-0.116652 -0.05884,-0.238981 -0.165793,-0.430558 -0.07544,-0.645041 0.209628,-0.497626 0.08432,0.0436 0.469684,0.469279 0.469684,0.518818 0,0.01371 0.01788,0.02493 0.03973,0.02493 h 0.03973 l -0.04106,-0.213305 c -0.08337,-0.433046 -0.09052,-0.478521 -0.07845,-0.498717 0.0068,-0.01134 0.01408,-0.06761 0.01624,-0.125041 l 0.0039,-0.104423 h 0.05233 c 0.07354,0 0.494521,0.34525 0.563463,0.462098 0.06543,0.110897 0.124363,0.128905 0.100502,0.03071 -0.0088,-0.03641 -0.0252,-0.193362 -0.03633,-0.348785 l -0.02024,-0.282586 0.06911,-0.04841 c 0.03801,-0.02662 0.09942,-0.0484 0.136479,-0.0484 h 0.06737 l 0.09858,0.154463 c 0.292857,0.458844 0.587857,1.404883 0.603216,1.934459 7.03e-4,0.02427 0.01037,0.333223 0.02149,0.686557 l 0.02021,0.642425 -0.03525,0.254929 c -0.06629,0.47935 -0.09294,0.559254 -0.373076,1.118608 l -0.277629,0.554338 -0.203022,0.233413 c -0.111662,0.128377 -0.286961,0.298347 -0.389553,0.37771 -0.102591,0.07936 -0.279208,0.225639 -0.39248,0.325055 -0.202646,0.177856 -0.50432,0.391773 -0.824452,0.584619 l -0.162719,0.09802 0.166705,0.01959 c 0.419653,0.04932 1.10248,0.529693 1.204489,0.847361 0.01554,0.04839 0.188808,0.117362 0.395645,0.157497 0.05664,0.01099 0.166634,0.04698 0.244441,0.07999 l 0.141465,0.06 0.07103,0.140164 c 0.03906,0.07709 0.08276,0.214989 0.0971,0.306442 l 0.02607,0.166278 -0.04733,0.05572 -0.04733,0.05572 -0.338845,0.03044 c -0.862652,0.0775 -1.155482,0.243706 -2.099162,1.191427 -0.338781,0.340232 -0.621562,0.59846 -0.710086,0.64843 -0.08091,0.04567 -0.280543,0.178623 -0.443631,0.295448 -0.163089,0.116825 -0.328584,0.229359 -0.367768,0.250077 -0.03918,0.02072 -0.14593,0.09488 -0.237213,0.164806 -0.320375,0.245423 -0.83501,0.474791 -1.378657,0.614457 -0.105181,0.02702 -0.270677,0.08723 -0.367768,0.133805 -0.101455,0.04866 -0.295395,0.105028 -0.456032,0.132536 -0.153727,0.02632 -0.28613,0.05195 -0.294229,0.05695 -0.07726,0.04767 -0.813053,0.137725 -1.316189,0.161086 -0.335995,0.0156 -0.763156,0.03652 -0.949247,0.0465 -0.200818,0.01076 -0.439997,0.0043 -0.588429,-0.01581 -0.137545,-0.01867 -0.341149,-0.04567 -0.452453,-0.05999 l -0.202371,-0.02605 -0.209529,0.111886 c -0.346321,0.18493 -0.865012,0.354116 -1.45994,0.476201 -0.153727,0.03155 -0.339082,0.07572 -0.4119,0.09816 -0.07282,0.02244 -0.238314,0.05591 -0.367768,0.07438 -0.29439,0.04199 -0.515472,0.08469 -0.710643,0.137245 -0.217963,0.0587 -0.363563,0.05176 -0.466629,-0.02224 z m -0.759155,-6.238632 c -0.0094,-0.02347 -0.01636,-0.0165 -0.01778,0.01778 -0.0013,0.03102 0.0057,0.04839 0.01545,0.03862 0.0098,-0.0098 0.01082,-0.03515 0.0023,-0.05639 z m -2.329681,-2.348199 0.05884,-0.02529 -0.06446,-0.0021 c -0.03545,-0.0011 -0.07265,0.01117 -0.08264,0.02735 -0.02151,0.0348 0.0073,0.0348 0.08826,0 z"
       id="path5821" /></g></svg>
