<?xml version="1.0" encoding="UTF-8" standalone="no"?>
<!-- Created with Inkscape (http://www.inkscape.org/) -->

<svg
   width="418"
   height="148"
   viewBox="0 0 110.59616 39.158333"
   version="1.1"
   id="svg80"
   sodipodi:docname="css.svg"
   inkscape:version="1.2.2 (b0a8486541, 2022-12-01)"
   xml:space="preserve"
   xmlns:inkscape="http://www.inkscape.org/namespaces/inkscape"
   xmlns:sodipodi="http://sodipodi.sourceforge.net/DTD/sodipodi-0.dtd"
   xmlns:xlink="http://www.w3.org/1999/xlink"
   xmlns="http://www.w3.org/2000/svg"
   xmlns:svg="http://www.w3.org/2000/svg"
   xmlns:rdf="http://www.w3.org/1999/02/22-rdf-syntax-ns#"
   xmlns:cc="http://creativecommons.org/ns#"
   xmlns:dc="http://purl.org/dc/elements/1.1/"><sodipodi:namedview
     id="namedview62"
     pagecolor="#ffffff"
     bordercolor="#000000"
     borderopacity="0.25"
     inkscape:showpageshadow="2"
     inkscape:pageopacity="0.0"
     inkscape:pagecheckerboard="0"
     inkscape:deskcolor="#d1d1d1"
     showgrid="false"
     inkscape:zoom="5.6568543"
     inkscape:cx="153.35378"
     inkscape:cy="62.844115"
     inkscape:window-width="2560"
     inkscape:window-height="1400"
     inkscape:window-x="0"
     inkscape:window-y="40"
     inkscape:window-maximized="1"
     inkscape:current-layer="layer1" /><defs
     id="defs74"><linearGradient
       id="linearGradient1033"><stop
         style="stop-color:#000000;stop-opacity:1;"
         offset="0"
         id="stop1031" /></linearGradient><linearGradient
       id="linearGradient1027"><stop
         style="stop-color:#000000;stop-opacity:1;"
         offset="0"
         id="stop1025" /></linearGradient><clipPath
       id="SVGID_2_"><use
         xlink:href="#SVGID_1_"
         style="overflow:visible"
         id="use1007"
         x="0"
         y="0"
         width="100%"
         height="100%" /></clipPath><clipPath
       id="SVGID_2_-3"><use
         xlink:href="#SVGID_1_"
         style="overflow:visible"
         id="use1007-6"
         x="0"
         y="0"
         width="100%"
         height="100%" /></clipPath><clipPath
       id="SVGID_2_-5"><use
         xlink:href="#SVGID_1_"
         style="overflow:visible"
         id="use1007-3"
         x="0"
         y="0"
         width="100%"
         height="100%" /></clipPath><clipPath
       id="SVGID_2_-6"><use
         xlink:href="#SVGID_1_"
         style="overflow:visible"
         id="use1007-2"
         x="0"
         y="0"
         width="100%"
         height="100%" /></clipPath><clipPath
       id="SVGID_2_-1"><use
         xlink:href="#SVGID_1_"
         style="overflow:visible"
         id="use1007-27"
         x="0"
         y="0"
         width="100%"
         height="100%" /></clipPath><clipPath
       id="SVGID_2_-9"><use
         xlink:href="#SVGID_1_"
         style="overflow:visible"
         id="use1007-36"
         x="0"
         y="0"
         width="100%"
         height="100%" /></clipPath><clipPath
       id="SVGID_2_-2"><use
         xlink:href="#SVGID_1_"
         style="overflow:visible"
         id="use1007-61"
         x="0"
         y="0"
         width="100%"
         height="100%" /></clipPath><clipPath
       id="SVGID_2_-7"><use
         xlink:href="#SVGID_1_"
         style="overflow:visible"
         id="use1007-9"
         x="0"
         y="0"
         width="100%"
         height="100%" /></clipPath><clipPath
       id="SVGID_2_-0"><use
         xlink:href="#SVGID_1_"
         style="overflow:visible"
         id="use1007-23"
         x="0"
         y="0"
         width="100%"
         height="100%" /></clipPath><clipPath
       id="SVGID_2_-92"><use
         xlink:href="#SVGID_1_"
         style="overflow:visible"
         id="use1007-28"
         x="0"
         y="0"
         width="100%"
         height="100%" /></clipPath><clipPath
       id="SVGID_2_-36"><use
         xlink:href="#SVGID_1_"
         style="overflow:visible"
         id="use1007-1"
         x="0"
         y="0"
         width="100%"
         height="100%" /></clipPath><clipPath
       id="SVGID_2_-31"><use
         xlink:href="#SVGID_1_"
         style="overflow:visible"
         id="use1007-94"
         x="0"
         y="0"
         width="100%"
         height="100%" /></clipPath><clipPath
       id="SVGID_2_-4"><use
         xlink:href="#SVGID_1_"
         style="overflow:visible"
         id="use1007-5"
         x="0"
         y="0"
         width="100%"
         height="100%" /></clipPath><clipPath
       id="SVGID_2_-61"><use
         xlink:href="#SVGID_1_"
         style="overflow:visible"
         id="use1007-0"
         x="0"
         y="0"
         width="100%"
         height="100%" /></clipPath><clipPath
       id="SVGID_2_-32"><use
         xlink:href="#SVGID_1_"
         style="overflow:visible"
         id="use1007-06"
         x="0"
         y="0"
         width="100%"
         height="100%" /></clipPath><rect
       x="0"
       height="12.9"
       width="66.900002"
       y="0"
       id="SVGID_1_" /><clipPath
       id="clipPath4674"
       clipPathUnits="userSpaceOnUse"><path
         id="path4676"
         d="M 0,500 H 1024 V 0 H 0 Z" /></clipPath><linearGradient
       xlink:href="#linearGradient1027"
       id="linearGradient1029"
       x1="-1.2029998"
       y1="14.334795"
       x2="10.983719"
       y2="14.334795"
       gradientUnits="userSpaceOnUse" /><linearGradient
       xlink:href="#linearGradient1033"
       id="linearGradient1035"
       x1="-8.780899"
       y1="14.330109"
       x2="20.15568"
       y2="14.330109"
       gradientUnits="userSpaceOnUse"
       gradientTransform="translate(0.45401091,0.0296427)" /><linearGradient
       xlink:href="#linearGradient1027"
       id="linearGradient2569"
       gradientUnits="userSpaceOnUse"
       x1="-1.2029998"
       y1="14.334795"
       x2="10.983719"
       y2="14.334795" /><linearGradient
       inkscape:collect="always"
       xlink:href="#linearGradient1027"
       id="linearGradient327"
       gradientUnits="userSpaceOnUse"
       x1="-1.2029998"
       y1="14.334795"
       x2="10.983719"
       y2="14.334795"
       gradientTransform="translate(-5.9493788,-4.1862466)" /><linearGradient
       inkscape:collect="always"
       xlink:href="#linearGradient1027"
       id="linearGradient511"
       gradientUnits="userSpaceOnUse"
       gradientTransform="translate(-5.9493788,-4.1862466)"
       x1="-1.2029998"
       y1="14.334795"
       x2="10.983719"
       y2="14.334795" /></defs><metadata
     id="metadata77"><rdf:RDF><cc:Work
         rdf:about=""><dc:format>image/svg+xml</dc:format><dc:type
           rdf:resource="http://purl.org/dc/dcmitype/StillImage" /></cc:Work></rdf:RDF></metadata><g
     id="layer1"
     transform="translate(13.842136,5.2194147)"><g
       transform="matrix(0.26458333,0,0,0.26458333,-786.78129,-477.41915)"
       id="g1026"><defs
         id="defs1005"><rect
           x="0"
           height="12.9"
           width="66.900002"
           y="0"
           id="rect1656" /></defs><clipPath
         id="SVGID_2_-67"><use
           height="100%"
           width="100%"
           y="0"
           x="0"
           id="use1007-365"
           style="overflow:visible"
           xlink:href="#SVGID_1_" /></clipPath></g><text
       xml:space="preserve"
       style="font-style:normal;font-variant:normal;font-weight:normal;font-stretch:normal;font-size:4.23333px;line-height:1.25;font-family:'SF Cartoonist Hand SC';-inkscape-font-specification:'SF Cartoonist Hand SC';font-variant-ligatures:normal;font-variant-caps:normal;font-variant-numeric:normal;font-feature-settings:normal;text-align:start;letter-spacing:0px;word-spacing:0px;writing-mode:lr-tb;text-anchor:start;fill:#000000;fill-opacity:1;stroke:none;stroke-width:0.264583"
       x="2.0215223"
       y="-6.5003476"
       id="text1669" /><text
       id="text1673"
       y="25.431738"
       x="13.260739"
       style="font-style:normal;font-variant:normal;font-weight:600;font-stretch:normal;font-size:7.00594px;line-height:1.25;font-family:'URW Gothic L';-inkscape-font-specification:'URW Gothic L Semi-Bold';font-variant-ligatures:normal;font-variant-caps:normal;font-variant-numeric:normal;font-feature-settings:normal;text-align:start;letter-spacing:0px;word-spacing:0px;writing-mode:lr-tb;text-anchor:start;fill:#000000;fill-opacity:1;stroke:none;stroke-width:0.437871"
       xml:space="preserve" /><g
       aria-label="’d"
       style="font-style:normal;font-variant:normal;font-weight:bold;font-stretch:normal;font-size:9.72288px;line-height:1.25;font-family:'Open Sans Condensed';-inkscape-font-specification:'Open Sans Condensed, Bold';font-variant-ligatures:normal;font-variant-caps:normal;font-variant-numeric:normal;font-feature-settings:normal;text-align:start;letter-spacing:-0.0767292px;word-spacing:0px;writing-mode:lr-tb;text-anchor:start;fill:#ffffff;fill-opacity:1;stroke:none;stroke-width:0.60768"
       id="text1677" /><text
       xml:space="preserve"
       style="font-style:normal;font-variant:normal;font-weight:normal;font-stretch:normal;font-size:11.2889px;font-family:'Patrick Hand';-inkscape-font-specification:'Patrick Hand';fill:#007acc;fill-opacity:1;stroke:none;stroke-width:0.396876;stroke-dasharray:none"
       x="23.641396"
       y="16.623177"
       id="text1774"><tspan
         sodipodi:role="line"
         id="tspan2109"
         x="23.641396"
         y="16.623177"
         style="stroke:none">CSS</tspan></text><path
       style="fill:#007acc;fill-opacity:1;stroke:none;stroke-width:0.411687"
       d="M 64.530605,103.33756 C 58.435143,101.3186 53.34763,99.565464 53.225021,99.4417 53.102412,99.317938 52.871862,96.561293 52.712687,93.315823 52.553513,90.070354 52.355984,86.51955 52.273733,85.425147 l -0.149545,-1.989823 h 5.912298 5.912299 l 0.01929,3.224885 c 0.01061,1.773687 0.111444,3.459803 0.224076,3.746924 0.151865,0.387138 1.724965,1.038534 6.087407,2.520705 l 5.88262,1.998666 5.720032,-1.947798 c 3.146016,-1.071287 5.872439,-2.100207 6.058719,-2.286487 0.213531,-0.213529 0.460184,-2.098753 0.667463,-5.101469 0.180822,-2.619529 0.40206,-5.534694 0.491637,-6.478144 l 0.162867,-1.715364 h -12.91302 c -12.062502,0 -12.92212,-0.03163 -13.051197,-0.480302 -0.076,-0.264167 -0.223584,-2.857797 -0.327969,-5.763625 l -0.189788,-5.283322 h 13.463724 13.463722 l 0.144011,-1.440906 C 90.073634,62.21534 90.57124,55.365993 90.57124,54.534251 V 53.793828 H 70.310833 50.050426 L 49.709652,48.784963 C 49.522226,46.030088 49.304875,43.436457 49.22665,43.021339 l -0.142228,-0.75476 h 26.946577 26.946571 l -0.17089,1.852593 c -0.17093,1.852914 -1.87038,28.871241 -2.903067,46.153872 -0.301385,5.043838 -0.579239,9.198259 -0.617454,9.232047 -0.244828,0.216468 -22.808992,7.530689 -23.194293,7.518479 -0.263232,-0.008 -5.465799,-1.66705 -11.561261,-3.68601 z"
       id="path10666"
       transform="matrix(0.26458411,0,0,0.26458411,-13.842136,-5.2194727)" /><path
       style="fill:#007acc;fill-opacity:1;stroke:none;stroke-width:0.0727767"
       d="m 75.542264,106.85377 c -3.19462,-0.94012 -17.470504,-5.66095 -21.105257,-6.979202 -0.493668,-0.179045 -0.959179,-0.347897 -1.034468,-0.375227 -0.07529,-0.02733 -0.157359,-0.103537 -0.182379,-0.169342 -0.110604,-0.290908 -0.324063,-2.959864 -0.482288,-6.030208 -0.252938,-4.908272 -0.42956,-7.883697 -0.562324,-9.473107 l -0.03141,-0.376013 h 5.895092 5.895092 l 0.02601,2.729128 c 0.02452,2.572904 0.07529,3.7021 0.18549,4.12532 0.05552,0.213215 0.236865,0.360414 0.806775,0.654856 0.828314,0.427946 2.388138,0.995828 7.684778,2.797795 l 3.523722,1.198803 3.268775,-1.114639 c 4.752723,-1.620661 6.659718,-2.303957 7.949999,-2.848579 0.526012,-0.22203 0.549571,-0.238357 0.640482,-0.443876 0.229948,-0.519835 0.397321,-1.991949 0.694024,-6.104192 0.218904,-3.033962 0.342255,-4.59688 0.462478,-5.85983 0.05278,-0.554425 0.09596,-1.04874 0.09596,-1.098476 0,-0.08791 -0.324727,-0.09114 -11.63215,-0.11599 -7.300022,-0.01604 -11.961865,-0.04477 -12.517463,-0.07713 -1.484253,-0.08645 -1.745842,-0.157742 -1.814226,-0.494412 -0.08729,-0.429746 -0.255196,-3.854501 -0.421414,-8.595524 l -0.08122,-2.316743 13.453091,1.6e-5 c 10.719822,1.3e-5 13.457022,-0.0123 13.472437,-0.06063 0.111564,-0.349758 0.786838,-9.243996 0.836178,-11.013548 l 0.02942,-1.055263 h -20.26353 c -11.144942,0 -20.263559,-0.01638 -20.263595,-0.03639 -1.65e-4,-0.09293 -0.443708,-6.455215 -0.509895,-7.314063 -0.14533,-1.885801 -0.275535,-3.207457 -0.35968,-3.650967 l -0.08515,-0.44879 H 76.0382 102.96078 l -0.0271,0.206201 c -0.0564,0.428946 -0.17414,1.869058 -0.29257,3.57819 -0.31506,4.546699 -1.55127,24.238779 -2.40313,38.28057 -0.668632,11.021349 -0.872572,14.211295 -0.951331,14.880167 l -0.02967,0.25204 -0.297982,0.104071 c -3.798113,1.326514 -19.463182,6.406044 -22.427344,7.272254 -0.426304,0.12458 -0.478257,0.12315 -0.989385,-0.0273 z"
       id="path10668"
       transform="matrix(0.26458411,0,0,0.26458411,-13.842136,-5.2194727)" /><path
       style="fill:#007acc;fill-opacity:1;stroke:none;stroke-width:0.0727767"
       d="m 87.417004,65.65712 c 0.193465,-0.0092 0.510043,-0.0092 0.703508,0 0.193465,0.0092 0.03518,0.01674 -0.351754,0.01674 -0.38693,0 -0.545219,-0.0075 -0.351754,-0.01674 z"
       id="path10670"
       transform="matrix(0.26458411,0,0,0.26458411,-13.842136,-5.2194727)" /><path
       style="fill:#007acc;fill-opacity:1;stroke:none;stroke-width:0.00585938"
       d="m 81.554687,65.787748 v -0.07976 l 0.528321,-0.0024 c 0.290576,-0.0013 2.123461,-0.006 4.073077,-0.01041 1.949616,-0.0044 3.545582,-0.0088 3.546591,-0.0098 0.001,-0.001 0.0084,-0.23165 0.01643,-0.512535 0.0164,-0.573799 0.02008,-0.678922 0.0311,-0.887654 0.02553,-0.483567 0.08315,-1.376209 0.160669,-2.489258 l 0.0168,-0.241211 h 0.08492 0.08492 l -0.002,0.0166 c -0.0011,0.0091 -0.0099,0.117676 -0.01958,0.241211 -0.05757,0.734575 -0.14208,1.732817 -0.191305,2.259766 -0.01929,0.206482 -0.173712,1.75717 -0.175127,1.758585 -0.006,0.006 -0.208687,0.0152 -0.455608,0.02074 -0.553291,0.01242 -0.725852,0.01302 -4.188476,0.01446 l -3.510743,0.0015 z"
       id="path10672"
       transform="matrix(0.26458411,0,0,0.26458411,-13.842136,-5.2194727)" /><path
       style="fill:#0277bd;fill-opacity:1;stroke-width:0.79375234;stroke:#000000;stroke-dasharray:none"
       d="M 5.8021369,29.167654 C 5.5744804,29.099757 5.269006,29.012894 5.1233061,28.974612 4.9776052,28.93633 4.7019346,28.857811 4.510703,28.800127 4.3194714,28.742445 4.0065469,28.651173 3.8153153,28.597308 2.9310292,28.348229 2.6486928,28.267067 2.3251997,28.168946 2.133968,28.110944 1.8950836,28.044891 1.7943446,28.022161 1.6935998,27.999437 1.2311255,27.867003 0.7666115,27.727873 0.3020976,27.588745 -0.09733191,27.474912 -0.121011,27.474912 c -0.0236758,0 -0.43996006,-0.119209 -0.925069,-0.264908 -0.48511,-0.145701 -0.9033126,-0.26491 -0.9293386,-0.26491 -0.026026,0 -0.3932199,-0.104379 -0.8159833,-0.231958 -0.4227634,-0.127577 -0.8340089,-0.245581 -0.9138801,-0.262231 -0.079867,-0.01665 -0.3094769,-0.07786 -0.510235,-0.136033 L -4.5805301,26.209116 -4.8405564,23.42303 c -0.1430158,-1.532349 -0.2711659,-2.979802 -0.2847797,-3.216566 -0.013609,-0.236762 -0.1380651,-1.674725 -0.276559,-3.195471 -0.1384941,-1.520746 -0.2748257,-3.055564 -0.302959,-3.41071 -0.028135,-0.355143 -0.095253,-1.115102 -0.1491623,-1.688796 C -5.972092,10.654872 -6.1303451,8.8547276 -6.2004342,7.9709562 -6.245779,7.399136 -6.3468781,6.2894302 -6.4990856,4.6927019 -6.5259945,4.4104079 -6.5787573,3.8069104 -6.6163448,3.3515972 -6.6539278,2.8962841 -6.7365725,1.9277092 -6.7999991,1.1992078 -6.8634246,0.47070625 -6.9149149,-0.15886769 -6.9144218,-0.19984549 l 9.011e-4,-0.0745009 H 6.3153963 19.544314 l -3.64e-4,0.10762389 c -1.99e-4,0.0591948 -0.05277,0.65896271 -0.116799,1.3328256 -0.06405,0.673864 -0.130004,1.456174 -0.146586,1.7384692 -0.01658,0.282294 -0.06883,0.9230431 -0.116098,1.4238881 -0.04727,0.5008448 -0.114757,1.2161006 -0.149972,1.5894569 -0.03521,0.3733565 -0.102705,1.0886122 -0.149973,1.5894571 -0.04727,0.5008438 -0.09933,1.141594 -0.115662,1.423888 -0.01634,0.282294 -0.08941,1.1465626 -0.162363,1.9205946 -0.07295,0.774032 -0.15641,1.660652 -0.185452,1.970265 -0.02904,0.309612 -0.07425,0.777201 -0.100483,1.039083 -0.02622,0.261884 -0.04782,0.567357 -0.04798,0.678831 -1.65e-4,0.111476 -0.103508,1.305365 -0.229641,2.653092 -0.126136,1.347727 -0.245621,2.666479 -0.265521,2.930561 -0.0199,0.264082 -0.150943,1.741272 -0.291208,3.282644 l -0.255025,2.802495 -0.447727,0.122347 c -0.246249,0.06729 -0.82239,0.232953 -1.280314,0.368139 -0.457922,0.135188 -0.853756,0.245795 -0.87963,0.245795 -0.02588,0 -0.344113,0.09001 -0.7072,0.20004 -0.363085,0.11002 -0.831518,0.244865 -1.040962,0.299654 -0.209444,0.05479 -0.724999,0.20319 -1.145676,0.32978 -0.420679,0.12659 -0.788963,0.230163 -0.818408,0.230163 -0.02944,0 -0.117388,0.02109 -0.195427,0.04685 -0.169484,0.05595 -1.3508721,0.399544 -1.8638018,0.542062 -0.2003384,0.05566 -0.5207129,0.148323 -0.7119445,0.205908 -0.1912317,0.05759 -0.4594522,0.134483 -0.5960463,0.170887 -0.1365942,0.03641 -0.322858,0.08614 -0.4139215,0.110514 -0.091068,0.02438 -0.2922275,0.08245 -0.4470341,0.129077 -0.1548067,0.04662 -0.318719,0.08393 -0.3642507,0.08292 -0.045528,-0.001 -0.2690482,-0.05738 -0.4967048,-0.125281 z m 0.9999253,-6.163082 c 0.2604987,-0.09105 0.4959849,-0.165432 0.5233041,-0.165272 0.027321,1.66e-4 0.3923968,-0.117035 0.8112849,-0.260431 0.4188882,-0.143396 1.1192427,-0.376912 1.5563437,-0.518926 0.4371001,-0.142015 1.1374551,-0.373374 1.5563431,-0.514131 0.418888,-0.140757 0.854925,-0.282316 0.968971,-0.314574 0.114045,-0.03226 0.222449,-0.07684 0.240895,-0.09906 0.01845,-0.02224 0.04856,-0.329014 0.06691,-0.681748 0.07792,-1.497448 0.136445,-2.481944 0.343247,-5.773954 0.12013,-1.912315 0.286155,-4.564722 0.368945,-5.894237 0.08279,-1.3295145 0.15921,-2.5104318 0.169825,-2.6242596 l 0.0193,-0.2069607 H 6.2868583 -0.8537133 v 0.1143655 c 0,0.062898 0.0521552,0.7564938 0.11589832,1.5413238 0.0637463,0.7848289 0.1158972,1.4337205 0.1158972,1.4419824 0,0.00825 2.41570518,0.01502 5.36823298,0.01502 h 5.3682318 l -0.02004,0.1738475 C 10.058637,9.5489506 9.9082209,11.589352 9.8998339,11.878375 l -0.0081,0.281466 -3.5845563,0.0084 -3.5845566,0.0084 -0.00115,0.107475 c -6.593e-4,0.05911 0.032447,0.759398 0.073549,1.556195 l 0.074753,1.448725 h 3.4199315 3.4199404 l -2.98e-4,0.107623 c -8.64e-4,0.296407 -0.231031,3.348957 -0.254245,3.371906 -0.0148,0.01463 -0.250425,0.102152 -0.5236132,0.194511 -0.2731872,0.09236 -0.6308157,0.214213 -0.794728,0.270801 -0.1639134,0.05659 -0.642955,0.219216 -1.0645376,0.361397 L 6.3056818,19.853723 5.4330696,19.55725 C 4.9531327,19.394287 4.2457501,19.154261 3.8611085,19.023954 L 3.1617596,18.787035 3.1412254,18.470222 c -0.011351,-0.174246 -0.03044,-0.61111 -0.042536,-0.970808 L 3.0766994,16.84542 H 1.5088907 -0.05891888 l -9.8599e-4,0.107623 c -5.4342e-4,0.05919 0.0289493,0.688766 0.0655349,1.399053 0.0365856,0.71029 0.0815057,1.61926 0.0998047,2.019936 0.036035,0.788716 0.036528,0.790457 0.2330039,0.83142 0.045528,0.0095 0.4255116,0.132429 0.84439987,0.273194 0.4188882,0.140764 1.1415939,0.379553 1.6060128,0.530642 0.46442,0.15109 1.1874399,0.392584 1.6067122,0.536654 0.4192722,0.14407 0.7862264,0.261946 0.8154536,0.261946 0.029225,0 0.2822333,0.08113 0.5622342,0.180305 0.2800021,0.09916 0.519477,0.181123 0.5321667,0.182125 0.012692,0.001 0.2362062,-0.07268 0.4967048,-0.163742 z"
       id="path10541" /><rect
       style="fill:#0277bd;fill-opacity:1;stroke:none;stroke-width:0.396876"
       id="rect10872"
       width="15.770637"
       height="19.500879"
       x="-1.4178317"
       y="4.6898131"
       ry="0" /><text
       xml:space="preserve"
       style="font-style:normal;font-variant:normal;font-weight:normal;font-stretch:normal;font-size:25.4001px;font-family:sans-serif;-inkscape-font-specification:sans-serif;fill:#ffffff;fill-opacity:1;stroke:#ffffff;stroke-width:0.79375;stroke-dasharray:none"
       x="0.60077608"
       y="21.922853"
       id="text1101"><tspan
         id="tspan1099"
         style="font-style:normal;font-variant:normal;font-weight:normal;font-stretch:normal;font-size:25.4001px;font-family:'Patrick Hand';-inkscape-font-specification:'Patrick Hand';fill:#ffffff;stroke:#000000;stroke-width:0.79375;stroke-dasharray:none"
         x="0.60077608"
         y="21.922853">3</tspan></text></g><style
     id="style1002"
     type="text/css">
	.st0{clip-path:url(#SVGID_2_);fill:#4967A9;}
</style></svg>
